<svg width="257" height="423" viewBox="0 0 257 423" fill="none" xmlns="http://www.w3.org/2000/svg">
<g opacity="0.3">
<mask id="path-1-inside-1_683_15289" fill="white">
<path d="M34.9475 47.4272C50.3757 57.2253 64.712 68.6721 77.7088 81.5699C90.7584 94.4625 102.277 108.844 112.034 124.425C117.243 132.653 121.864 141.246 125.862 150.139C129.825 158.817 132.554 168.018 133.97 177.47C135.576 189.904 134.037 202.551 129.496 214.233C124.932 226.003 117.912 236.648 108.915 245.444C99.9582 254.195 89.1558 260.787 77.3195 264.724C75.8758 265.259 74.3409 265.553 72.8534 265.97L70.6077 266.557L69.4859 266.853L68.3406 267.05L63.7626 267.842C63.3809 267.904 63.0021 267.986 62.618 268.033L61.4591 268.136L59.1427 268.344C56.0534 268.631 52.9514 268.754 49.8497 268.71C48.2985 268.729 46.7472 268.538 45.1967 268.466C43.6434 268.407 42.0943 268.266 40.556 268.042L35.9342 267.4C34.3995 267.146 32.8851 266.764 31.3596 266.457L29.0718 265.988C28.3091 265.833 27.568 265.579 26.8147 265.381L22.3117 264.118C20.8306 263.63 19.3709 263.073 17.8984 262.558L15.6933 261.773C14.9676 261.487 14.2607 261.152 13.5429 260.845L9.25039 258.97L5.09295 256.807L3.0141 255.726L1.01564 254.503L-2.98143 252.056L-6.79508 249.335L-8.70077 247.973L-10.5051 246.481L-14.112 243.497L-17.4977 240.268C-18.0563 239.725 -18.6428 239.208 -19.1801 238.644L-20.747 236.911C-21.7836 235.75 -22.8601 234.617 -23.8688 233.438C-31.8122 223.898 -37.5648 212.7 -40.7149 200.646C-42.2545 194.735 -42.9819 188.638 -42.8765 182.525C-42.7494 176.539 -41.6265 170.617 -39.5547 165.004C-39.2715 164.137 -38.9216 163.294 -38.5083 162.481L-37.3694 159.996C-36.5377 158.371 -35.6101 156.798 -34.5916 155.285C-32.5535 152.211 -30.1866 149.372 -27.5336 146.82C-24.8352 144.238 -21.9128 141.906 -18.8015 139.852C-15.6442 137.787 -12.3179 136 -8.85893 134.508C-1.85998 131.486 5.56034 129.579 13.1362 128.857C20.8608 128.134 28.6409 128.313 36.3223 129.389C40.1966 129.913 44.068 130.588 47.9098 131.479C51.7465 132.385 55.5604 133.44 59.3468 134.621L62.1784 135.538C63.1204 135.851 64.0509 136.208 64.9877 136.541L70.6016 138.569C72.4767 139.235 74.2879 140.074 76.1353 140.817C77.9642 141.606 79.835 142.296 81.6306 143.164C96.172 149.814 109.999 157.949 122.897 167.441C135.792 177.035 147.855 187.718 158.955 199.376C170.035 211.113 180.217 223.681 189.414 236.972C198.63 250.279 206.933 264.207 214.266 278.659C221.644 293.109 228.027 308.057 233.369 323.395C239.836 341.919 244.875 360.921 248.442 380.232L249.083 383.586C249.257 384.685 249.427 385.759 249.594 386.808L250.586 392.816C251.296 396.624 251.689 400.092 252.189 403.201C253.225 409.418 253.812 414.289 254.506 418.013C255.486 423.439 256.135 423.41 256.432 418.65C256.566 416.272 256.672 412.706 256.569 408.065C256.463 405.749 256.321 403.167 256.144 400.319L255.849 395.862C255.681 394.32 255.507 392.716 255.325 391.05C253.401 373.451 250.025 356.046 245.232 339.018C239.768 319.57 232.741 300.607 224.22 282.317C223.143 280.04 222.003 277.792 220.898 275.528C219.765 273.278 218.714 270.985 217.516 268.77L213.908 262.131L212.105 258.812C211.496 257.709 210.832 256.639 210.198 255.552C207.621 251.227 205.137 246.844 202.349 242.652L198.271 236.298C196.863 234.213 195.405 232.163 193.975 230.093C188.304 221.778 182.114 213.824 175.658 206.106C169.205 198.37 162.367 190.969 155.172 183.932C147.996 176.845 140.435 170.167 132.523 163.929C124.621 157.632 116.34 151.835 107.727 146.572L104.14 144.397L102.339 143.305L100.493 142.287C98.0215 140.939 95.5573 139.554 93.0574 138.225C90.5151 136.976 87.9701 135.725 85.4222 134.473C82.8635 133.245 80.2267 132.185 77.6328 131.04C75.051 129.861 72.3691 128.943 69.7303 127.941C68.4067 127.45 67.0854 126.961 65.7666 126.472C64.429 126.03 63.0943 125.588 61.7625 125.148C56.4547 123.473 51.0633 122.08 45.6103 120.975C36.9377 119.166 28.0954 118.309 19.2374 118.419C10.2232 118.519 1.27356 119.991 -7.30905 122.787C-15.9923 125.657 -24.1072 130.052 -31.2791 135.77C-34.8817 138.704 -38.1695 142.012 -41.0885 145.638C-42.5603 147.465 -43.9238 149.378 -45.1717 151.367L-46.9663 154.413L-48.5098 157.597C-49.5304 159.724 -50.412 161.915 -51.149 164.158C-51.5458 165.267 -51.8771 166.398 -52.1414 167.546C-52.4331 168.687 -52.7463 169.824 -53.0132 170.97C-53.9266 175.562 -54.3588 180.238 -54.3028 184.92C-54.1874 194.161 -52.4985 203.31 -49.3101 211.968C-46.1906 220.538 -41.8947 228.622 -36.5482 235.984C-31.1893 243.272 -24.8828 249.799 -17.7982 255.389C-7.36689 263.737 4.44802 270.156 17.1007 274.348C18.6534 274.95 20.2761 275.334 21.8748 275.794C23.4828 276.221 25.0707 276.728 26.6965 277.086L31.5948 278.071C32.4144 278.219 33.223 278.424 34.0514 278.522L36.5331 278.833C38.1879 279.031 39.8399 279.263 41.4983 279.427L46.4996 279.68L49.0001 279.793L51.5069 279.731L56.5191 279.598L61.5151 279.082L64.0117 278.817C64.8397 278.694 65.6618 278.52 66.4869 278.373L71.4303 277.444C73.0623 277.058 74.6737 276.573 76.2952 276.14C82.7924 274.367 89.0514 271.799 94.9328 268.492C97.8698 266.864 100.72 265.081 103.472 263.151C106.204 261.207 108.836 259.125 111.359 256.911C116.401 252.498 120.994 247.589 125.072 242.257C132.385 232.728 137.846 221.891 141.166 210.317C144.49 198.656 145.233 186.403 143.342 174.427C141.471 162.542 137.348 151.325 132.358 140.805C127.329 130.346 121.552 120.271 115.071 110.661C89.1966 72.2308 52.7946 41.5141 11.4344 21.6151C3.29122 17.7358 -5.05539 14.3061 -13.5685 11.3412C-21.7868 8.52511 -30.1614 6.19472 -38.6497 4.36193C-46.7602 2.63309 -54.9668 1.39599 -63.2253 0.657262C-67.2584 0.394667 -71.2214 0.0890757 -75.1463 0.065068C-79.0596 -0.0755406 -82.9235 0.0409074 -86.7107 0.140648C-89.2723 0.218744 -91.8274 0.44891 -94.3627 0.829953C-95.9764 1.01303 -96.6578 1.43697 -96.4073 1.76842C-95.9082 2.48906 -91.6851 3.63795 -83.8533 5.08919C-82.4626 5.25073 -81.0678 5.41276 -79.6688 5.57525C-78.2759 5.78363 -76.8792 5.99257 -75.4788 6.20205C-74.0804 6.41789 -72.6759 6.60113 -71.276 6.84171C-69.8788 7.09839 -68.4784 7.35567 -67.0747 7.61358C-64.2669 8.10556 -61.463 8.67404 -58.6508 9.24097C-55.8308 9.76002 -53.0337 10.4491 -50.2246 11.0996C-38.9448 13.7856 -27.8475 17.1963 -17.0007 21.311C1.14779 28.0864 18.5449 36.7521 34.9089 47.1681C34.9174 47.2551 34.9303 47.3416 34.9475 47.4272Z"/>
</mask>
<path d="M34.9475 47.4272C50.3757 57.2253 64.712 68.6721 77.7088 81.5699C90.7584 94.4625 102.277 108.844 112.034 124.425C117.243 132.653 121.864 141.246 125.862 150.139C129.825 158.817 132.554 168.018 133.97 177.47C135.576 189.904 134.037 202.551 129.496 214.233C124.932 226.003 117.912 236.648 108.915 245.444C99.9582 254.195 89.1558 260.787 77.3195 264.724C75.8758 265.259 74.3409 265.553 72.8534 265.97L70.6077 266.557L69.4859 266.853L68.3406 267.05L63.7626 267.842C63.3809 267.904 63.0021 267.986 62.618 268.033L61.4591 268.136L59.1427 268.344C56.0534 268.631 52.9514 268.754 49.8497 268.71C48.2985 268.729 46.7472 268.538 45.1967 268.466C43.6434 268.407 42.0943 268.266 40.556 268.042L35.9342 267.4C34.3995 267.146 32.8851 266.764 31.3596 266.457L29.0718 265.988C28.3091 265.833 27.568 265.579 26.8147 265.381L22.3117 264.118C20.8306 263.63 19.3709 263.073 17.8984 262.558L15.6933 261.773C14.9676 261.487 14.2607 261.152 13.5429 260.845L9.25039 258.97L5.09295 256.807L3.0141 255.726L1.01564 254.503L-2.98143 252.056L-6.79508 249.335L-8.70077 247.973L-10.5051 246.481L-14.112 243.497L-17.4977 240.268C-18.0563 239.725 -18.6428 239.208 -19.1801 238.644L-20.747 236.911C-21.7836 235.75 -22.8601 234.617 -23.8688 233.438C-31.8122 223.898 -37.5648 212.7 -40.7149 200.646C-42.2545 194.735 -42.9819 188.638 -42.8765 182.525C-42.7494 176.539 -41.6265 170.617 -39.5547 165.004C-39.2715 164.137 -38.9216 163.294 -38.5083 162.481L-37.3694 159.996C-36.5377 158.371 -35.6101 156.798 -34.5916 155.285C-32.5535 152.211 -30.1866 149.372 -27.5336 146.82C-24.8352 144.238 -21.9128 141.906 -18.8015 139.852C-15.6442 137.787 -12.3179 136 -8.85893 134.508C-1.85998 131.486 5.56034 129.579 13.1362 128.857C20.8608 128.134 28.6409 128.313 36.3223 129.389C40.1966 129.913 44.068 130.588 47.9098 131.479C51.7465 132.385 55.5604 133.44 59.3468 134.621L62.1784 135.538C63.1204 135.851 64.0509 136.208 64.9877 136.541L70.6016 138.569C72.4767 139.235 74.2879 140.074 76.1353 140.817C77.9642 141.606 79.835 142.296 81.6306 143.164C96.172 149.814 109.999 157.949 122.897 167.441C135.792 177.035 147.855 187.718 158.955 199.376C170.035 211.113 180.217 223.681 189.414 236.972C198.63 250.279 206.933 264.207 214.266 278.659C221.644 293.109 228.027 308.057 233.369 323.395C239.836 341.919 244.875 360.921 248.442 380.232L249.083 383.586C249.257 384.685 249.427 385.759 249.594 386.808L250.586 392.816C251.296 396.624 251.689 400.092 252.189 403.201C253.225 409.418 253.812 414.289 254.506 418.013C255.486 423.439 256.135 423.41 256.432 418.65C256.566 416.272 256.672 412.706 256.569 408.065C256.463 405.749 256.321 403.167 256.144 400.319L255.849 395.862C255.681 394.32 255.507 392.716 255.325 391.05C253.401 373.451 250.025 356.046 245.232 339.018C239.768 319.57 232.741 300.607 224.22 282.317C223.143 280.04 222.003 277.792 220.898 275.528C219.765 273.278 218.714 270.985 217.516 268.77L213.908 262.131L212.105 258.812C211.496 257.709 210.832 256.639 210.198 255.552C207.621 251.227 205.137 246.844 202.349 242.652L198.271 236.298C196.863 234.213 195.405 232.163 193.975 230.093C188.304 221.778 182.114 213.824 175.658 206.106C169.205 198.37 162.367 190.969 155.172 183.932C147.996 176.845 140.435 170.167 132.523 163.929C124.621 157.632 116.34 151.835 107.727 146.572L104.14 144.397L102.339 143.305L100.493 142.287C98.0215 140.939 95.5573 139.554 93.0574 138.225C90.5151 136.976 87.9701 135.725 85.4222 134.473C82.8635 133.245 80.2267 132.185 77.6328 131.04C75.051 129.861 72.3691 128.943 69.7303 127.941C68.4067 127.45 67.0854 126.961 65.7666 126.472C64.429 126.03 63.0943 125.588 61.7625 125.148C56.4547 123.473 51.0633 122.08 45.6103 120.975C36.9377 119.166 28.0954 118.309 19.2374 118.419C10.2232 118.519 1.27356 119.991 -7.30905 122.787C-15.9923 125.657 -24.1072 130.052 -31.2791 135.77C-34.8817 138.704 -38.1695 142.012 -41.0885 145.638C-42.5603 147.465 -43.9238 149.378 -45.1717 151.367L-46.9663 154.413L-48.5098 157.597C-49.5304 159.724 -50.412 161.915 -51.149 164.158C-51.5458 165.267 -51.8771 166.398 -52.1414 167.546C-52.4331 168.687 -52.7463 169.824 -53.0132 170.97C-53.9266 175.562 -54.3588 180.238 -54.3028 184.92C-54.1874 194.161 -52.4985 203.31 -49.3101 211.968C-46.1906 220.538 -41.8947 228.622 -36.5482 235.984C-31.1893 243.272 -24.8828 249.799 -17.7982 255.389C-7.36689 263.737 4.44802 270.156 17.1007 274.348C18.6534 274.95 20.2761 275.334 21.8748 275.794C23.4828 276.221 25.0707 276.728 26.6965 277.086L31.5948 278.071C32.4144 278.219 33.223 278.424 34.0514 278.522L36.5331 278.833C38.1879 279.031 39.8399 279.263 41.4983 279.427L46.4996 279.68L49.0001 279.793L51.5069 279.731L56.5191 279.598L61.5151 279.082L64.0117 278.817C64.8397 278.694 65.6618 278.52 66.4869 278.373L71.4303 277.444C73.0623 277.058 74.6737 276.573 76.2952 276.14C82.7924 274.367 89.0514 271.799 94.9328 268.492C97.8698 266.864 100.72 265.081 103.472 263.151C106.204 261.207 108.836 259.125 111.359 256.911C116.401 252.498 120.994 247.589 125.072 242.257C132.385 232.728 137.846 221.891 141.166 210.317C144.49 198.656 145.233 186.403 143.342 174.427C141.471 162.542 137.348 151.325 132.358 140.805C127.329 130.346 121.552 120.271 115.071 110.661C89.1966 72.2308 52.7946 41.5141 11.4344 21.6151C3.29122 17.7358 -5.05539 14.3061 -13.5685 11.3412C-21.7868 8.52511 -30.1614 6.19472 -38.6497 4.36193C-46.7602 2.63309 -54.9668 1.39599 -63.2253 0.657262C-67.2584 0.394667 -71.2214 0.0890757 -75.1463 0.065068C-79.0596 -0.0755406 -82.9235 0.0409074 -86.7107 0.140648C-89.2723 0.218744 -91.8274 0.44891 -94.3627 0.829953C-95.9764 1.01303 -96.6578 1.43697 -96.4073 1.76842C-95.9082 2.48906 -91.6851 3.63795 -83.8533 5.08919C-82.4626 5.25073 -81.0678 5.41276 -79.6688 5.57525C-78.2759 5.78363 -76.8792 5.99257 -75.4788 6.20205C-74.0804 6.41789 -72.6759 6.60113 -71.276 6.84171C-69.8788 7.09839 -68.4784 7.35567 -67.0747 7.61358C-64.2669 8.10556 -61.463 8.67404 -58.6508 9.24097C-55.8308 9.76002 -53.0337 10.4491 -50.2246 11.0996C-38.9448 13.7856 -27.8475 17.1963 -17.0007 21.311C1.14779 28.0864 18.5449 36.7521 34.9089 47.1681C34.9174 47.2551 34.9303 47.3416 34.9475 47.4272Z" fill="#E1CBF6" stroke="#E1CBF6" stroke-width="4" mask="url(#path-1-inside-1_683_15289)"/>
</g>
</svg>
