<svg width="48" height="44" viewBox="0 0 48 44" fill="none" xmlns="http://www.w3.org/2000/svg">
<path d="M11.975 0.20492C14.0982 -0.157602 16.2755 -0.0380151 18.3465 0.554866C20.4174 1.14775 22.3292 2.19881 23.9408 3.63057L24.0296 3.7099L24.1112 3.63778C25.6494 2.28506 27.4577 1.2766 29.4156 0.679661C31.3735 0.0827254 33.4359 -0.0889549 35.4653 0.176073L36.0554 0.262615C38.6134 0.705207 41.0043 1.83278 42.975 3.52592C44.9457 5.21907 46.4228 7.41475 47.2499 9.88047C48.0769 12.3462 48.2232 14.9902 47.6732 17.5324C47.1231 20.0746 45.8973 22.4204 44.1254 24.3215L43.6936 24.7662L43.5784 24.8648L25.7065 42.6036C25.294 43.0127 24.7476 43.258 24.1685 43.2943C23.5893 43.3305 23.0167 43.1552 22.5567 42.8007L22.3312 42.6036L4.35602 24.7614C2.4518 22.9047 1.09756 20.5561 0.443276 17.9757C-0.211008 15.3952 -0.139802 12.6836 0.649009 10.1413C1.43782 7.59887 2.91345 5.32488 4.91248 3.57112C6.91151 1.81737 9.35592 0.652288 11.975 0.20492Z" fill="url(#paint0_linear_878_762)" fill-opacity="0.26"/>
<defs>
<linearGradient id="paint0_linear_878_762" x1="-2.53507" y1="5.82497" x2="21.3015" y2="40.848" gradientUnits="userSpaceOnUse">
<stop stop-color="#FF6F61"/>
<stop offset="1" stop-color="#FF6F61" stop-opacity="0.2"/>
</linearGradient>
</defs>
</svg>
