<svg width="35" height="43" viewBox="0 0 35 43" fill="none" xmlns="http://www.w3.org/2000/svg">
<path d="M17.07 0L17.3196 0.0149362C17.7959 0.0711048 18.2394 0.286092 18.5785 0.625213C18.9177 0.964334 19.1326 1.40781 19.1888 1.8841L19.2038 2.13375V10.6687L19.2144 10.9888C19.2908 12.0048 19.7281 12.96 20.4474 13.6817C21.1667 14.4033 22.1205 14.8438 23.1363 14.9234L23.4712 14.9362H32.0062L32.2559 14.9512C32.7322 15.0074 33.1757 15.2223 33.5148 15.5615C33.8539 15.9006 34.0689 16.3441 34.1251 16.8204L34.14 17.07V36.2738C34.1401 37.9065 33.5163 39.4776 32.3961 40.6656C31.276 41.8535 29.7442 42.5685 28.1143 42.6643L27.7388 42.675H6.40125C4.76848 42.6751 3.19739 42.0513 2.00944 40.9311C0.821479 39.811 0.106458 38.2792 0.010669 36.6493L9.94423e-09 36.2738V6.40125C-9.09441e-05 4.76848 0.623749 3.19739 1.74388 2.00944C2.86401 0.821479 4.39575 0.106458 6.02571 0.010669L6.40125 0H17.07ZM24.9798 21.9627C24.5797 21.5627 24.037 21.338 23.4712 21.338C22.9055 21.338 22.3628 21.5627 21.9627 21.9627L14.9362 28.987L12.1773 26.2302C11.9805 26.0264 11.745 25.8638 11.4847 25.752C11.2244 25.6402 10.9444 25.5813 10.6611 25.5789C10.3778 25.5764 10.0968 25.6304 9.83455 25.7377C9.57232 25.845 9.33408 26.0034 9.13374 26.2037C8.9334 26.4041 8.77496 26.6423 8.66767 26.9046C8.56039 27.1668 8.5064 27.4478 8.50886 27.7311C8.51132 28.0144 8.57018 28.2944 8.68201 28.5547C8.79384 28.815 8.95639 29.0505 9.16019 29.2473L13.4277 33.5148C13.8278 33.9148 14.3705 34.1395 14.9362 34.1395C15.502 34.1395 16.0447 33.9148 16.4448 33.5148L24.9798 24.9798C25.3798 24.5797 25.6045 24.037 25.6045 23.4712C25.6045 22.9055 25.3798 22.3628 24.9798 21.9627ZM23.4712 2.13162L32.0062 10.6687H23.4712V2.13162Z" fill="url(#paint0_linear_539_7367)"/>
<defs>
<linearGradient id="paint0_linear_539_7367" x1="-4.39948" y1="-4.2675" x2="23.8288" y2="32.6118" gradientUnits="userSpaceOnUse">
<stop stop-color="#15607F"/>
<stop offset="1" stop-color="#15607F" stop-opacity="0.2"/>
</linearGradient>
</defs>
</svg>
