<svg width="256" height="424" viewBox="0 0 256 424" fill="none" xmlns="http://www.w3.org/2000/svg">
<path d="M34.137 47.5644C49.5652 57.3908 63.9014 68.8707 76.8982 81.8057C89.9479 94.7357 101.467 109.159 111.223 124.785C116.432 133.037 121.054 141.654 125.052 150.573C129.014 159.276 131.744 168.504 133.159 177.983C134.765 190.454 133.226 203.137 128.685 214.852C124.121 226.657 117.102 237.332 108.104 246.154C99.1476 254.93 88.3452 261.541 76.5089 265.49C75.0652 266.026 73.5304 266.321 72.0428 266.739L69.7972 267.328L68.6753 267.624L67.5301 267.822L62.9521 268.617C62.5704 268.679 62.1915 268.761 61.8074 268.808L60.6486 268.911L58.3322 269.12C55.2429 269.408 52.1408 269.531 49.0392 269.487C47.488 269.506 45.9366 269.314 44.3862 269.242C42.8328 269.184 41.2837 269.042 39.7455 268.817L35.1237 268.173C33.589 267.919 32.0746 267.535 30.5491 267.227L28.2613 266.758C27.4986 266.602 26.7575 266.347 26.0042 266.148L21.5012 264.881C20.02 264.393 18.5603 263.834 17.0879 263.317L14.8828 262.53C14.1571 262.243 13.4501 261.907 12.7324 261.599L8.43984 259.719L4.28241 257.55L2.20357 256.466L0.205098 255.239L-3.79195 252.785L-7.60562 250.056L-9.51131 248.69L-11.3157 247.194L-14.9225 244.201L-18.3083 240.963C-18.8669 240.418 -19.4533 239.9 -19.9906 239.334L-21.5576 237.596C-22.5941 236.431 -23.6707 235.295 -24.6794 234.113C-32.6227 224.545 -38.3753 213.315 -41.5254 201.227C-43.0651 195.299 -43.7924 189.183 -43.6871 183.052C-43.5599 177.05 -42.437 171.11 -40.3652 165.481C-40.082 164.612 -39.7322 163.766 -39.3188 162.951L-38.1799 160.458C-37.3482 158.829 -36.4206 157.251 -35.4021 155.734C-33.364 152.651 -30.9971 149.804 -28.3441 147.245C-25.6458 144.655 -22.7233 142.317 -19.6121 140.256C-16.4548 138.186 -13.1284 136.393 -9.66947 134.897C-2.67053 131.866 4.74981 129.954 12.3257 129.23C20.0503 128.505 27.8303 128.684 35.5117 129.763C39.386 130.289 43.2575 130.966 47.0992 131.859C50.9359 132.767 54.7498 133.826 58.5363 135.01L61.3679 135.93C62.3099 136.244 63.2404 136.602 64.1771 136.935L69.7911 138.969C71.6661 139.638 73.4774 140.479 75.3247 141.224C77.1537 142.015 79.0245 142.707 80.82 143.578C95.3615 150.248 109.189 158.406 122.087 167.926C134.982 177.547 147.044 188.261 158.144 199.953C169.224 211.723 179.407 224.328 188.604 237.658C197.82 251.003 206.123 264.971 213.455 279.465C220.834 293.957 227.217 308.947 232.558 324.33C239.026 342.907 244.065 361.964 247.631 381.332L248.272 384.695C248.446 385.797 248.617 386.874 248.783 387.927L249.776 393.952C250.485 397.771 250.879 401.249 251.378 404.367C252.415 410.602 253.002 415.487 253.696 419.222C254.675 424.664 255.324 424.634 255.622 419.861C255.756 417.475 255.861 413.9 255.758 409.245C255.652 406.923 255.511 404.333 255.333 401.476L255.039 397.007C254.871 395.46 254.696 393.852 254.515 392.181C252.59 374.531 249.214 357.076 244.422 339.998C238.958 320.494 231.93 301.476 223.409 283.134C222.332 280.85 221.192 278.596 220.087 276.325C218.955 274.068 217.904 271.769 216.705 269.547L213.097 262.889L211.294 259.56C210.686 258.455 210.021 257.381 209.388 256.291C206.811 251.954 204.327 247.558 201.538 243.354L197.46 236.982C196.052 234.891 194.595 232.834 193.165 230.758C187.494 222.419 181.303 214.442 174.848 206.702C168.394 198.943 161.557 191.521 154.361 184.463C147.185 177.357 139.624 170.659 131.713 164.403C123.81 158.088 115.529 152.274 106.916 146.995L103.329 144.815L101.529 143.72L99.682 142.698C97.211 141.346 94.7467 139.957 92.2469 138.625C89.7046 137.372 87.1595 136.118 84.6117 134.862C82.053 133.631 79.4162 132.567 76.8222 131.419C74.2405 130.237 71.5585 129.316 68.9198 128.311C67.5961 127.819 66.2749 127.328 64.9561 126.837C63.6185 126.394 62.2838 125.952 60.9519 125.51C55.6441 123.831 50.2527 122.433 44.7998 121.324C36.1271 119.511 27.2848 118.652 18.4269 118.761C9.4127 118.861 0.463002 120.338 -8.1196 123.142C-16.8029 126.02 -24.9177 130.428 -32.0897 136.162C-35.6922 139.105 -38.98 142.423 -41.899 146.06C-43.3709 147.892 -44.7344 149.81 -45.9823 151.805L-47.7769 154.86L-49.3204 158.053C-50.3409 160.185 -51.2225 162.383 -51.9595 164.632C-52.3563 165.744 -52.6877 166.879 -52.9519 168.031C-53.2437 169.174 -53.5568 170.315 -53.8237 171.464C-54.7371 176.07 -55.1694 180.759 -55.1134 185.455C-54.9979 194.722 -53.309 203.898 -50.1206 212.581C-47.0011 221.176 -42.7053 229.283 -37.3587 236.666C-31.9998 243.976 -25.6934 250.521 -18.6088 256.127C-8.17745 264.5 3.63748 270.937 16.2901 275.141C17.8429 275.745 19.4656 276.13 21.0642 276.592C22.6723 277.02 24.2601 277.528 25.8859 277.887L30.7843 278.875C31.6039 279.023 32.4125 279.229 33.2409 279.328L35.7225 279.639C37.3774 279.838 39.0294 280.071 40.6877 280.235L45.689 280.488L48.1895 280.602L50.6964 280.54L55.7086 280.406L60.7045 279.889L63.2012 279.623C64.0292 279.5 64.8513 279.325 65.6764 279.178L70.6197 278.246C72.2517 277.859 73.8632 277.373 75.4847 276.938C81.9818 275.16 88.2409 272.585 94.1222 269.269C97.0593 267.636 99.9095 265.848 102.661 263.912C105.393 261.962 108.026 259.874 110.549 257.654C115.59 253.228 120.184 248.305 124.262 242.958C131.574 233.401 137.035 222.532 140.355 210.925C143.68 199.23 144.423 186.942 142.532 174.932C140.66 163.012 136.537 151.763 131.547 141.213C126.519 130.722 120.742 120.618 114.261 110.981C88.386 72.4397 51.984 41.6341 10.6238 21.6776C2.48066 17.7871 -5.86591 14.3475 -14.379 11.374C-22.5973 8.54973 -30.9719 6.21266 -39.4602 4.37454C-47.5708 2.64069 -55.7773 1.4 -64.0359 0.65914C-68.069 0.395778 -72.0319 0.0893174 -75.9568 0.065246C-79.8701 -0.0757602 -83.734 0.0410085 -87.5213 0.141056C-90.0829 0.219382 -92.6379 0.450175 -95.1732 0.832348C-96.787 1.01594 -97.4684 1.44111 -97.2179 1.77351C-96.7188 2.49624 -92.4956 3.64846 -84.6639 5.1039C-83.2732 5.26589 -81.8783 5.42837 -80.4794 5.59134C-79.0864 5.80033 -77.6897 6.0099 -76.2893 6.22C-74.8909 6.43644 -73.4865 6.62019 -72.0865 6.86148C-70.6893 7.11892 -69.2889 7.37692 -67.8853 7.6356C-65.0774 8.12902 -62.2736 8.69911 -59.4613 9.26766C-56.6414 9.78821 -53.8442 10.4793 -51.0352 11.1317C-39.7553 13.8254 -28.6581 17.2461 -17.8112 21.3727C0.337259 28.1676 17.7343 36.8584 34.0984 47.3045C34.1068 47.3918 34.1197 47.4785 34.137 47.5644Z" fill="#562E7D"/>
</svg>
