<svg width="88" height="85" viewBox="0 0 88 85" fill="none" xmlns="http://www.w3.org/2000/svg">
<g filter="url(#filter0_i_2998_1585)">
<path d="M71.2959 63.3581C71.296 63.3582 71.296 63.3584 71.2961 63.3585C71.4858 63.6491 71.7089 63.9233 71.9701 64.1604C72.1003 64.2793 72.2375 64.3908 72.3844 64.4902C72.5313 64.5893 72.6852 64.678 72.846 64.7542C72.9818 64.8192 73.1236 64.8709 73.2672 64.9165L73.2826 64.9212C73.436 64.9703 73.5178 65.1253 73.4648 65.2674C73.4379 65.3402 73.3802 65.3957 73.3105 65.4258C73.0715 65.5283 72.8302 65.6187 72.5992 65.7109C72.3979 65.7914 72.2045 65.871 72.025 65.9619C71.8451 66.0519 71.681 66.1561 71.528 66.2753C71.4899 66.305 71.4518 66.3352 71.416 66.3679L71.3611 66.4157C71.3434 66.4316 71.3313 66.4467 71.3165 66.4618C71.2876 66.4923 71.2574 66.5199 71.2305 66.5582C71.203 66.5948 71.1737 66.6275 71.1477 66.6671L71.0696 66.7851C71.044 66.8252 71.0208 66.8682 70.9966 66.9095L70.9603 66.972L70.9269 67.0374L70.8599 67.1679C70.6898 67.5235 70.5489 67.899 70.4308 68.2796C70.3741 68.4703 70.3188 68.6619 70.2755 68.8539C70.2323 69.0451 70.1932 69.2384 70.1742 69.421C70.1556 69.5997 69.984 69.7306 69.7911 69.7133C69.6442 69.7 69.527 69.6048 69.488 69.4808L69.487 69.477C69.414 69.2436 69.368 69.0219 69.3229 68.8018L69.1969 68.1513C69.1281 67.7986 69.0547 67.4508 68.9528 67.1261C68.9008 66.9655 68.8399 66.8114 68.7687 66.6783L68.7125 66.5862C68.6902 66.5548 68.6655 66.5225 68.6423 66.4906C68.5921 66.4278 68.54 66.3653 68.4814 66.3059C68.3666 66.1862 68.2378 66.073 68.0997 65.9666C67.9607 65.8616 67.8133 65.763 67.6599 65.6713C67.3531 65.4883 67.0216 65.3333 66.6822 65.2106C66.4916 65.1417 66.3972 64.9423 66.4721 64.7658C66.5102 64.675 66.5855 64.6078 66.6757 64.5733L66.6789 64.5721C66.9472 64.4704 67.215 64.3684 67.4646 64.2483C67.719 64.1329 67.9528 63.9977 68.1681 63.8474L68.3257 63.7312L68.4703 63.6042C68.5209 63.5637 68.5618 63.5155 68.606 63.4698C68.6483 63.4229 68.6967 63.3803 68.7329 63.3282L68.8496 63.1788C68.8864 63.1271 68.9184 63.072 68.9533 63.0195L69.0049 62.9394C69.0207 62.9114 69.0347 62.8825 69.0495 62.8546L69.1383 62.6845C69.2904 62.359 69.4233 62.0094 69.5368 61.6563C69.5619 61.5711 69.5888 61.4936 69.6177 61.4238C69.6321 61.3889 69.647 61.3558 69.6623 61.3244C69.6665 61.3149 69.6688 61.3127 69.6721 61.3084C69.6749 61.3046 69.6781 61.3007 69.6814 61.2972C69.6879 61.2899 69.6948 61.283 69.7027 61.2761C69.7334 61.2486 69.7757 61.2202 69.8166 61.1806C69.858 61.1414 69.8966 61.0927 69.9273 61.0415C70.0166 60.8895 70.0287 60.7987 70.0858 60.8576C70.0998 60.8727 70.1165 60.8981 70.1351 60.9377C70.1537 60.9769 70.1737 61.0316 70.1881 61.1013C70.2025 61.1707 70.2095 61.2542 70.2062 61.3416C70.2053 61.3631 70.2039 61.3864 70.2025 61.4066C70.2011 61.4212 70.2002 61.4363 70.1988 61.4518C70.196 61.4828 70.1923 61.5147 70.1877 61.5478C70.1765 61.6318 70.163 61.717 70.1481 61.8036C70.1323 61.8901 70.1082 61.9771 70.0863 62.0645C70.0459 62.2397 69.9775 62.4137 69.9161 62.5816C69.8841 62.6574 69.8487 62.7323 69.8153 62.8076L69.7646 62.9204L69.7051 63.0307C69.6642 63.1039 69.627 63.1783 69.5828 63.2498L69.4429 63.4621C69.2443 63.7394 69.004 63.9938 68.732 64.21L68.5228 64.3645C68.4517 64.4136 68.3777 64.4575 68.3047 64.5045C68.2327 64.5527 68.1569 64.5919 68.0816 64.6332C68.0063 64.6741 67.9319 64.7176 67.8547 64.7525L67.6255 64.8635L67.394 64.9651L67.2782 65.0155L67.162 65.0625C67.0504 65.1076 66.9284 65.0259 66.9278 64.9055L66.9276 64.8826C66.927 64.7549 67.0522 64.6647 67.1715 64.71C67.439 64.8115 67.6986 64.9285 67.9505 65.062C68.1639 65.1753 68.3768 65.3014 68.5763 65.4478C68.7757 65.5938 68.9612 65.7604 69.1128 65.949C69.1621 66.0144 69.2137 66.0768 69.2583 66.1462C69.2811 66.181 69.3052 66.2116 69.3266 66.2504L69.3903 66.3632C69.4136 66.4011 69.4261 66.4377 69.4443 66.4751C69.4605 66.5121 69.4791 66.5496 69.4931 66.5862C69.5191 66.6594 69.5507 66.7334 69.5721 66.8058C69.6669 67.0968 69.7311 67.3827 69.7901 67.666C69.8483 67.9493 69.8985 68.2305 69.9501 68.5069C69.982 68.676 70.014 68.8449 70.0504 69.0075C70.0852 69.1628 69.9776 69.3181 69.8189 69.3309C69.6598 69.3439 69.5292 69.2074 69.5613 69.051C69.585 68.9355 69.6128 68.8227 69.6423 68.7101C69.7088 68.4604 69.7855 68.2159 69.8706 67.9726C69.9552 67.7293 70.0477 67.4882 70.1546 67.2501C70.2616 67.012 70.3759 66.7756 70.5229 66.5453C70.5968 66.4303 70.6758 66.3162 70.7711 66.2052C70.7827 66.1914 70.7934 66.1772 70.8065 66.1634L70.8469 66.1225L70.9287 66.0415C70.9562 66.0144 70.9827 65.995 71.0101 65.9718C71.0375 65.9494 71.0635 65.9262 71.0919 65.9051C71.2402 65.7875 71.4025 65.6829 71.5703 65.5912C71.7381 65.4995 71.9111 65.4224 72.0822 65.3535C72.355 65.2447 72.6201 65.1516 72.8758 65.049C72.9724 65.0102 73.0806 65.0749 73.0894 65.1786C73.0985 65.2854 72.9972 65.3675 72.8965 65.331C72.667 65.2477 72.4478 65.1433 72.2416 65.0224C71.9743 64.8627 71.7298 64.6754 71.508 64.4696C71.2876 64.2625 71.091 64.036 70.9166 63.7966C70.7428 63.5577 70.5958 63.2989 70.4722 63.038C70.3146 62.7026 70.2053 62.3642 70.1347 62.0356C70.0631 61.7071 70.0305 61.3877 70.03 61.0845C70.0302 61.0359 70.0352 60.9955 70.0438 60.9636C70.0526 60.9307 70.0701 60.9423 70.0567 60.9736C70.0545 60.9789 70.0511 60.9837 70.0463 60.9869C70.0367 60.9933 70.0245 60.9987 70.0124 61.0014C69.997 61.0049 69.9826 61.0049 69.9724 61.004C69.9518 61.0019 69.9469 61.0118 69.9663 61.0192C69.9673 61.0196 69.9684 61.02 69.9696 61.0204C69.9812 61.0243 69.998 61.0277 70.0175 61.026C70.0222 61.0257 70.0269 61.0251 70.0317 61.0242C70.0606 61.019 70.0804 60.9946 70.092 60.9675C70.1151 60.9132 70.1735 60.8859 70.2093 60.9329C70.2371 60.9693 70.2649 61.0233 70.2904 61.0949C70.4406 61.5168 70.5958 61.9534 70.7772 62.3689C70.9243 62.7083 71.0779 63.0516 71.2815 63.3545C71.2832 63.357 71.2864 63.3582 71.2894 63.3575C71.2905 63.3572 71.2917 63.3569 71.293 63.3566C71.2942 63.3563 71.2954 63.357 71.2959 63.3581Z" fill="#FF3B30"/>
</g>
<g filter="url(#filter1_i_2998_1585)">
<path d="M83.2972 71.9065C83.2967 71.9067 83.2964 71.9073 83.2966 71.9078C83.402 72.226 83.5144 72.5418 83.6316 72.8528C83.6613 72.9292 83.691 73.0104 83.7207 73.0819C83.7504 73.1494 83.7761 73.2193 83.809 73.2859C83.8723 73.4192 83.9418 73.55 84.0192 73.6751C84.3295 74.1782 84.7609 74.6089 85.2713 74.9453C85.7058 75.2386 86.1974 75.4662 86.7085 75.6385C86.9664 75.7254 87.1071 76.0131 87.0243 76.2804C86.9836 76.4113 86.8969 76.5128 86.7898 76.573L86.7765 76.5803C86.6687 76.6404 86.5592 76.6949 86.4553 76.7631C85.8559 77.1377 85.3174 77.644 84.8492 78.212C84.3803 78.7809 83.9817 79.4172 83.6613 80.0884C83.3416 80.7596 83.0985 81.469 82.9704 82.1882C82.8793 82.7011 82.847 83.2206 82.8935 83.7173C82.9238 84.0396 82.7276 84.3548 82.411 84.4221C82.0916 84.49 81.78 84.279 81.7236 83.9574C81.6347 83.4514 81.5433 82.9495 81.4385 82.4556C81.308 81.8388 81.1595 81.2318 80.9735 80.645C80.7867 80.0591 80.5632 79.4927 80.2912 78.9597C80.2224 78.828 80.1498 78.6964 80.0779 78.568C80.0044 78.4428 79.9286 78.3201 79.8473 78.2031C79.6855 77.9674 79.5089 77.7488 79.3182 77.5571C78.936 77.1719 78.4944 76.9143 78.0419 76.8517C77.7012 76.8046 77.4612 76.4787 77.5066 76.1244C77.5331 75.9188 77.6488 75.749 77.8075 75.6515L77.8121 75.649C78.2256 75.3987 78.6078 75.1005 78.9384 74.7446C79.0243 74.6592 79.0994 74.5625 79.1799 74.4715C79.2541 74.374 79.3323 74.2806 79.4018 74.179C79.5464 73.9807 79.6754 73.7678 79.7949 73.5484C80.2748 72.6691 80.5624 71.655 80.7422 70.6132C80.8586 69.9314 80.9712 69.2309 81.0532 68.5345C81.0915 68.2013 81.1486 67.9258 81.2197 67.6999C81.2297 67.6676 81.2402 67.6364 81.251 67.6061C81.3015 67.4639 81.3462 67.3176 81.4206 67.1863C81.4542 67.1246 81.4917 67.0791 81.5222 67.0506C81.6972 66.9117 81.5628 67.1563 81.7715 67.3545C81.8223 67.3992 81.8965 67.4147 81.945 67.4074C81.98 67.4062 82.0045 67.423 82.0135 67.4568C82.0194 67.4788 82.025 67.5015 82.0302 67.5252C82.0708 67.6967 82.0974 67.9088 82.106 68.1574C82.1271 68.7872 82.0786 69.4788 81.9786 70.128C81.8825 70.7529 81.759 71.3754 81.5894 71.9914C81.5042 72.2986 81.4096 72.6049 81.2979 72.9056C81.1877 73.2071 81.0642 73.5053 80.9219 73.7954C80.6414 74.3773 80.2873 74.9315 79.8606 75.4247C79.6457 75.6701 79.4151 75.9009 79.1681 76.1138C79.0585 76.2063 78.9464 76.2953 78.8318 76.3807C78.6232 76.5365 78.3319 76.4115 78.2831 76.1558C78.2364 75.9115 78.4413 75.6934 78.6798 75.7641C79.062 75.8773 79.4188 76.0637 79.7285 76.2918C80.0982 76.5624 80.4264 76.8883 80.7 77.2418C80.8391 77.4181 80.9634 77.6018 81.0759 77.7895L81.158 77.9309C81.183 77.978 81.2072 78.0251 81.2322 78.0723C81.2799 78.1665 81.3291 78.26 81.3713 78.3551C81.8129 79.3261 82.12 80.3338 82.3615 81.339C82.6023 82.3459 82.7758 83.3543 82.9352 84.349L82.9368 84.3587C82.9844 84.6586 82.7898 84.943 82.5007 84.9926C82.2224 85.0405 81.9583 84.8528 81.8965 84.57C81.7777 84.0207 81.7457 83.4632 81.7887 82.9228C81.8715 81.9103 82.1466 80.9465 82.5382 80.0486C82.9336 79.1522 83.4479 78.3169 84.0755 77.5782C84.6265 76.931 85.267 76.3502 86.0089 75.9134C86.1791 75.8131 86.3888 75.9317 86.4029 76.1288C86.4173 76.3286 86.2209 76.478 86.0345 76.4047C85.8846 76.3457 85.7359 76.2826 85.5893 76.2114C85.3127 76.083 85.043 75.9318 84.7828 75.762C84.5217 75.5946 84.2748 75.3987 84.0427 75.185C83.8105 74.9713 83.5956 74.7332 83.408 74.4731C83.2197 74.2139 83.0556 73.9352 82.9219 73.6418C82.8907 73.5687 82.8547 73.4931 82.8266 73.4224L82.7429 73.212C82.6875 73.0714 82.6351 72.9308 82.5827 72.7894C82.3756 72.2246 82.1857 71.6558 82.0138 71.0788C81.8223 70.4352 81.6746 69.794 81.5956 69.1659C81.519 68.5402 81.5034 67.9185 81.623 67.3578C81.6499 67.2545 81.6817 67.1759 81.7157 67.123C81.7377 67.0888 81.7525 67.0484 81.7457 67.0084C81.741 66.9791 81.7261 66.9442 81.7043 66.9165C81.6824 66.8881 81.6574 66.8686 81.6378 66.8548C81.5988 66.8272 81.5784 66.8125 81.5745 66.7963C81.5722 66.7816 81.5823 66.7613 81.6449 66.7565C81.6753 66.7548 81.7238 66.7613 81.7777 66.7914C81.8098 66.8083 81.8405 66.8339 81.8665 66.8622C81.9002 66.899 81.9165 66.9475 81.9251 66.9966C81.9361 67.0598 81.9646 67.1189 81.9879 67.1787C81.9949 67.1965 82.0014 67.2158 82.0075 67.2367C82.0263 67.2993 82.0333 67.3724 82.0497 67.4683C82.0646 67.5642 82.0716 67.6577 82.0919 67.756C82.1099 67.8535 82.1279 67.9518 82.1466 68.0502C82.1919 68.2492 82.2334 68.4483 82.2873 68.6507C82.3897 69.0537 82.5069 69.4625 82.6343 69.8688C82.8404 70.536 83.0403 71.2316 83.2822 71.9021C83.2827 71.9035 83.284 71.9044 83.2854 71.9044C83.2892 71.9044 83.2928 71.9044 83.2967 71.9044C83.2979 71.9044 83.2982 71.906 83.2972 71.9065Z" fill="#FF3B30"/>
</g>
<g opacity="0.1">
<mask id="path-3-inside-1_2998_1585" fill="white">
<path d="M42.6973 59.3681C39.9453 57.9468 37.3557 56.2363 34.9732 54.2661C32.5818 52.2975 30.4294 50.0603 28.5592 47.5996C27.5621 46.301 26.6595 44.9336 25.8585 43.5079C25.0665 42.1173 24.4764 40.6231 24.1057 39.0693C23.6614 37.0217 23.7475 34.896 24.3561 32.8904C24.9675 30.8696 26.0107 29.0028 27.415 27.4168C28.8131 25.8389 30.5539 24.5952 32.5069 23.7794C32.7444 23.6709 33.0006 23.6011 33.2471 23.5115L33.6198 23.3833L33.806 23.319L33.9975 23.2706L34.763 23.0766C34.8269 23.0611 34.89 23.0424 34.9545 23.0293L35.1496 22.9965L35.5396 22.9305C36.0595 22.8407 36.5839 22.7783 37.1105 22.7435C37.3734 22.7193 37.6391 22.73 37.903 22.7209C38.1673 22.7096 38.432 22.7121 38.696 22.7286L39.4887 22.7727C39.7524 22.794 40.0146 22.8371 40.2775 22.8675L40.672 22.9144C40.8035 22.93 40.9327 22.9621 41.0632 22.985L41.8443 23.1341C42.1023 23.1951 42.3575 23.268 42.6144 23.3337L42.9992 23.4346C43.1263 23.4723 43.2508 23.5184 43.3768 23.5598L44.1307 23.8135L44.8656 24.1171L45.2332 24.2688L45.589 24.4453L46.3007 24.7983L46.9851 25.1994L47.3271 25.4002L47.6538 25.624L48.3067 26.0718L48.9256 26.5631C49.0278 26.646 49.1345 26.724 49.2334 26.8106L49.5231 27.0778C49.7149 27.257 49.9132 27.4309 50.1005 27.6134C51.5796 29.0933 52.71 30.8789 53.4109 32.8421C53.7538 33.805 53.9614 34.8099 54.0281 35.8287C54.0893 36.8265 53.9807 37.8274 53.707 38.7896C53.6709 38.9377 53.6232 39.0829 53.5644 39.2237L53.4056 39.6528C53.287 39.9345 53.1514 40.2089 52.9996 40.4745C52.6965 41.0137 52.3343 41.5183 51.9196 41.979C51.4977 42.4453 51.0343 42.873 50.5351 43.2571C50.0282 43.6435 49.4887 43.9862 48.9227 44.2813C47.7775 44.8793 46.5454 45.2973 45.2706 45.5202C43.9705 45.7453 42.6486 45.8212 41.331 45.7464C40.6667 45.7116 40.0008 45.6518 39.3369 45.5557C38.6737 45.457 38.0123 45.333 37.3538 45.188L36.8609 45.0738C36.6968 45.0344 36.5341 44.9877 36.3706 44.945L35.3905 44.6836C35.0632 44.5982 34.7445 44.4832 34.4209 44.3846C34.0998 44.2781 33.773 44.1887 33.4565 44.0686C30.8983 43.159 28.4408 41.9928 26.1222 40.5881C23.8026 39.1664 21.6091 37.5521 19.5655 35.7626C17.524 33.9596 15.6234 32.0061 13.8798 29.9189C12.1329 27.8294 10.5321 25.624 9.0888 23.3183C7.63764 21.0136 6.34846 18.6126 5.23043 16.1324C3.87753 13.1374 2.76017 10.0433 1.88831 6.87782L1.73325 6.32838C1.68851 6.14788 1.64477 5.97143 1.60202 5.79902L1.35061 4.81261C1.17764 4.18845 1.06302 3.61672 0.935333 3.10608C0.673566 2.08554 0.506636 1.28287 0.33746 0.67239C0.0963149 -0.217371 -0.0133324 -0.203637 0.00197758 0.592576C0.0121545 0.990197 0.0435409 1.58496 0.12517 2.35595C0.175193 2.73996 0.234919 3.16777 0.304345 3.63939L0.415917 4.37712C0.46575 4.63149 0.517574 4.89606 0.571387 5.17084C1.1411 8.0737 1.95427 10.9244 3.00244 13.6934C4.19805 16.8558 5.65208 19.9163 7.35006 22.8446C7.56422 23.209 7.78863 23.5676 8.00732 23.9294C8.23046 24.2885 8.44042 24.6559 8.67435 25.0083L9.378 26.0642L9.72966 26.5921C9.84811 26.7673 9.97562 26.9364 10.0981 27.1087C10.5949 27.7936 11.0768 28.4893 11.6077 29.1491L12.3871 30.1512C12.6548 30.4791 12.9303 30.8006 13.2015 31.1257C14.2782 32.4326 15.438 33.6723 16.6395 34.8692C17.841 36.0691 19.1029 37.208 20.4206 38.2816C21.7356 39.3636 23.1102 40.3723 24.5382 41.3032C25.9654 42.2439 27.45 43.0963 28.9835 43.8555L29.622 44.1687L29.9424 44.3259L30.2697 44.4704C30.7074 44.6612 31.1445 44.8583 31.5868 45.0455C32.0352 45.2189 32.4842 45.3925 32.9336 45.5664C33.3845 45.7359 33.8463 45.8767 34.3021 46.032C34.7562 46.1932 35.2238 46.3096 35.6851 46.4405C35.9164 46.5042 36.1473 46.5678 36.3777 46.6313C36.6107 46.6867 36.8431 46.742 37.0751 46.7972C37.9984 47.0039 38.932 47.1626 39.8721 47.2727C41.368 47.456 42.8794 47.4786 44.3802 47.3402C45.9076 47.2013 47.405 46.8348 48.8219 46.2531C50.2549 45.6577 51.5704 44.8161 52.7077 43.7672C53.2781 43.23 53.7899 42.6349 54.2348 41.9917C54.4592 41.6677 54.664 41.3309 54.8481 40.9829L55.1104 40.4517L55.3281 39.9009C55.4718 39.5331 55.591 39.1564 55.685 38.7732C55.737 38.5832 55.7775 38.3904 55.8065 38.1957C55.8402 38.002 55.8776 37.8084 55.907 37.6142C55.9984 36.8375 56.0071 36.0535 55.9328 35.275C55.7855 33.7387 55.3726 32.239 54.7121 30.8413C54.0646 29.4574 53.2242 28.1703 52.2157 27.0177C51.2061 25.8774 50.0463 24.8768 48.7675 24.0426C46.883 22.7947 44.7905 21.8868 42.5867 21.3608C42.315 21.2818 42.0345 21.2398 41.757 21.1849C41.4784 21.1356 41.2021 21.0728 40.9214 21.0353L40.0771 20.9378C39.936 20.9244 39.796 20.9012 39.6542 20.8961L39.229 20.878C38.9456 20.8676 38.6622 20.8513 38.3787 20.8466L37.527 20.8724L37.1014 20.8874L36.6771 20.9317L35.8289 21.0219L34.9888 21.1756L34.569 21.2535C34.4303 21.2853 34.2932 21.3254 34.1554 21.361L33.3298 21.5827C33.0584 21.669 32.7918 21.7716 32.5228 21.8657C31.4454 22.2489 30.4194 22.7613 29.4677 23.3913C28.9921 23.7021 28.5333 24.0375 28.0934 24.3961C27.6569 24.7567 27.2392 25.139 26.8419 25.5415C26.0479 26.3444 25.3367 27.2238 24.7189 28.1664C23.6104 29.8515 22.8342 31.7292 22.4311 33.7003C22.0285 35.6862 22.0719 37.7354 22.5582 39.7028C23.0399 41.6554 23.8942 43.4662 24.886 45.1493C25.8834 46.8218 27.0025 48.4202 28.2344 49.9316C33.154 55.9762 39.7523 60.5943 47.0419 63.3448C48.4766 63.88 49.9396 64.3375 51.4244 64.7154C52.8571 65.0726 54.3096 65.3468 55.7745 65.5367C57.1739 65.7144 58.5828 65.8089 59.9937 65.8198C60.6813 65.8088 61.3576 65.8059 62.0236 65.7566C62.6892 65.7269 63.3429 65.6551 63.9838 65.5871C64.4172 65.5394 64.8473 65.4664 65.272 65.3686C65.5432 65.3162 65.6529 65.2364 65.6058 65.1847C65.5112 65.0715 64.7791 64.9376 63.4308 64.8023C63.1927 64.7943 62.9539 64.7863 62.7144 64.7782C62.4753 64.7624 62.2355 64.7466 61.9951 64.7308C61.755 64.7138 61.5143 64.7024 61.2735 64.6813C61.033 64.6576 60.7919 64.6337 60.5503 64.6099C60.0673 64.5661 59.5839 64.5095 59.0992 64.4533C58.6137 64.4052 58.1298 64.3285 57.6444 64.2583C55.6943 63.9643 53.7651 63.5473 51.8686 63.0096C48.697 62.1283 45.6268 60.9221 42.7075 59.4107C42.7048 59.3963 42.7015 59.3821 42.6973 59.3681Z"/>
</mask>
<path d="M42.6973 59.3681C39.9453 57.9468 37.3557 56.2363 34.9732 54.2661C32.5818 52.2975 30.4294 50.0603 28.5592 47.5996C27.5621 46.301 26.6595 44.9336 25.8585 43.5079C25.0665 42.1173 24.4764 40.6231 24.1057 39.0693C23.6614 37.0217 23.7475 34.896 24.3561 32.8904C24.9675 30.8696 26.0107 29.0028 27.415 27.4168C28.8131 25.8389 30.5539 24.5952 32.5069 23.7794C32.7444 23.6709 33.0006 23.6011 33.2471 23.5115L33.6198 23.3833L33.806 23.319L33.9975 23.2706L34.763 23.0766C34.8269 23.0611 34.89 23.0424 34.9545 23.0293L35.1496 22.9965L35.5396 22.9305C36.0595 22.8407 36.5839 22.7783 37.1105 22.7435C37.3734 22.7193 37.6391 22.73 37.903 22.7209C38.1673 22.7096 38.432 22.7121 38.696 22.7286L39.4887 22.7727C39.7524 22.794 40.0146 22.8371 40.2775 22.8675L40.672 22.9144C40.8035 22.93 40.9327 22.9621 41.0632 22.985L41.8443 23.1341C42.1023 23.1951 42.3575 23.268 42.6144 23.3337L42.9992 23.4346C43.1263 23.4723 43.2508 23.5184 43.3768 23.5598L44.1307 23.8135L44.8656 24.1171L45.2332 24.2688L45.589 24.4453L46.3007 24.7983L46.9851 25.1994L47.3271 25.4002L47.6538 25.624L48.3067 26.0718L48.9256 26.5631C49.0278 26.646 49.1345 26.724 49.2334 26.8106L49.5231 27.0778C49.7149 27.257 49.9132 27.4309 50.1005 27.6134C51.5796 29.0933 52.71 30.8789 53.4109 32.8421C53.7538 33.805 53.9614 34.8099 54.0281 35.8287C54.0893 36.8265 53.9807 37.8274 53.707 38.7896C53.6709 38.9377 53.6232 39.0829 53.5644 39.2237L53.4056 39.6528C53.287 39.9345 53.1514 40.2089 52.9996 40.4745C52.6965 41.0137 52.3343 41.5183 51.9196 41.979C51.4977 42.4453 51.0343 42.873 50.5351 43.2571C50.0282 43.6435 49.4887 43.9862 48.9227 44.2813C47.7775 44.8793 46.5454 45.2973 45.2706 45.5202C43.9705 45.7453 42.6486 45.8212 41.331 45.7464C40.6667 45.7116 40.0008 45.6518 39.3369 45.5557C38.6737 45.457 38.0123 45.333 37.3538 45.188L36.8609 45.0738C36.6968 45.0344 36.5341 44.9877 36.3706 44.945L35.3905 44.6836C35.0632 44.5982 34.7445 44.4832 34.4209 44.3846C34.0998 44.2781 33.773 44.1887 33.4565 44.0686C30.8983 43.159 28.4408 41.9928 26.1222 40.5881C23.8026 39.1664 21.6091 37.5521 19.5655 35.7626C17.524 33.9596 15.6234 32.0061 13.8798 29.9189C12.1329 27.8294 10.5321 25.624 9.0888 23.3183C7.63764 21.0136 6.34846 18.6126 5.23043 16.1324C3.87753 13.1374 2.76017 10.0433 1.88831 6.87782L1.73325 6.32838C1.68851 6.14788 1.64477 5.97143 1.60202 5.79902L1.35061 4.81261C1.17764 4.18845 1.06302 3.61672 0.935333 3.10608C0.673566 2.08554 0.506636 1.28287 0.33746 0.67239C0.0963149 -0.217371 -0.0133324 -0.203637 0.00197758 0.592576C0.0121545 0.990197 0.0435409 1.58496 0.12517 2.35595C0.175193 2.73996 0.234919 3.16777 0.304345 3.63939L0.415917 4.37712C0.46575 4.63149 0.517574 4.89606 0.571387 5.17084C1.1411 8.0737 1.95427 10.9244 3.00244 13.6934C4.19805 16.8558 5.65208 19.9163 7.35006 22.8446C7.56422 23.209 7.78863 23.5676 8.00732 23.9294C8.23046 24.2885 8.44042 24.6559 8.67435 25.0083L9.378 26.0642L9.72966 26.5921C9.84811 26.7673 9.97562 26.9364 10.0981 27.1087C10.5949 27.7936 11.0768 28.4893 11.6077 29.1491L12.3871 30.1512C12.6548 30.4791 12.9303 30.8006 13.2015 31.1257C14.2782 32.4326 15.438 33.6723 16.6395 34.8692C17.841 36.0691 19.1029 37.208 20.4206 38.2816C21.7356 39.3636 23.1102 40.3723 24.5382 41.3032C25.9654 42.2439 27.45 43.0963 28.9835 43.8555L29.622 44.1687L29.9424 44.3259L30.2697 44.4704C30.7074 44.6612 31.1445 44.8583 31.5868 45.0455C32.0352 45.2189 32.4842 45.3925 32.9336 45.5664C33.3845 45.7359 33.8463 45.8767 34.3021 46.032C34.7562 46.1932 35.2238 46.3096 35.6851 46.4405C35.9164 46.5042 36.1473 46.5678 36.3777 46.6313C36.6107 46.6867 36.8431 46.742 37.0751 46.7972C37.9984 47.0039 38.932 47.1626 39.8721 47.2727C41.368 47.456 42.8794 47.4786 44.3802 47.3402C45.9076 47.2013 47.405 46.8348 48.8219 46.2531C50.2549 45.6577 51.5704 44.8161 52.7077 43.7672C53.2781 43.23 53.7899 42.6349 54.2348 41.9917C54.4592 41.6677 54.664 41.3309 54.8481 40.9829L55.1104 40.4517L55.3281 39.9009C55.4718 39.5331 55.591 39.1564 55.685 38.7732C55.737 38.5832 55.7775 38.3904 55.8065 38.1957C55.8402 38.002 55.8776 37.8084 55.907 37.6142C55.9984 36.8375 56.0071 36.0535 55.9328 35.275C55.7855 33.7387 55.3726 32.239 54.7121 30.8413C54.0646 29.4574 53.2242 28.1703 52.2157 27.0177C51.2061 25.8774 50.0463 24.8768 48.7675 24.0426C46.883 22.7947 44.7905 21.8868 42.5867 21.3608C42.315 21.2818 42.0345 21.2398 41.757 21.1849C41.4784 21.1356 41.2021 21.0728 40.9214 21.0353L40.0771 20.9378C39.936 20.9244 39.796 20.9012 39.6542 20.8961L39.229 20.878C38.9456 20.8676 38.6622 20.8513 38.3787 20.8466L37.527 20.8724L37.1014 20.8874L36.6771 20.9317L35.8289 21.0219L34.9888 21.1756L34.569 21.2535C34.4303 21.2853 34.2932 21.3254 34.1554 21.361L33.3298 21.5827C33.0584 21.669 32.7918 21.7716 32.5228 21.8657C31.4454 22.2489 30.4194 22.7613 29.4677 23.3913C28.9921 23.7021 28.5333 24.0375 28.0934 24.3961C27.6569 24.7567 27.2392 25.139 26.8419 25.5415C26.0479 26.3444 25.3367 27.2238 24.7189 28.1664C23.6104 29.8515 22.8342 31.7292 22.4311 33.7003C22.0285 35.6862 22.0719 37.7354 22.5582 39.7028C23.0399 41.6554 23.8942 43.4662 24.886 45.1493C25.8834 46.8218 27.0025 48.4202 28.2344 49.9316C33.154 55.9762 39.7523 60.5943 47.0419 63.3448C48.4766 63.88 49.9396 64.3375 51.4244 64.7154C52.8571 65.0726 54.3096 65.3468 55.7745 65.5367C57.1739 65.7144 58.5828 65.8089 59.9937 65.8198C60.6813 65.8088 61.3576 65.8059 62.0236 65.7566C62.6892 65.7269 63.3429 65.6551 63.9838 65.5871C64.4172 65.5394 64.8473 65.4664 65.272 65.3686C65.5432 65.3162 65.6529 65.2364 65.6058 65.1847C65.5112 65.0715 64.7791 64.9376 63.4308 64.8023C63.1927 64.7943 62.9539 64.7863 62.7144 64.7782C62.4753 64.7624 62.2355 64.7466 61.9951 64.7308C61.755 64.7138 61.5143 64.7024 61.2735 64.6813C61.033 64.6576 60.7919 64.6337 60.5503 64.6099C60.0673 64.5661 59.5839 64.5095 59.0992 64.4533C58.6137 64.4052 58.1298 64.3285 57.6444 64.2583C55.6943 63.9643 53.7651 63.5473 51.8686 63.0096C48.697 62.1283 45.6268 60.9221 42.7075 59.4107C42.7048 59.3963 42.7015 59.3821 42.6973 59.3681Z" fill="#FF3B30" stroke="#FF3B30" mask="url(#path-3-inside-1_2998_1585)"/>
</g>
<defs>
<filter id="filter0_i_2998_1585" x="66.4464" y="60.8395" width="7.03467" height="12.8754" filterUnits="userSpaceOnUse" color-interpolation-filters="sRGB">
<feFlood flood-opacity="0" result="BackgroundImageFix"/>
<feBlend mode="normal" in="SourceGraphic" in2="BackgroundImageFix" result="shape"/>
<feColorMatrix in="SourceAlpha" type="matrix" values="0 0 0 0 0 0 0 0 0 0 0 0 0 0 0 0 0 0 127 0" result="hardAlpha"/>
<feOffset dy="4"/>
<feGaussianBlur stdDeviation="3.55"/>
<feComposite in2="hardAlpha" operator="arithmetic" k2="-1" k3="1"/>
<feColorMatrix type="matrix" values="0 0 0 0 1 0 0 0 0 1 0 0 0 0 1 0 0 0 0.5 0"/>
<feBlend mode="normal" in2="shape" result="effect1_innerShadow_2998_1585"/>
</filter>
<filter id="filter1_i_2998_1585" x="77.5011" y="66.7562" width="9.54688" height="22.2438" filterUnits="userSpaceOnUse" color-interpolation-filters="sRGB">
<feFlood flood-opacity="0" result="BackgroundImageFix"/>
<feBlend mode="normal" in="SourceGraphic" in2="BackgroundImageFix" result="shape"/>
<feColorMatrix in="SourceAlpha" type="matrix" values="0 0 0 0 0 0 0 0 0 0 0 0 0 0 0 0 0 0 127 0" result="hardAlpha"/>
<feOffset dy="4"/>
<feGaussianBlur stdDeviation="3.55"/>
<feComposite in2="hardAlpha" operator="arithmetic" k2="-1" k3="1"/>
<feColorMatrix type="matrix" values="0 0 0 0 1 0 0 0 0 1 0 0 0 0 1 0 0 0 0.5 0"/>
<feBlend mode="normal" in2="shape" result="effect1_innerShadow_2998_1585"/>
</filter>
</defs>
</svg>
