<svg width="85" height="83" viewBox="0 0 85 83" fill="none" xmlns="http://www.w3.org/2000/svg">
<g filter="url(#filter0_i_2998_1670)">
<path d="M15.3817 61.8678C15.3816 61.868 15.3816 61.8681 15.3815 61.8682C15.1963 62.1519 14.9784 62.4197 14.7233 62.6513C14.5962 62.7673 14.4623 62.8762 14.3188 62.9733C14.1754 63.07 14.0251 63.1566 13.868 63.2311C13.7355 63.2946 13.597 63.345 13.4567 63.3896L13.4417 63.3942C13.2919 63.4421 13.212 63.5935 13.2638 63.7322C13.2901 63.8033 13.3464 63.8575 13.4145 63.8869C13.6478 63.987 13.8835 64.0753 14.1091 64.1653C14.3057 64.2439 14.4945 64.3217 14.6698 64.4104C14.8454 64.4982 15.0057 64.6 15.1551 64.7164C15.1923 64.7455 15.2295 64.7749 15.2645 64.8068L15.318 64.8535C15.3353 64.8691 15.3471 64.8838 15.3616 64.8985C15.3898 64.9283 15.4193 64.9552 15.4456 64.9927C15.4724 65.0284 15.501 65.0604 15.5264 65.099L15.6027 65.2142C15.6277 65.2533 15.6504 65.2954 15.674 65.3357L15.7094 65.3967L15.7421 65.4606L15.8074 65.588C15.9736 65.9353 16.1111 66.3019 16.2265 66.6735C16.2818 66.8598 16.3359 67.0469 16.3781 67.2344C16.4203 67.4211 16.4584 67.6098 16.4771 67.7881C16.4952 67.9626 16.6627 68.0904 16.8511 68.0736C16.9946 68.0605 17.109 67.9676 17.1471 67.8465L17.148 67.8428C17.2193 67.6149 17.2643 67.3984 17.3083 67.1835L17.4313 66.5483C17.4985 66.2039 17.5702 65.8642 17.6697 65.5472C17.7205 65.3904 17.78 65.2399 17.8494 65.11L17.9044 65.02C17.9262 64.9893 17.9502 64.9578 17.9729 64.9267C18.022 64.8653 18.0728 64.8043 18.13 64.7463C18.2421 64.6294 18.3679 64.5188 18.5027 64.415C18.6385 64.3124 18.7824 64.2161 18.9322 64.1266C19.2318 63.9479 19.5555 63.7965 19.8869 63.6767C20.073 63.6095 20.1652 63.4148 20.0921 63.2424C20.0549 63.1537 19.9813 63.0881 19.8933 63.0545L19.8901 63.0532C19.6281 62.954 19.3666 62.8544 19.1229 62.7371C18.8745 62.6244 18.6462 62.4924 18.436 62.3456L18.2821 62.2321L18.1409 62.1081C18.0914 62.0686 18.0515 62.0215 18.0083 61.9769C17.967 61.9311 17.9198 61.8895 17.8844 61.8386L17.7704 61.6927C17.7346 61.6423 17.7033 61.5884 17.6692 61.5372L17.6188 61.459C17.6034 61.4316 17.5898 61.4035 17.5752 61.3761L17.4885 61.2101C17.3401 60.8922 17.2102 60.5508 17.0995 60.2061C17.0749 60.1228 17.0486 60.0472 17.0205 59.979C17.0064 59.945 16.9919 59.9126 16.9769 59.8819C16.9728 59.8727 16.9705 59.8706 16.9674 59.8664C16.9646 59.8626 16.9615 59.8588 16.9583 59.8554C16.9519 59.8483 16.9451 59.8416 16.9374 59.8348C16.9074 59.8079 16.8661 59.7802 16.8262 59.7415C16.7858 59.7032 16.7481 59.6557 16.7181 59.6057C16.631 59.4573 16.6191 59.3686 16.5633 59.4262C16.5497 59.4409 16.5333 59.4657 16.5152 59.5044C16.497 59.5426 16.4775 59.596 16.4634 59.6641C16.4494 59.7318 16.4426 59.8134 16.4457 59.8987C16.4466 59.9198 16.448 59.9425 16.4494 59.9622C16.4507 59.9765 16.4516 59.9912 16.453 60.0064C16.4557 60.0366 16.4593 60.0678 16.4639 60.1001C16.4748 60.1821 16.4879 60.2654 16.5025 60.3499C16.5179 60.4344 16.5415 60.5193 16.5629 60.6046C16.6024 60.7758 16.6691 60.9456 16.729 61.1096C16.7603 61.1836 16.7948 61.2567 16.8275 61.3303L16.877 61.4405L16.9351 61.5481C16.9751 61.6196 17.0114 61.6923 17.0545 61.7621L17.1912 61.9694C17.385 62.2401 17.6197 62.4886 17.8853 62.6996L18.0896 62.8506C18.1591 62.8985 18.2312 62.9414 18.3025 62.9872C18.3729 63.0343 18.4469 63.0726 18.5204 63.1129C18.594 63.1529 18.6666 63.1953 18.742 63.2294L18.9658 63.3379L19.1919 63.4371L19.3049 63.4863L19.4184 63.5321C19.5274 63.5762 19.6465 63.4964 19.6471 63.3788L19.6472 63.3564C19.6479 63.2318 19.5256 63.1437 19.4091 63.1879C19.1479 63.287 18.8944 63.4013 18.6484 63.5317C18.4401 63.6422 18.2321 63.7654 18.0374 63.9084C17.8426 64.0509 17.6615 64.2136 17.5135 64.3978C17.4654 64.4617 17.415 64.5226 17.3714 64.5903C17.3492 64.6244 17.3255 64.6542 17.3047 64.6921L17.2425 64.8022C17.2198 64.8392 17.2075 64.8749 17.1898 64.9115C17.1739 64.9477 17.1558 64.9843 17.1421 65.02C17.1167 65.0915 17.0858 65.1638 17.065 65.2344C16.9723 65.5186 16.9097 65.7978 16.852 66.0744C16.7953 66.3511 16.7463 66.6256 16.6959 66.8955C16.6647 67.0606 16.6335 67.2255 16.5979 67.3844C16.5639 67.536 16.669 67.6876 16.824 67.7002C16.9793 67.7128 17.1068 67.5795 17.0755 67.4268C17.0523 67.3141 17.0252 67.2039 16.9964 67.094C16.9315 66.8501 16.8566 66.6113 16.7735 66.3738C16.6909 66.1362 16.6005 65.9008 16.4961 65.6683C16.3917 65.4358 16.28 65.205 16.1366 64.9801C16.0644 64.8678 15.9872 64.7564 15.8941 64.6479C15.8828 64.6345 15.8724 64.6206 15.8596 64.6071L15.8201 64.5672L15.7402 64.4881C15.7135 64.4617 15.6876 64.4427 15.6608 64.42C15.634 64.3982 15.6086 64.3755 15.5809 64.3549C15.4361 64.2401 15.2776 64.1379 15.1137 64.0484C14.9499 63.9588 14.781 63.8836 14.6139 63.8163C14.3475 63.71 14.0886 63.6191 13.839 63.5189C13.7446 63.481 13.6389 63.5442 13.6304 63.6455C13.6215 63.7498 13.7204 63.83 13.8188 63.7943C14.0428 63.713 14.2569 63.611 14.4582 63.493C14.7192 63.337 14.958 63.1541 15.1746 62.9532C15.3898 62.7509 15.5818 62.5298 15.752 62.296C15.9218 62.0627 16.0653 61.81 16.1861 61.5552C16.34 61.2277 16.4466 60.8973 16.5156 60.5765C16.5856 60.2557 16.6173 59.9437 16.6178 59.6477C16.6176 59.6002 16.6128 59.5608 16.6044 59.5297C16.5957 59.4976 16.5787 59.5088 16.5917 59.5394C16.5939 59.5446 16.5973 59.5493 16.6019 59.5524C16.6113 59.5586 16.6232 59.5639 16.635 59.5666C16.65 59.57 16.6641 59.57 16.6741 59.5691C16.6942 59.5671 16.699 59.5767 16.6801 59.5839C16.679 59.5843 16.6779 59.5847 16.6768 59.5851C16.6655 59.5889 16.6491 59.5922 16.63 59.5906C16.6255 59.5903 16.6208 59.5897 16.6162 59.5888C16.5879 59.5837 16.5686 59.5599 16.5573 59.5335C16.5347 59.4804 16.4777 59.4538 16.4427 59.4997C16.4156 59.5353 16.3885 59.588 16.3636 59.6578C16.2169 60.0699 16.0653 60.4962 15.8882 60.9019C15.7445 61.2333 15.5946 61.5685 15.3957 61.8643C15.3941 61.8668 15.391 61.8679 15.3881 61.8672C15.387 61.8669 15.3858 61.8666 15.3845 61.8664C15.3834 61.8661 15.3822 61.8667 15.3817 61.8678Z" fill="#FF3B30"/>
</g>
<g filter="url(#filter1_i_2998_1670)">
<path d="M3.66247 70.2151C3.66296 70.2154 3.6632 70.2159 3.66303 70.2164C3.56009 70.5272 3.45029 70.8356 3.33593 71.1392C3.30693 71.2138 3.27793 71.2931 3.24893 71.3629C3.21993 71.4288 3.19474 71.4971 3.16269 71.5621C3.10087 71.6923 3.03295 71.82 2.9574 71.9422C2.65442 72.4334 2.23315 72.854 1.7348 73.1825C1.31047 73.4689 0.830439 73.6911 0.331326 73.8593C0.0794792 73.9442 -0.0578918 74.2251 0.0230036 74.4862C0.0626888 74.614 0.147401 74.7132 0.251955 74.7719L0.26493 74.779C0.370248 74.8377 0.47709 74.8909 0.578592 74.9576C1.16394 75.3234 1.68977 75.8177 2.14691 76.3724C2.60481 76.9278 2.99403 77.5492 3.30693 78.2046C3.61906 78.86 3.85641 79.5528 3.98157 80.255C4.07048 80.7558 4.10208 81.2631 4.05659 81.7482C4.02708 82.0628 4.21866 82.3707 4.52776 82.4364C4.83967 82.5027 5.14391 82.2967 5.19904 81.9826C5.28579 81.4885 5.37504 80.9984 5.47738 80.5161C5.60483 79.9138 5.74984 79.3211 5.93147 78.7482C6.11387 78.176 6.33213 77.623 6.59772 77.1024C6.66488 76.9739 6.73585 76.8453 6.80606 76.7199C6.8778 76.5977 6.95183 76.4779 7.0312 76.3637C7.18918 76.1335 7.36165 75.9201 7.54787 75.7328C7.92106 75.3567 8.35225 75.1051 8.79413 75.044C9.12687 74.998 9.36116 74.6798 9.3169 74.3339C9.29095 74.1331 9.178 73.9673 9.02308 73.872L9.0185 73.8696C8.61478 73.6252 8.24159 73.334 7.91877 72.9865C7.83482 72.9032 7.76155 72.8087 7.68295 72.7199C7.61045 72.6246 7.53413 72.5334 7.46621 72.4342C7.32502 72.2406 7.1991 72.0327 7.08233 71.8184C6.61375 70.9598 6.3329 69.9695 6.15737 68.9523C6.04366 68.2865 5.93376 67.6025 5.85363 66.9225C5.81623 66.5971 5.76052 66.3281 5.69107 66.1075C5.68126 66.076 5.67108 66.0455 5.66055 66.0159C5.61119 65.8771 5.56754 65.7342 5.49494 65.606C5.46212 65.5457 5.42549 65.5013 5.39572 65.4735C5.22477 65.3378 5.35604 65.5767 5.15228 65.7703C5.10267 65.8139 5.03017 65.829 4.98285 65.8219C4.94866 65.8207 4.92469 65.8371 4.9159 65.8702C4.9102 65.8916 4.9047 65.9138 4.89966 65.9369C4.85998 66.1044 4.83403 66.3115 4.82564 66.5543C4.80503 67.1692 4.85235 67.8445 4.95003 68.4785C5.0439 69.0887 5.16448 69.6966 5.33009 70.2981C5.41328 70.598 5.50562 70.8972 5.61476 71.1908C5.72236 71.4851 5.84294 71.7764 5.98184 72.0597C6.25582 72.6278 6.60153 73.169 7.01823 73.6506C7.2281 73.8903 7.45323 74.1156 7.6944 74.3235C7.80141 74.4138 7.91094 74.5007 8.0228 74.5842C8.22652 74.7362 8.51092 74.6142 8.55864 74.3645C8.60424 74.1259 8.40415 73.913 8.17124 73.982C7.79807 74.0925 7.44967 74.2746 7.1472 74.4973C6.78622 74.7616 6.46569 75.0798 6.19858 75.4249C6.06274 75.5971 5.94139 75.7765 5.8315 75.9598L5.75136 76.0978C5.72694 76.1439 5.70328 76.1899 5.67886 76.2359C5.63231 76.3279 5.58423 76.4192 5.54302 76.512C5.11183 77.4603 4.8119 78.4442 4.57608 79.4258C4.34102 80.409 4.1716 81.3937 4.01591 82.365L4.01439 82.3745C3.96783 82.6673 4.15786 82.945 4.44024 82.9934C4.71192 83.0403 4.96988 82.857 5.03017 82.5808C5.14617 82.0444 5.17746 81.5 5.13549 80.9724C5.05459 79.9837 4.78595 79.0425 4.4036 78.1657C4.01744 77.2905 3.51527 76.4747 2.90245 75.7534C2.36436 75.1215 1.73896 74.5543 1.01451 74.1278C0.848285 74.0299 0.643529 74.1457 0.629722 74.3381C0.615718 74.5332 0.807455 74.6792 0.989531 74.6075C1.13588 74.55 1.28111 74.4883 1.42419 74.4188C1.69435 74.2934 1.95764 74.1458 2.21178 73.9799C2.46668 73.8165 2.70784 73.6252 2.9345 73.4166C3.16116 73.2079 3.37103 72.9754 3.5542 72.7214C3.73812 72.4683 3.89839 72.1961 4.02889 71.9097C4.05941 71.8383 4.09452 71.7645 4.12199 71.6954L4.20365 71.4899C4.25784 71.3526 4.30897 71.2154 4.3601 71.0773C4.56234 70.5258 4.74779 69.9703 4.91569 69.4069C5.10267 68.7785 5.24691 68.1524 5.32399 67.539C5.39878 66.928 5.41404 66.321 5.29728 65.7735C5.27097 65.6726 5.23994 65.5959 5.20673 65.5442C5.18529 65.5108 5.17079 65.4714 5.17746 65.4322C5.18204 65.4037 5.19654 65.3696 5.21791 65.3426C5.23928 65.3148 5.2637 65.2958 5.28278 65.2823C5.32094 65.2553 5.34078 65.241 5.34459 65.2251C5.34688 65.2109 5.33696 65.191 5.27591 65.1863C5.24614 65.1847 5.19883 65.191 5.14617 65.2204C5.11485 65.2369 5.08488 65.2618 5.05947 65.2895C5.02653 65.3254 5.01061 65.3728 5.00226 65.4208C4.99152 65.4825 4.96372 65.5402 4.9409 65.5985C4.93409 65.6159 4.92773 65.6348 4.9218 65.6552C4.90348 65.7163 4.89661 65.7877 4.88058 65.8814C4.86608 65.975 4.85922 66.0663 4.83938 66.1623C4.82182 66.2575 4.80427 66.3535 4.78595 66.4495C4.74169 66.6439 4.70124 66.8383 4.64858 67.0359C4.54861 67.4295 4.43413 67.8287 4.30973 68.2254C4.10849 68.8769 3.91333 69.5562 3.67711 70.2109C3.67662 70.2123 3.67535 70.2132 3.67392 70.2132C3.67025 70.2132 3.66675 70.2132 3.66289 70.2132C3.66176 70.2132 3.66144 70.2147 3.66247 70.2151Z" fill="#FF3B30"/>
</g>
<g opacity="0.1">
<mask id="path-3-inside-1_2998_1670" fill="white">
<path d="M43.3073 57.9716C45.9946 56.5837 48.5233 54.9135 50.8498 52.9896C53.185 51.0673 55.2868 48.8828 57.1129 46.48C58.0866 45.2119 58.9679 43.8767 59.7501 42.4845C60.5235 41.1267 61.0997 39.6675 61.4617 38.1503C61.8956 36.1509 61.8115 34.0752 61.2172 32.1167C60.6202 30.1435 59.6015 28.3206 58.2302 26.7719C56.8651 25.2311 55.1651 24.0167 53.2581 23.2201C53.0262 23.1141 52.776 23.046 52.5353 22.9584L52.1713 22.8333L51.9895 22.7704L51.8025 22.7232L51.0551 22.5338C50.9927 22.5186 50.931 22.5004 50.8681 22.4876L50.6775 22.4556L50.2967 22.3911C49.789 22.3034 49.2769 22.2425 48.7627 22.2085C48.5061 22.1849 48.2466 22.1953 47.9888 22.1865C47.7308 22.1754 47.4723 22.1779 47.2146 22.1939L46.4405 22.237C46.1829 22.2579 45.927 22.2999 45.6702 22.3296L45.285 22.3755C45.1566 22.3906 45.0304 22.422 44.903 22.4443L44.1402 22.5899C43.8883 22.6495 43.6391 22.7206 43.3883 22.7849L43.0125 22.8833C42.8884 22.9202 42.7668 22.9652 42.6438 23.0056L41.9077 23.2534L41.19 23.5498L40.8311 23.6979L40.4836 23.8703L39.7886 24.215L39.1203 24.6067L38.7863 24.8027L38.4674 25.0212L37.8298 25.4585L37.2255 25.9383C37.1256 26.0192 37.0215 26.0954 36.9249 26.1799L36.642 26.4409C36.4547 26.6158 36.2611 26.7856 36.0782 26.9639C34.6339 28.409 33.53 30.1525 32.8456 32.0696C32.5108 33.0098 32.3081 33.9911 32.243 34.986C32.1832 35.9603 32.2892 36.9376 32.5566 37.8772C32.5917 38.0218 32.6383 38.1636 32.6958 38.3011L32.8508 38.7201C32.9666 38.9952 33.099 39.2631 33.2473 39.5225C33.5433 40.049 33.8969 40.5417 34.3018 40.9916C34.7138 41.4469 35.1663 41.8646 35.6539 42.2396C36.1488 42.617 36.6756 42.9515 37.2283 43.2397C38.3465 43.8236 39.5497 44.2318 40.7945 44.4495C42.064 44.6693 43.3549 44.7434 44.6415 44.6703C45.2902 44.6364 45.9404 44.578 46.5887 44.4841C47.2363 44.3878 47.8822 44.2667 48.5252 44.1251L49.0065 44.0136C49.1667 43.9751 49.3256 43.9295 49.4852 43.8878L50.4423 43.6326C50.7619 43.5492 51.0731 43.4369 51.3891 43.3406C51.7026 43.2366 52.0218 43.1493 52.3309 43.032C54.8288 42.1438 57.2286 41.005 59.4927 39.6334C61.7577 38.2452 63.8996 36.6688 65.8952 34.9213C67.8886 33.1608 69.7446 31.2533 71.4471 29.2151C73.153 27.1748 74.7161 25.0213 76.1255 22.7698C77.5425 20.5193 78.8014 18.1748 79.8931 15.7529C81.2142 12.8283 82.3053 9.80706 83.1567 6.71604L83.3081 6.17952C83.3518 6.00327 83.3945 5.83097 83.4362 5.66262L83.6817 4.6994C83.8506 4.08993 83.9625 3.53165 84.0872 3.03302C84.3428 2.03648 84.5058 1.25269 84.671 0.656575C84.9065 -0.212258 85.0136 -0.198847 84.9986 0.578638C84.9887 0.966906 84.958 1.54768 84.8783 2.30053C84.8295 2.67551 84.7712 3.09326 84.7034 3.55379L84.5944 4.27416C84.5458 4.52255 84.4952 4.7809 84.4426 5.04921C83.8863 7.88379 83.0922 10.6675 82.0687 13.3713C80.9012 16.4593 79.4814 19.4479 77.8233 22.3072C77.6142 22.6631 77.3951 23.0132 77.1815 23.3665C76.9636 23.7172 76.7586 24.0759 76.5302 24.42L75.8431 25.4511L75.4997 25.9666C75.384 26.1377 75.2595 26.3028 75.1399 26.4711C74.6548 27.1398 74.1842 27.8192 73.6658 28.4635L72.9047 29.442C72.6434 29.7622 72.3743 30.0761 72.1095 30.3936C71.0581 31.6697 69.9256 32.8803 68.7523 34.049C67.5791 35.2207 66.3468 36.3328 65.0602 37.3811C63.7761 38.4376 62.4338 39.4227 61.0394 40.3317C59.6457 41.2503 58.196 42.0826 56.6986 42.8239L56.0752 43.1298L55.7623 43.2833L55.4427 43.4244C55.0153 43.6107 54.5885 43.8031 54.1566 43.9859C53.7187 44.1553 53.2803 44.3248 52.8414 44.4946C52.4011 44.6602 51.9501 44.7976 51.5051 44.9492C51.0616 45.1066 50.6051 45.2203 50.1546 45.3481C49.9287 45.4104 49.7033 45.4725 49.4783 45.5344C49.2508 45.5886 49.0238 45.6426 48.7973 45.6965C47.8957 45.8983 46.984 46.0533 46.0661 46.1607C44.6054 46.3397 43.1295 46.3618 41.664 46.2266C40.1725 46.091 38.7103 45.7332 37.3267 45.1651C35.9274 44.5837 34.6429 43.762 33.5324 42.7378C32.9754 42.2131 32.4755 41.632 32.0411 41.004C31.822 40.6876 31.622 40.3587 31.4422 40.0189L31.1861 39.5002L30.9735 38.9623C30.8332 38.6032 30.7168 38.2353 30.625 37.8612C30.5743 37.6757 30.5347 37.4874 30.5064 37.2973C30.4735 37.1081 30.437 36.9191 30.4083 36.7294C30.319 35.971 30.3105 35.2054 30.383 34.4453C30.5269 32.9451 30.9301 31.4807 31.575 30.1159C32.2074 28.7645 33.0279 27.5077 34.0127 26.3822C34.9986 25.2687 36.1311 24.2916 37.3798 23.4771C39.2201 22.2585 41.2634 21.372 43.4153 20.8583C43.6806 20.7812 43.9545 20.7402 44.2255 20.6866C44.4976 20.6385 44.7674 20.5772 45.0414 20.5405L45.8659 20.4453C46.0037 20.4322 46.1403 20.4095 46.2789 20.4045L46.694 20.3869C46.9708 20.3767 47.2475 20.3608 47.5243 20.3562L48.356 20.3814L48.7716 20.3961L49.1859 20.4394L50.0142 20.5274L50.8346 20.6775L51.2445 20.7536C51.3799 20.7846 51.5137 20.8237 51.6484 20.8586L52.4545 21.075C52.7196 21.1593 52.9799 21.2595 53.2426 21.3514C54.2946 21.7256 55.2965 22.2259 56.2258 22.8411C56.6903 23.1446 57.1382 23.4721 57.5678 23.8223C57.994 24.1744 58.4019 24.5477 58.7898 24.9407C59.5651 25.7248 60.2596 26.5834 60.863 27.5039C61.9453 29.1493 62.7034 30.9829 63.097 32.9076C63.4901 34.8468 63.4477 36.8478 62.9729 38.7689C62.5024 40.6755 61.6682 42.4438 60.6998 44.0873C59.7259 45.7205 58.6331 47.2812 57.4301 48.7571C52.6262 54.6595 46.183 59.169 39.0648 61.8548C37.6639 62.3774 36.2353 62.8242 34.7855 63.1932C33.3864 63.542 31.9681 63.8097 30.5376 63.9951C29.1711 64.1686 27.7953 64.2609 26.4177 64.2716C25.7462 64.2608 25.0858 64.258 24.4355 64.2099C23.7855 64.1809 23.1472 64.1108 22.5214 64.0444C22.0982 63.9978 21.6782 63.9265 21.2635 63.831C20.9987 63.7799 20.8916 63.7019 20.9375 63.6514C21.0299 63.5409 21.7448 63.4101 23.0614 63.2781C23.2939 63.2702 23.5271 63.2624 23.7609 63.2545C23.9944 63.2391 24.2285 63.2236 24.4633 63.2082C24.6978 63.1916 24.9329 63.1804 25.1679 63.1599C25.4028 63.1367 25.6382 63.1134 25.8741 63.0901C26.3458 63.0474 26.8178 62.9921 27.2912 62.9373C27.7652 62.8903 28.2377 62.8153 28.7117 62.7468C30.616 62.4598 32.4998 62.0525 34.3517 61.5275C37.4487 60.6669 40.4467 59.4891 43.2974 58.0132C43.3 57.9992 43.3033 57.9853 43.3073 57.9716Z"/>
</mask>
<path d="M43.3073 57.9716C45.9946 56.5837 48.5233 54.9135 50.8498 52.9896C53.185 51.0673 55.2868 48.8828 57.1129 46.48C58.0866 45.2119 58.9679 43.8767 59.7501 42.4845C60.5235 41.1267 61.0997 39.6675 61.4617 38.1503C61.8956 36.1509 61.8115 34.0752 61.2172 32.1167C60.6202 30.1435 59.6015 28.3206 58.2302 26.7719C56.8651 25.2311 55.1651 24.0167 53.2581 23.2201C53.0262 23.1141 52.776 23.046 52.5353 22.9584L52.1713 22.8333L51.9895 22.7704L51.8025 22.7232L51.0551 22.5338C50.9927 22.5186 50.931 22.5004 50.8681 22.4876L50.6775 22.4556L50.2967 22.3911C49.789 22.3034 49.2769 22.2425 48.7627 22.2085C48.5061 22.1849 48.2466 22.1953 47.9888 22.1865C47.7308 22.1754 47.4723 22.1779 47.2146 22.1939L46.4405 22.237C46.1829 22.2579 45.927 22.2999 45.6702 22.3296L45.285 22.3755C45.1566 22.3906 45.0304 22.422 44.903 22.4443L44.1402 22.5899C43.8883 22.6495 43.6391 22.7206 43.3883 22.7849L43.0125 22.8833C42.8884 22.9202 42.7668 22.9652 42.6438 23.0056L41.9077 23.2534L41.19 23.5498L40.8311 23.6979L40.4836 23.8703L39.7886 24.215L39.1203 24.6067L38.7863 24.8027L38.4674 25.0212L37.8298 25.4585L37.2255 25.9383C37.1256 26.0192 37.0215 26.0954 36.9249 26.1799L36.642 26.4409C36.4547 26.6158 36.2611 26.7856 36.0782 26.9639C34.6339 28.409 33.53 30.1525 32.8456 32.0696C32.5108 33.0098 32.3081 33.9911 32.243 34.986C32.1832 35.9603 32.2892 36.9376 32.5566 37.8772C32.5917 38.0218 32.6383 38.1636 32.6958 38.3011L32.8508 38.7201C32.9666 38.9952 33.099 39.2631 33.2473 39.5225C33.5433 40.049 33.8969 40.5417 34.3018 40.9916C34.7138 41.4469 35.1663 41.8646 35.6539 42.2396C36.1488 42.617 36.6756 42.9515 37.2283 43.2397C38.3465 43.8236 39.5497 44.2318 40.7945 44.4495C42.064 44.6693 43.3549 44.7434 44.6415 44.6703C45.2902 44.6364 45.9404 44.578 46.5887 44.4841C47.2363 44.3878 47.8822 44.2667 48.5252 44.1251L49.0065 44.0136C49.1667 43.9751 49.3256 43.9295 49.4852 43.8878L50.4423 43.6326C50.7619 43.5492 51.0731 43.4369 51.3891 43.3406C51.7026 43.2366 52.0218 43.1493 52.3309 43.032C54.8288 42.1438 57.2286 41.005 59.4927 39.6334C61.7577 38.2452 63.8996 36.6688 65.8952 34.9213C67.8886 33.1608 69.7446 31.2533 71.4471 29.2151C73.153 27.1748 74.7161 25.0213 76.1255 22.7698C77.5425 20.5193 78.8014 18.1748 79.8931 15.7529C81.2142 12.8283 82.3053 9.80706 83.1567 6.71604L83.3081 6.17952C83.3518 6.00327 83.3945 5.83097 83.4362 5.66262L83.6817 4.6994C83.8506 4.08993 83.9625 3.53165 84.0872 3.03302C84.3428 2.03648 84.5058 1.25269 84.671 0.656575C84.9065 -0.212258 85.0136 -0.198847 84.9986 0.578638C84.9887 0.966906 84.958 1.54768 84.8783 2.30053C84.8295 2.67551 84.7712 3.09326 84.7034 3.55379L84.5944 4.27416C84.5458 4.52255 84.4952 4.7809 84.4426 5.04921C83.8863 7.88379 83.0922 10.6675 82.0687 13.3713C80.9012 16.4593 79.4814 19.4479 77.8233 22.3072C77.6142 22.6631 77.3951 23.0132 77.1815 23.3665C76.9636 23.7172 76.7586 24.0759 76.5302 24.42L75.8431 25.4511L75.4997 25.9666C75.384 26.1377 75.2595 26.3028 75.1399 26.4711C74.6548 27.1398 74.1842 27.8192 73.6658 28.4635L72.9047 29.442C72.6434 29.7622 72.3743 30.0761 72.1095 30.3936C71.0581 31.6697 69.9256 32.8803 68.7523 34.049C67.5791 35.2207 66.3468 36.3328 65.0602 37.3811C63.7761 38.4376 62.4338 39.4227 61.0394 40.3317C59.6457 41.2503 58.196 42.0826 56.6986 42.8239L56.0752 43.1298L55.7623 43.2833L55.4427 43.4244C55.0153 43.6107 54.5885 43.8031 54.1566 43.9859C53.7187 44.1553 53.2803 44.3248 52.8414 44.4946C52.4011 44.6602 51.9501 44.7976 51.5051 44.9492C51.0616 45.1066 50.6051 45.2203 50.1546 45.3481C49.9287 45.4104 49.7033 45.4725 49.4783 45.5344C49.2508 45.5886 49.0238 45.6426 48.7973 45.6965C47.8957 45.8983 46.984 46.0533 46.0661 46.1607C44.6054 46.3397 43.1295 46.3618 41.664 46.2266C40.1725 46.091 38.7103 45.7332 37.3267 45.1651C35.9274 44.5837 34.6429 43.762 33.5324 42.7378C32.9754 42.2131 32.4755 41.632 32.0411 41.004C31.822 40.6876 31.622 40.3587 31.4422 40.0189L31.1861 39.5002L30.9735 38.9623C30.8332 38.6032 30.7168 38.2353 30.625 37.8612C30.5743 37.6757 30.5347 37.4874 30.5064 37.2973C30.4735 37.1081 30.437 36.9191 30.4083 36.7294C30.319 35.971 30.3105 35.2054 30.383 34.4453C30.5269 32.9451 30.9301 31.4807 31.575 30.1159C32.2074 28.7645 33.0279 27.5077 34.0127 26.3822C34.9986 25.2687 36.1311 24.2916 37.3798 23.4771C39.2201 22.2585 41.2634 21.372 43.4153 20.8583C43.6806 20.7812 43.9545 20.7402 44.2255 20.6866C44.4976 20.6385 44.7674 20.5772 45.0414 20.5405L45.8659 20.4453C46.0037 20.4322 46.1403 20.4095 46.2789 20.4045L46.694 20.3869C46.9708 20.3767 47.2475 20.3608 47.5243 20.3562L48.356 20.3814L48.7716 20.3961L49.1859 20.4394L50.0142 20.5274L50.8346 20.6775L51.2445 20.7536C51.3799 20.7846 51.5137 20.8237 51.6484 20.8586L52.4545 21.075C52.7196 21.1593 52.9799 21.2595 53.2426 21.3514C54.2946 21.7256 55.2965 22.2259 56.2258 22.8411C56.6903 23.1446 57.1382 23.4721 57.5678 23.8223C57.994 24.1744 58.4019 24.5477 58.7898 24.9407C59.5651 25.7248 60.2596 26.5834 60.863 27.5039C61.9453 29.1493 62.7034 30.9829 63.097 32.9076C63.4901 34.8468 63.4477 36.8478 62.9729 38.7689C62.5024 40.6755 61.6682 42.4438 60.6998 44.0873C59.7259 45.7205 58.6331 47.2812 57.4301 48.7571C52.6262 54.6595 46.183 59.169 39.0648 61.8548C37.6639 62.3774 36.2353 62.8242 34.7855 63.1932C33.3864 63.542 31.9681 63.8097 30.5376 63.9951C29.1711 64.1686 27.7953 64.2609 26.4177 64.2716C25.7462 64.2608 25.0858 64.258 24.4355 64.2099C23.7855 64.1809 23.1472 64.1108 22.5214 64.0444C22.0982 63.9978 21.6782 63.9265 21.2635 63.831C20.9987 63.7799 20.8916 63.7019 20.9375 63.6514C21.0299 63.5409 21.7448 63.4101 23.0614 63.2781C23.2939 63.2702 23.5271 63.2624 23.7609 63.2545C23.9944 63.2391 24.2285 63.2236 24.4633 63.2082C24.6978 63.1916 24.9329 63.1804 25.1679 63.1599C25.4028 63.1367 25.6382 63.1134 25.8741 63.0901C26.3458 63.0474 26.8178 62.9921 27.2912 62.9373C27.7652 62.8903 28.2377 62.8153 28.7117 62.7468C30.616 62.4598 32.4998 62.0525 34.3517 61.5275C37.4487 60.6669 40.4467 59.4891 43.2974 58.0132C43.3 57.9992 43.3033 57.9853 43.3073 57.9716Z" fill="#FF3B30" stroke="#FF3B30" mask="url(#path-3-inside-1_2998_1670)"/>
</g>
<defs>
<filter id="filter0_i_2998_1670" x="13.248" y="59.4084" width="6.86914" height="12.6665" filterUnits="userSpaceOnUse" color-interpolation-filters="sRGB">
<feFlood flood-opacity="0" result="BackgroundImageFix"/>
<feBlend mode="normal" in="SourceGraphic" in2="BackgroundImageFix" result="shape"/>
<feColorMatrix in="SourceAlpha" type="matrix" values="0 0 0 0 0 0 0 0 0 0 0 0 0 0 0 0 0 0 127 0" result="hardAlpha"/>
<feOffset dy="4"/>
<feGaussianBlur stdDeviation="3.55"/>
<feComposite in2="hardAlpha" operator="arithmetic" k2="-1" k3="1"/>
<feColorMatrix type="matrix" values="0 0 0 0 1 0 0 0 0 1 0 0 0 0 1 0 0 0 0.5 0"/>
<feBlend mode="normal" in2="shape" result="effect1_innerShadow_2998_1670"/>
</filter>
<filter id="filter1_i_2998_1670" x="0" y="65.186" width="9.32227" height="21.8147" filterUnits="userSpaceOnUse" color-interpolation-filters="sRGB">
<feFlood flood-opacity="0" result="BackgroundImageFix"/>
<feBlend mode="normal" in="SourceGraphic" in2="BackgroundImageFix" result="shape"/>
<feColorMatrix in="SourceAlpha" type="matrix" values="0 0 0 0 0 0 0 0 0 0 0 0 0 0 0 0 0 0 127 0" result="hardAlpha"/>
<feOffset dy="4"/>
<feGaussianBlur stdDeviation="3.55"/>
<feComposite in2="hardAlpha" operator="arithmetic" k2="-1" k3="1"/>
<feColorMatrix type="matrix" values="0 0 0 0 1 0 0 0 0 1 0 0 0 0 1 0 0 0 0.5 0"/>
<feBlend mode="normal" in2="shape" result="effect1_innerShadow_2998_1670"/>
</filter>
</defs>
</svg>
