<svg width="56" height="56" viewBox="0 0 56 56" fill="none" xmlns="http://www.w3.org/2000/svg">
<circle cx="28" cy="28" r="28" fill="#3E1268"/>
<path d="M17.1411 40.3449L17.2952 34.0289C17.3048 33.6328 17.5197 33.2701 17.8627 33.0709C18.599 32.6433 19.528 33.1417 19.5772 33.9907L19.7849 37.5716C19.8791 39.1967 21.4282 40.3371 23.0109 39.9465L26.4854 39.0891C27.3181 38.8836 28.0751 39.6276 27.8823 40.4622C27.7949 40.8403 27.5174 41.1459 27.1491 41.2696L21.1393 43.2883C19.1447 43.9582 17.0898 42.4455 17.1411 40.3449Z" fill="white"/>
<path d="M24.3888 37.8268C24.9851 37.0193 24.8128 35.882 24.0041 35.2866C23.1953 34.6912 22.0563 34.8632 21.46 35.6707C20.8637 36.4783 21.036 37.6155 21.8447 38.2109C22.6535 38.8063 23.7925 38.6343 24.3888 37.8268Z" fill="white"/>
<path d="M35.5904 43.256L29.6142 41.1802C29.2394 41.05 28.9591 40.735 28.8739 40.348C28.691 39.5174 29.4502 38.7864 30.2749 38.9989L33.7532 39.8953C35.3318 40.3021 36.8925 39.1776 37.0035 37.5535L37.247 33.9882C37.3054 33.1337 38.2462 32.6413 38.9832 33.0795C39.3171 33.278 39.5238 33.6353 39.5293 34.0232L39.6186 40.3538C39.6483 42.4548 37.578 43.9464 35.5904 43.256Z" fill="white"/>
<path d="M35.4029 35.596C34.8149 34.7824 33.6777 34.5988 32.8629 35.1859C32.0481 35.7729 31.8642 36.9084 32.4521 37.722C33.0401 38.5356 34.1772 38.7192 34.9921 38.1321C35.8069 37.5451 35.9908 36.4096 35.4029 35.596Z" fill="white"/>
<path d="M12.6129 26.5378L16.4227 31.5821C16.6616 31.8984 17.0478 32.0683 17.4428 32.0307C18.2907 31.9501 18.7551 31.0046 18.2999 30.2859L16.3798 27.2544C15.5083 25.8786 16.1022 24.0507 17.6166 23.4477L20.941 22.124C21.7378 21.8068 21.919 20.7617 21.2754 20.1954C20.9839 19.9389 20.58 19.8519 20.2085 19.9655L14.1458 21.8199C12.1337 22.4354 11.3459 24.8601 12.6129 26.5378Z" fill="white"/>
<path d="M19.9731 24.3694C20.9289 24.679 21.4523 25.7036 21.1423 26.6579C20.8322 27.6122 19.806 28.1349 18.8503 27.8253C17.8945 27.5157 17.3711 26.4911 17.6811 25.5368C17.9912 24.5824 19.0174 24.0598 19.9731 24.3694Z" fill="white"/>
<path d="M44.143 26.5249L40.3372 31.5723C40.0986 31.8888 39.7125 32.059 39.3174 32.0217C38.4695 31.9418 38.0043 30.9967 38.459 30.2776L40.3767 27.2446C41.247 25.8681 40.6516 24.0406 39.1368 23.4389L35.8113 22.1178C35.0143 21.8012 34.8322 20.7563 35.4753 20.1895C35.7666 19.9328 36.1705 19.8454 36.5421 19.9587L42.6063 21.8083C44.6189 22.4221 45.4087 24.8462 44.143 26.5249Z" fill="white"/>
<path d="M36.781 24.3624C35.8255 24.6728 35.3028 25.6978 35.6137 26.6519C35.9245 27.606 36.9511 28.1278 37.9066 27.8174C38.8621 27.5071 39.3848 26.482 39.0739 25.528C38.7631 24.5739 37.7365 24.0521 36.781 24.3624Z" fill="white"/>
<path d="M25.8933 13.2908L22.2635 18.4658C22.0359 18.7903 21.9933 19.2096 22.1509 19.5731C22.4894 20.3535 23.5334 20.5028 24.0776 19.8487L26.373 17.0896C27.4147 15.8374 29.3394 15.8374 30.3811 17.0896L32.668 19.8385C33.2161 20.4973 34.2676 20.3469 34.6084 19.561C34.7628 19.2049 34.7211 18.7944 34.4982 18.4767L30.8608 13.2908C29.6535 11.5697 27.1005 11.5697 25.8933 13.2908Z" fill="white"/>
<path d="M30.2303 19.6121C30.2303 20.6154 29.4157 21.4287 28.4109 21.4287C27.4061 21.4287 26.5915 20.6154 26.5915 19.6121C26.5915 18.6088 27.4061 17.7955 28.4109 17.7955C29.4157 17.7955 30.2303 18.6088 30.2303 19.6121Z" fill="white"/>
<ellipse cx="28.6142" cy="29.0721" rx="6.50462" ry="6.53186" fill="#FF3B30"/>
</svg>
