<svg width="30" height="32" viewBox="0 0 30 32" fill="none" xmlns="http://www.w3.org/2000/svg">
<path d="M18.6529 2.52118L20.5711 2.50675L20.5584 0.921946C20.5561 0.67715 20.452 0.438776 20.2719 0.26737C20.0915 0.0953851 19.8443 -0.00180925 19.5916 2.55145e-05L10.1344 0.071581C9.88293 0.0738021 9.63636 0.174666 9.45885 0.348727C9.28134 0.523078 9.18187 0.762997 9.18362 1.00794L9.19692 2.59274L11.1139 2.57845L11.1084 1.92276L18.6474 1.86564L18.6529 2.52118Z" fill="#FF4D43"/>
<path d="M2.292 8.55382C1.98986 8.55633 1.70396 8.68844 1.51225 8.91488C1.32059 9.14124 1.24285 9.43881 1.29921 9.72604L5.5457 31.1986C5.63849 31.6665 6.06233 32.0036 6.55379 32L23.7133 31.8699C24.2022 31.8662 24.6205 31.5259 24.7078 31.0601L28.7572 9.5249C28.8118 9.23708 28.7291 8.93739 28.5349 8.71316C28.3406 8.48879 28.0498 8.3591 27.7476 8.36161L2.292 8.55382ZM9.60866 30.5423C9.05735 30.6274 8.53873 30.2635 8.45172 29.7301L5.53623 12.0313C5.44803 11.4963 5.82328 10.9949 6.37574 10.9099C6.92675 10.8246 7.44512 11.1879 7.53268 11.7223L10.4479 29.4208C10.5361 29.9546 10.16 30.4571 9.60866 30.5423ZM15.198 30.6125C14.6392 30.617 14.1828 30.1817 14.1793 29.6406L14.0342 11.7188C14.0307 11.1775 14.4796 10.7359 15.037 10.7319C15.5964 10.7274 16.0529 11.1624 16.0567 11.7034L16.2018 29.6253C16.2053 30.1663 15.7563 30.6084 15.198 30.6125ZM24.5589 11.8872L21.9299 29.628C21.8498 30.1628 21.3381 30.5347 20.7851 30.4576C20.232 30.3811 19.8481 29.8845 19.9282 29.3493L22.5572 11.6083C22.637 11.0732 23.1493 10.7017 23.7023 10.7788C24.2551 10.8558 24.639 11.3515 24.5589 11.8872Z" fill="#FF4D43"/>
<path d="M0.0240197 7.63716L30 7.41043L29.976 4.45245L27.1955 4.47331L27.1833 2.91762C27.1813 2.79604 27.1304 2.67761 27.0411 2.59316C26.9518 2.5076 26.828 2.45941 26.7037 2.46009L20.57 2.50659L18.6518 2.52102L11.1128 2.57829L9.1958 2.59258L3.47751 2.6357C3.35263 2.63671 3.23003 2.68668 3.14307 2.7735C3.05457 2.85949 3.00453 2.9788 3.00543 3.10037L3.01754 4.65659L0 4.67928L0.0240197 7.63716Z" fill="#FF4D43"/>
<path d="M15.0341 10.7323C14.4767 10.7364 14.0278 11.178 14.0313 11.7192L14.1764 29.641C14.1799 30.1822 14.6364 30.6175 15.1951 30.613C15.7534 30.6089 16.2024 30.1668 16.1988 29.6258L16.0537 11.7038C16.05 11.1628 15.5935 10.7278 15.0341 10.7323Z" fill="white"/>
<path d="M22.5615 11.6087L19.9324 29.3497C19.8524 29.885 20.2363 30.3815 20.7893 30.458C21.3423 30.535 21.854 30.1632 21.9341 29.6284L24.5632 11.8876C24.6432 11.3519 24.2593 10.8562 23.7066 10.7792C23.1535 10.7021 22.6413 11.0736 22.5615 11.6087Z" fill="white"/>
<path d="M6.37968 10.9102C5.82722 10.9953 5.45202 11.4966 5.54018 12.0316L8.45566 29.7304C8.54267 30.2639 9.06134 30.6277 9.61261 30.5427C10.1639 30.4574 10.5401 29.9549 10.4519 29.4212L7.53663 11.7227C7.44907 11.1882 6.93075 10.8249 6.37968 10.9102Z" fill="white"/>
</svg>
