<svg width="24" height="24" viewBox="0 0 24 24" fill="none" xmlns="http://www.w3.org/2000/svg">
<g clip-path="url(#clip0_3646_24464)">
<g filter="url(#filter0_g_3646_24464)">
<path d="M23.639 10.4796C23.5966 11.4356 23.5726 12.3754 23.5438 13.3151C23.5209 14.06 23.2061 14.644 22.7265 15.102C22.0925 15.7075 21.4428 16.2897 20.7709 16.836C20.4249 17.1173 20.0731 17.1753 19.6696 16.9542C19.1303 16.6585 18.5685 16.42 18.0161 16.1578C17.9992 16.1497 17.9794 16.1501 17.9632 16.147C17.9111 16.2031 17.9306 16.2708 17.9305 16.3308C17.9289 16.8388 17.9179 17.3472 17.9326 17.8546C17.9545 18.6084 17.6874 19.182 17.1823 19.6124C16.1965 20.4525 15.207 21.2864 14.2193 22.1232C14.017 22.2946 13.8168 22.4697 13.6139 22.64C12.7055 23.4026 11.7356 23.4998 10.7147 23.0053C9.47767 22.4061 8.24048 21.8074 7.0064 21.2C5.6282 20.5215 4.23736 19.8795 2.86659 19.1796C2.47037 18.9773 2.07749 18.7776 1.77163 18.4003C1.42987 17.9787 1.22404 17.4918 1.17049 16.9003C1.09949 16.1158 0.992664 15.336 0.902434 14.5539C0.839905 14.012 0.777466 13.47 0.719738 12.9274C0.709004 12.8265 0.673462 12.7607 0.604456 12.7031C0.208849 12.3731 0.0155768 11.9164 0.00872205 11.3467C0.00580732 11.1045 -0.013806 10.8606 0.0175862 10.6205C0.071141 10.211 0.253444 9.88763 0.540609 9.65726C1.07762 9.22645 1.61987 8.80473 2.16175 8.38247C2.85859 7.83946 3.55734 7.29989 4.25503 6.7584C5.25041 5.98587 6.24576 5.21326 7.24078 4.44008C8.25218 3.65416 9.25934 2.86049 10.2762 2.08457C10.6931 1.76647 11.082 1.38595 11.56 1.19183C12.1551 0.950177 12.7598 0.93235 13.3569 1.1639C14.2758 1.52029 15.1506 2.01072 16.0454 2.44042C17.32 3.05252 18.5891 3.68067 19.8605 4.30191C20.9292 4.82408 22.0024 5.33376 23.0649 5.87315C23.6616 6.17612 24.0058 6.70973 23.9999 7.51411C23.9972 7.88598 24.0148 8.26838 23.833 8.5862C23.6963 8.82505 23.6794 9.07364 23.6724 9.33826C23.6625 9.71312 23.6504 10.0879 23.639 10.4796ZM19.2903 12.1518C19.4095 12.0512 19.5292 11.9514 19.6477 11.8498C20.8691 10.8034 22.1047 9.77998 23.3044 8.6983C23.4718 8.54735 23.5747 8.35313 23.6257 8.11659C23.6784 7.87231 23.6591 7.62321 23.6545 7.37564C23.6469 6.96739 23.502 6.64586 23.2203 6.40532C22.9505 6.17489 22.634 6.06826 22.333 5.92069C20.8498 5.19365 19.366 4.46853 17.8824 3.74254C16.7327 3.17988 15.5847 2.61204 14.4324 2.05666C14.0085 1.85236 13.5992 1.59775 13.1484 1.47957C12.4543 1.29759 11.7883 1.37547 11.1807 1.84081C10.2303 2.56867 9.28493 3.30559 8.33838 4.04038C7.00419 5.07607 5.67137 6.1142 4.33704 7.14964C3.19854 8.03311 2.06046 8.91734 0.918616 9.79475C0.512868 10.1065 0.276695 10.4878 0.311866 11.1073C0.353882 11.8472 0.595523 12.3634 1.19807 12.6402C1.77542 12.9054 2.34034 13.2087 2.90954 13.4984C3.90455 14.0049 4.89834 14.5149 5.89324 15.0217C7.34986 15.7638 8.81354 16.4861 10.2816 17.1957C11.3548 17.7145 12.4065 17.6932 13.4112 16.9662C14.2692 16.3455 15.0835 15.6459 15.9105 14.9701C17.0387 14.0481 18.153 13.1022 19.2903 12.1518ZM19.2207 14.71C19.3667 14.9033 19.4611 15.1276 19.517 15.3776C19.5906 15.7063 19.6638 16.0354 19.7479 16.3605C19.8201 16.6399 19.997 16.7485 20.2364 16.6851C20.3621 16.6518 20.4792 16.5965 20.5831 16.507C20.9975 16.1504 21.4148 15.7983 21.8236 15.433C22.1076 15.1792 22.3993 14.9352 22.657 14.6426C22.9702 14.287 23.1796 13.87 23.1985 13.3415C23.2228 12.6615 23.25 11.9816 23.2755 11.3017C23.2932 10.8292 23.3124 10.3568 23.3263 9.88417C23.3325 9.67334 23.3273 9.46204 23.3273 9.22194C23.2626 9.26868 23.2119 9.29986 23.1661 9.33904C22.0233 10.3168 20.8843 11.3007 19.7379 12.2726C17.7782 13.9341 15.8072 15.5769 13.8015 17.1604C12.8179 17.9369 11.7518 18.1353 10.6146 17.7539C10.0453 17.563 9.51478 17.2487 8.96716 16.9889C8.60574 16.8175 8.24725 16.6374 7.88232 16.4587C7.83606 16.5402 7.79754 16.6129 7.75508 16.6821C7.65096 16.8519 7.52819 16.9973 7.37144 17.1015C6.95943 17.3754 6.5436 17.3397 6.1168 17.1484C5.29027 16.7778 4.4853 16.3479 3.67855 15.9232C3.21222 15.6777 2.87914 15.2796 2.77624 14.6694C2.73928 14.4502 2.71273 14.2262 2.69026 14.0036C2.67463 13.8488 2.61001 13.7724 2.49602 13.7159C2.12244 13.5307 1.75273 13.3346 1.37905 13.1498C1.28885 13.1052 1.20271 13.0312 1.10084 13.0409C1.07703 13.0836 1.0858 13.1176 1.0896 13.1517C1.17484 13.9172 1.2596 14.6828 1.34498 15.4483C1.40359 15.9738 1.44788 16.5023 1.52553 17.0239C1.6473 17.8418 2.09087 18.3667 2.71295 18.6796C4.07798 19.3661 5.44893 20.0364 6.81999 20.706C8.1684 21.3646 9.51918 22.0164 10.8704 22.667C11.7433 23.0872 12.5834 23.0162 13.3599 22.368C14.5761 21.3528 15.7831 20.322 16.9924 19.2951C17.4465 18.9094 17.6425 18.3759 17.6135 17.7218C17.5894 17.1795 17.5963 16.6368 17.5972 16.0943C17.598 15.6247 17.7008 15.1921 17.9751 14.8358C18.2628 14.462 18.8117 14.261 19.2207 14.71ZM7.4539 16.2465C5.98228 15.4986 4.51066 14.7507 3.03422 14.0004C3.00432 14.1093 3.04129 14.1851 3.04657 14.2634C3.08681 14.8606 3.34085 15.2837 3.79367 15.5527C4.23872 15.8171 4.69647 16.0472 5.15452 16.2764C5.59894 16.4987 6.0394 16.737 6.50694 16.8856C6.88697 17.0064 7.32431 16.7863 7.51042 16.4072C7.54806 16.3305 7.55439 16.2823 7.4539 16.2465ZM18.5265 14.8816C18.2387 14.9912 18.0928 15.2511 17.9952 15.5687C17.9572 15.6923 17.9921 15.745 18.0871 15.7881C18.3875 15.9246 18.6845 16.0721 18.9852 16.2077C19.1096 16.2639 19.2275 16.3485 19.3858 16.3643C19.2866 15.9554 19.2418 15.5465 19.0976 15.1743C18.9936 14.9059 18.8059 14.8194 18.5265 14.8816Z" fill="black"/>
</g>
<path d="M9.94617 7.56858C11.3076 8.22442 12.6586 8.87549 14.0095 9.52707C14.398 9.71446 14.7874 9.8994 15.1737 10.0929C15.4397 10.2261 15.6625 10.4319 15.828 10.7129C16.0901 11.1579 16.017 11.6197 15.6375 11.9293C15.2198 12.2701 14.7985 12.6046 14.3798 12.9438C13.7719 13.4364 13.1611 13.9242 12.5587 14.4261C11.9561 14.9282 11.3028 15.0035 10.6201 14.7489C9.98196 14.5108 9.38401 14.1496 8.76933 13.8402C7.45846 13.1802 6.15038 12.5126 4.84095 11.8486C4.25351 11.5508 3.66495 11.256 3.07822 10.9562C2.8651 10.8473 2.68812 10.686 2.61913 10.4095C2.54249 10.1022 2.63595 9.84423 2.80539 9.61447C2.97579 9.38339 3.20759 9.25112 3.41923 9.08761C4.36711 8.35533 5.30746 7.60849 6.26982 6.90371C6.87917 6.45745 7.54575 6.43615 8.21188 6.74202C8.78937 7.00718 9.36126 7.28935 9.94617 7.56858ZM8.18054 7.11636C8.1394 7.09824 8.09863 7.07884 8.05707 7.06219C7.48891 6.83463 6.93267 6.87421 6.42519 7.25191C5.35164 8.05089 4.29125 8.87459 3.22526 9.6878C3.1122 9.77405 3.01897 9.88071 2.96169 10.0272C2.88747 10.2171 2.91185 10.3595 3.05013 10.4869C3.10326 10.5359 3.16429 10.5762 3.22631 10.6078C4.29215 11.1521 5.35863 11.6946 6.42516 12.237C7.5141 12.7908 8.60115 13.3499 9.69346 13.8942C10.066 14.0798 10.4252 14.3109 10.8207 14.4247C11.3331 14.572 11.8318 14.5363 12.2821 14.1766C12.9816 13.6179 13.6753 13.0489 14.372 12.4852C14.7345 12.1919 15.1001 11.9038 15.4606 11.607C15.6895 11.4186 15.721 11.1698 15.5549 10.9072C15.4208 10.6954 15.2498 10.5308 15.0445 10.4272C14.7262 10.2664 14.4031 10.1192 14.0826 9.96455C12.1222 9.0187 10.1619 8.07238 8.18054 7.11636Z" fill="black"/>
<g filter="url(#filter1_g_3646_24464)">
<path d="M16.6445 12.9929C15.6547 13.8078 14.6759 14.6195 13.6915 15.4216C13.2863 15.7517 12.8829 16.0857 12.4102 16.2827C11.8104 16.5327 11.2228 16.468 10.6521 16.1914C9.35646 15.5635 8.06619 14.9198 6.77664 14.2744C5.47795 13.6245 4.1821 12.9666 2.8864 12.3083C2.32156 12.0214 1.76009 11.7252 1.19743 11.4322C1.16213 11.4138 1.12705 11.3915 1.09693 11.3635C1.06862 11.3371 1.05887 11.2959 1.07247 11.2538C1.08666 11.2099 1.11935 11.1975 1.1555 11.1976C1.23085 11.1978 1.29786 11.2367 1.36532 11.2683C3.2565 12.156 5.13943 13.067 6.99757 14.0483C8.06675 14.613 9.13524 15.1797 10.2096 15.7305C10.6855 15.9744 11.1781 16.1526 11.7107 16.1278C12.1927 16.1052 12.6103 15.884 13.0049 15.5858C13.7209 15.0448 14.3985 14.4381 15.0945 13.8628C15.9023 13.1949 16.7091 12.5251 17.5138 11.8518C18.3386 11.1618 19.1601 10.4664 19.9832 9.77358C20.858 9.03732 21.733 8.30142 22.608 7.56543C22.6239 7.55205 22.6399 7.53874 22.6565 7.52669C22.7092 7.48855 22.768 7.45617 22.8126 7.52955C22.8573 7.60323 22.8137 7.6603 22.7641 7.70408C22.5841 7.86268 22.4029 8.01939 22.2225 8.17735C20.9124 9.32445 19.6051 10.4759 18.2912 11.6169C17.7524 12.0848 17.1996 12.5302 16.6445 12.9929Z" fill="black"/>
</g>
<path d="M16.5249 4.94885C17.0431 4.53339 17.5929 4.52379 18.1433 4.76864C18.9374 5.12185 19.7206 5.5094 20.5075 5.88499C20.7602 6.00563 20.9441 6.21177 21.0214 6.52753C21.1059 6.87263 21.0008 7.17421 20.7233 7.40832C20.0919 7.94106 19.4591 8.47163 18.8287 9.00617C18.5871 9.21104 18.356 9.4284 18.0528 9.5075C17.6875 9.60284 17.3322 9.57433 16.9908 9.40972C16.2502 9.05264 15.5147 8.68095 14.7771 8.31515C14.5554 8.20518 14.3726 8.04243 14.2476 7.79277C14.0953 7.48849 14.1193 7.01896 14.4107 6.76973C15.1142 6.16794 15.8148 5.56124 16.5249 4.94885ZM16.766 5.25337C16.0837 5.87004 15.3793 6.451 14.6757 7.03241C14.4373 7.22935 14.4767 7.56016 14.6398 7.74141C14.7039 7.81261 14.7746 7.87255 14.8575 7.91352C15.6272 8.29378 16.3929 8.68557 17.1668 9.05336C17.5504 9.23565 17.95 9.24304 18.302 8.95392C19.031 8.35509 19.7466 7.73341 20.47 7.12482C20.5994 7.01595 20.7161 6.90001 20.6921 6.69398C20.6677 6.48433 20.5591 6.33215 20.3952 6.2542C19.5671 5.8603 18.7423 5.45544 17.9052 5.08978C17.5272 4.92464 17.1358 4.96623 16.766 5.25337Z" fill="black"/>
<path d="M9.94204 3.9582C10.5084 3.50553 11.0626 3.05352 11.6249 2.61621C11.9624 2.35372 12.3427 2.27353 12.7437 2.31052C13.2598 2.35811 13.6881 2.6964 14.1565 2.90131C14.3757 2.99719 14.5884 3.11407 14.8024 3.22587C15.0701 3.36569 15.2348 3.60574 15.2491 3.95459C15.2622 4.27558 15.1222 4.5097 14.9011 4.68797C14.2646 5.20134 13.6355 5.72786 12.9942 6.23262C12.4773 6.63942 11.9227 6.67468 11.3458 6.41096C10.7684 6.14699 10.1861 5.89779 9.60755 5.63729C9.37045 5.53053 9.19197 5.34999 9.16136 5.03195C9.13297 4.73693 9.26309 4.52246 9.44986 4.35515C9.60515 4.21603 9.77167 4.09442 9.94204 3.9582ZM14.655 4.41986C14.6949 4.38666 14.7351 4.35394 14.7747 4.32018C15.0181 4.11266 14.9946 3.7441 14.7186 3.60008C14.1831 3.32073 13.6467 3.04231 13.1028 2.78717C12.6357 2.56807 12.1824 2.64694 11.7649 2.97363C11.3255 3.31744 10.891 3.67014 10.4546 4.01927C10.1879 4.23258 9.91698 4.43902 9.65641 4.6623C9.41303 4.87083 9.44265 5.12505 9.71635 5.26805C9.74309 5.28202 9.77068 5.29381 9.79814 5.30574C10.3749 5.55633 10.9534 5.80147 11.528 6.05895C12.0092 6.27457 12.4532 6.20652 12.8746 5.86238C13.4607 5.38366 14.0499 4.91013 14.655 4.41986Z" fill="black"/>
<path d="M12.2066 20.9137C12.2074 21.1206 12.2088 21.3109 12.208 21.5012C12.2075 21.5979 12.1966 21.7009 12.0928 21.7036C11.9904 21.7063 11.9699 21.6071 11.9693 21.5088C11.9658 20.9149 11.9642 20.321 11.9612 19.7271C11.9607 19.6281 11.9869 19.5506 12.081 19.5508C12.1731 19.551 12.1845 19.6352 12.1862 19.7218C12.1941 20.1135 12.1728 20.506 12.2066 20.9137Z" fill="black"/>
<path d="M5.58008 8.88223C5.8315 8.68142 6.07197 8.48358 6.31712 8.29422C6.90712 7.83849 7.54666 7.75455 8.19175 8.05749C9.66516 8.74942 11.1272 9.4752 12.594 10.1868C12.9234 10.3465 13.2533 10.5048 13.5832 10.6629C13.703 10.7203 13.8051 10.8084 13.8964 10.9139C14.0688 11.1134 14.0859 11.3735 13.9403 11.601C13.8783 11.6979 13.8046 11.7833 13.7192 11.8517C13.1778 12.2853 12.6407 12.7266 12.0925 13.1479C11.537 13.5748 10.9351 13.6235 10.329 13.3351C8.96239 12.6851 7.60271 12.0147 6.2404 11.3521C5.80735 11.1415 5.37442 10.9305 4.94232 10.7171C4.81083 10.6522 4.68991 10.5646 4.59314 10.4384C4.42581 10.2202 4.42106 9.99807 4.57808 9.76871C4.70593 9.58195 4.87714 9.45637 5.04024 9.32027C5.21567 9.17389 5.39412 9.03257 5.58008 8.88223ZM5.45619 9.44916C5.32709 9.55291 5.19665 9.65443 5.06927 9.76108C4.96085 9.85185 4.7946 9.91451 4.81439 10.1028C4.83378 10.2873 4.99443 10.3422 5.12644 10.4059C5.82627 10.7436 6.52602 11.0815 7.22546 11.4203C8.3311 11.9559 9.43439 12.4984 10.5429 13.0255C11.0253 13.2549 11.4914 13.1753 11.9208 12.831C12.4578 12.4004 12.9911 11.9635 13.5265 11.53C13.6038 11.4674 13.6944 11.4069 13.6863 11.2819C13.6774 11.1454 13.5797 11.079 13.4843 11.0324C12.637 10.619 11.7886 10.2089 10.9406 9.79744C9.98421 9.33337 9.02801 8.86876 8.07163 8.40466C7.56876 8.16063 7.07451 8.18893 6.61307 8.52486C6.22308 8.80877 5.85293 9.13075 5.45619 9.44916Z" fill="black"/>
<g filter="url(#filter2_g_3646_24464)">
<path d="M6.92968 6.29463C7.23839 6.04381 7.6664 5.99979 8.0197 6.18253L15.2107 9.90208C16.1877 10.4074 16.3065 11.7577 15.4327 12.4259L13.0592 14.2411C12.1242 14.956 10.8576 15.0583 9.82011 14.5025L3.31508 11.0177C2.68536 10.6804 2.60226 9.81061 3.15671 9.36012L6.92968 6.29463Z" fill="white"/>
<path d="M7.90486 6.4051L15.0963 10.1239C15.9102 10.5451 16.0092 11.6708 15.2811 12.2276L12.9074 14.0429C12.0505 14.6982 10.8891 14.7918 9.93814 14.2824L3.43254 10.7976C2.96062 10.5444 2.89882 9.89223 3.31446 9.55444L7.08698 6.489C7.31851 6.30088 7.63989 6.26804 7.90486 6.4051Z" stroke="black" stroke-width="0.5"/>
</g>
<path d="M12.513 10.4815C13.0269 10.7193 13.1014 11.4191 12.6497 11.7605L11.5785 12.5708C11.0406 12.977 10.317 13.0381 9.71845 12.7279L5.76403 10.677C5.53651 10.5589 5.50886 10.2445 5.71239 10.0887L7.59423 8.64688C7.81534 8.47768 8.1122 8.4453 8.36493 8.56212L12.513 10.4815Z" fill="#FF3B30" stroke="black" stroke-width="0.5"/>
<g filter="url(#filter3_g_3646_24464)">
<path d="M14.2981 3.18247L12.8152 2.44102C12.4475 2.25715 12.0047 2.31711 11.6991 2.59216L9.89139 4.21904C9.36749 4.69055 9.48272 5.54156 10.1131 5.85677L11.596 6.59822C11.9638 6.78209 12.4066 6.72213 12.7122 6.44709L14.5199 4.8202C15.0438 4.34869 14.9286 3.49768 14.2981 3.18247Z" fill="#FF3B30"/>
<path d="M14.2981 3.18247L12.8152 2.44102C12.4475 2.25715 12.0047 2.31711 11.6991 2.59216L9.89139 4.21904C9.36749 4.69055 9.48272 5.54156 10.1131 5.85677L11.596 6.59822C11.9638 6.78209 12.4066 6.72213 12.7122 6.44709L14.5199 4.8202C15.0438 4.34869 14.9286 3.49768 14.2981 3.18247Z" stroke="black" stroke-width="0.5"/>
</g>
<g filter="url(#filter4_g_3646_24464)">
<path d="M20.0172 5.87211L17.8917 4.80939C17.5393 4.63318 17.1162 4.68035 16.8113 4.92986L14.7623 6.60632C14.2011 7.06544 14.2998 7.95046 14.9483 8.2747L17.0737 9.33743C17.4262 9.51364 17.8492 9.46647 18.1542 9.21696L20.2032 7.5405C20.7643 7.08138 20.6657 6.19636 20.0172 5.87211Z" fill="#FF3B30"/>
<path d="M20.0172 5.87211L17.8917 4.80939C17.5393 4.63318 17.1162 4.68035 16.8113 4.92986L14.7623 6.60632C14.2011 7.06544 14.2998 7.95046 14.9483 8.2747L17.0737 9.33743C17.4262 9.51364 17.8492 9.46647 18.1542 9.21696L20.2032 7.5405C20.7643 7.08138 20.6657 6.19636 20.0172 5.87211Z" stroke="black" stroke-width="0.5"/>
</g>
</g>
<defs>
<filter id="filter0_g_3646_24464" x="-0.2" y="0.8" width="24.4" height="22.7101" filterUnits="userSpaceOnUse" color-interpolation-filters="sRGB">
<feFlood flood-opacity="0" result="BackgroundImageFix"/>
<feBlend mode="normal" in="SourceGraphic" in2="BackgroundImageFix" result="shape"/>
<feTurbulence type="fractalNoise" baseFrequency="5 5" numOctaves="3" seed="326" />
<feDisplacementMap in="shape" scale="0.40000000596046448" xChannelSelector="R" yChannelSelector="G" result="displacedImage" width="100%" height="100%" />
<feMerge result="effect1_texture_3646_24464">
<feMergeNode in="displacedImage"/>
</feMerge>
</filter>
<filter id="filter1_g_3646_24464" x="0.866406" y="7.2856" width="22.1649" height="9.35313" filterUnits="userSpaceOnUse" color-interpolation-filters="sRGB">
<feFlood flood-opacity="0" result="BackgroundImageFix"/>
<feBlend mode="normal" in="SourceGraphic" in2="BackgroundImageFix" result="shape"/>
<feTurbulence type="fractalNoise" baseFrequency="5 5" numOctaves="3" seed="326" />
<feDisplacementMap in="shape" scale="0.40000000596046448" xChannelSelector="R" yChannelSelector="G" result="displacedImage" width="100%" height="100%" />
<feMerge result="effect1_texture_3646_24464">
<feMergeNode in="displacedImage"/>
</feMerge>
</filter>
<filter id="filter2_g_3646_24464" x="2.58711" y="5.8708" width="13.6346" height="9.18735" filterUnits="userSpaceOnUse" color-interpolation-filters="sRGB">
<feFlood flood-opacity="0" result="BackgroundImageFix"/>
<feBlend mode="normal" in="SourceGraphic" in2="BackgroundImageFix" result="shape"/>
<feTurbulence type="fractalNoise" baseFrequency="5 5" numOctaves="3" seed="326" />
<feDisplacementMap in="shape" scale="0.40000000596046448" xChannelSelector="R" yChannelSelector="G" result="displacedImage" width="100%" height="100%" />
<feMerge result="effect1_texture_3646_24464">
<feMergeNode in="displacedImage"/>
</feMerge>
</filter>
<filter id="filter3_g_3646_24464" x="9.1103" y="1.88545" width="6.19077" height="5.26841" filterUnits="userSpaceOnUse" color-interpolation-filters="sRGB">
<feFlood flood-opacity="0" result="BackgroundImageFix"/>
<feBlend mode="normal" in="SourceGraphic" in2="BackgroundImageFix" result="shape"/>
<feTurbulence type="fractalNoise" baseFrequency="5 5" numOctaves="3" seed="326" />
<feDisplacementMap in="shape" scale="0.40000000596046448" xChannelSelector="R" yChannelSelector="G" result="displacedImage" width="100%" height="100%" />
<feMerge result="effect1_texture_3646_24464">
<feMergeNode in="displacedImage"/>
</feMerge>
</filter>
<filter id="filter4_g_3646_24464" x="13.9453" y="4.25386" width="7.0748" height="5.63926" filterUnits="userSpaceOnUse" color-interpolation-filters="sRGB">
<feFlood flood-opacity="0" result="BackgroundImageFix"/>
<feBlend mode="normal" in="SourceGraphic" in2="BackgroundImageFix" result="shape"/>
<feTurbulence type="fractalNoise" baseFrequency="5 5" numOctaves="3" seed="326" />
<feDisplacementMap in="shape" scale="0.40000000596046448" xChannelSelector="R" yChannelSelector="G" result="displacedImage" width="100%" height="100%" />
<feMerge result="effect1_texture_3646_24464">
<feMergeNode in="displacedImage"/>
</feMerge>
</filter>
<clipPath id="clip0_3646_24464">
<rect width="24" height="24" fill="white"/>
</clipPath>
</defs>
</svg>
