<svg width="24" height="24" viewBox="0 0 24 24" fill="none" xmlns="http://www.w3.org/2000/svg">
<g clip-path="url(#clip0_3646_24480)">
<g filter="url(#filter0_g_3646_24480)">
<path d="M3 9.47357L4.7004 6.31567H18.9838L20.6842 9.47357H3Z" fill="#FF3B30"/>
</g>
<g filter="url(#filter1_g_3646_24480)">
<path d="M3.00351 12.2477C3.00318 11.3746 3.00666 10.5365 3.00063 9.69844C2.99874 9.43558 3.05446 9.19285 3.16658 8.95771C3.59644 8.05615 4.02013 7.15157 4.45371 6.25185C4.54726 6.05771 4.59059 5.86335 4.58931 5.64828C4.5838 4.7287 4.57568 3.80891 4.58893 2.88949C4.6098 1.44119 5.52062 0.334287 6.9185 0.0426716C7.07483 0.0100594 7.23862 0.00267197 7.39897 0.00254646C10.3519 0.000234661 13.3048 -0.00135326 16.2577 0.00164241C17.8769 0.00328507 19.0816 1.21588 19.0889 2.84655C19.0931 3.76614 19.0948 4.68582 19.0866 5.60536C19.0843 5.85757 19.1388 6.08268 19.2494 6.30772C19.6338 7.08941 20.001 7.8797 20.3863 8.66089C20.5906 9.07505 20.6856 9.49703 20.6842 9.96692C20.6719 14.1343 20.6777 18.3017 20.677 22.469C20.6768 23.4763 20.165 23.9967 19.1644 23.9973C14.2736 23.9999 9.38289 24.0003 4.49213 23.9998C3.52771 23.9997 2.99931 23.4545 3 22.4797C3.0024 19.0806 3.00262 15.6816 3.00351 12.2477ZM3.86101 16.8227C3.86097 18.6847 3.86037 20.5467 3.86126 22.4088C3.86152 22.9634 4.01325 23.1206 4.55158 23.1207C9.39502 23.1213 14.2385 23.1211 19.0819 23.1204C19.6513 23.1203 19.8081 22.9656 19.8084 22.4036C19.8104 18.3536 19.8079 14.3036 19.8193 10.2537C19.8202 9.92049 19.7287 9.81707 19.3925 9.81774C14.3646 9.82767 9.33664 9.82468 4.30868 9.82531C3.8614 9.82536 3.86084 9.8272 3.86081 10.2938C3.86067 12.4468 3.86088 14.5998 3.86101 16.8227ZM8.85713 5.68036C11.8324 5.68072 14.8077 5.67693 17.7829 5.68738C18.1088 5.68852 18.2282 5.59853 18.2185 5.25484C18.1958 4.45248 18.2157 3.64899 18.21 2.84602C18.2025 1.79292 17.3934 0.946565 16.3548 0.943148C13.345 0.933244 10.3352 0.934742 7.32536 0.943384C6.40873 0.946016 5.64095 1.63117 5.5167 2.54824C5.39448 3.45025 5.49045 4.36041 5.45411 5.26594C5.44111 5.58996 5.57007 5.69017 5.88195 5.68541C6.85041 5.67064 7.81924 5.68014 8.85713 5.68036ZM14.4633 6.6032C11.5694 6.60307 8.67548 6.61025 5.78169 6.59381C5.40846 6.59169 5.17173 6.67192 5.05147 7.04801C4.98507 7.25563 4.85547 7.44202 4.762 7.64162C4.57218 8.04696 4.38754 8.45477 4.18523 8.8954C9.3081 8.8954 14.3727 8.8954 19.4976 8.8954C19.1641 8.1952 18.8503 7.56245 18.5623 6.91795C18.4561 6.68021 18.3147 6.59498 18.0605 6.59735C16.8846 6.60834 15.7085 6.60284 14.4633 6.6032Z" fill="black"/>
<path d="M16.2578 0.101562C17.821 0.103239 18.982 1.27041 18.9893 2.84668C18.9934 3.76614 18.9945 4.68563 18.9863 5.60449C18.9839 5.8731 19.043 6.1133 19.1602 6.35156C19.352 6.74178 19.5395 7.13436 19.7275 7.52734C19.9155 7.92021 20.1039 8.31387 20.2969 8.70508C20.4941 9.10487 20.5853 9.51179 20.584 9.9668C20.5717 14.1342 20.5778 18.3017 20.5771 22.4688C20.5771 22.9565 20.4528 23.309 20.2246 23.54C19.9965 23.7709 19.648 23.8972 19.1641 23.8975C14.2734 23.9001 9.38282 23.8999 4.49219 23.8994C4.02863 23.8994 3.68469 23.7688 3.45605 23.5352C3.22709 23.3011 3.09928 22.9495 3.09961 22.4795C3.10201 19.0806 3.10262 15.6818 3.10352 12.248C3.10318 11.3756 3.10661 10.5358 3.10059 9.69727C3.09888 9.45017 3.15119 9.22261 3.25684 9.00098C3.68717 8.09842 4.11041 7.19457 4.54395 6.29492C4.64406 6.08706 4.69083 5.87751 4.68945 5.64746C4.68394 4.72749 4.67525 3.8087 4.68848 2.89062C4.7088 1.48888 5.58731 0.422687 6.93848 0.140625C7.08479 0.110102 7.24136 0.102663 7.39941 0.102539C10.3522 0.100227 13.3051 0.098567 16.2578 0.101562ZM19.3926 9.71777C14.3648 9.72771 9.33665 9.72496 4.30859 9.72559C4.19926 9.7256 4.10828 9.72507 4.03809 9.7334C3.96821 9.7417 3.89721 9.76047 3.84473 9.81543C3.7932 9.86948 3.77621 9.94153 3.76855 10.0127C3.7608 10.0851 3.76075 10.1796 3.76074 10.2939C3.76061 12.4468 3.76061 14.5996 3.76074 16.8223C3.76071 18.6843 3.76083 20.5471 3.76172 22.4092C3.76188 22.6875 3.79768 22.9025 3.93262 23.042C4.06883 23.1826 4.28022 23.2207 4.55176 23.2207C9.39515 23.2213 14.2386 23.2214 19.082 23.2207C19.3677 23.2207 19.587 23.1835 19.7285 23.0439C19.8705 22.9039 19.9081 22.6859 19.9082 22.4033C19.9102 18.3533 19.9075 14.3036 19.9189 10.2539C19.9194 10.0856 19.8992 9.93912 19.8047 9.84082C19.7092 9.74149 19.5638 9.71746 19.3926 9.71777ZM5.78223 6.49414C5.59124 6.49306 5.41745 6.5122 5.27344 6.5918C5.12461 6.67407 5.02174 6.81218 4.95605 7.01758C4.92576 7.11228 4.88084 7.20449 4.8291 7.30078C4.77871 7.39456 4.72015 7.49653 4.67188 7.59961C4.48191 8.00526 4.29667 8.41369 4.09473 8.85352L4.0293 8.99512H19.6562L19.5879 8.85254C19.2535 8.15041 18.9407 7.51999 18.6533 6.87695C18.5955 6.74759 18.5227 6.64784 18.4199 6.58301C18.3174 6.5184 18.1973 6.49579 18.0596 6.49707C16.8843 6.50806 15.7088 6.50257 14.4629 6.50293C11.5688 6.5028 8.67551 6.51058 5.78223 6.49414ZM7.3252 0.84375C6.35738 0.846529 5.54876 1.56986 5.41797 2.53516C5.35591 2.99333 5.34934 3.45196 5.35352 3.90625C5.35772 4.36282 5.37251 4.81231 5.35449 5.26172C5.34763 5.43264 5.3757 5.57658 5.47754 5.67188C5.57713 5.76483 5.72277 5.78761 5.88379 5.78516C6.85112 5.77041 7.81836 5.78005 8.85742 5.78027C11.8327 5.78064 14.8074 5.77666 17.7822 5.78711C17.9471 5.78769 18.0952 5.76705 18.1953 5.67285C18.2975 5.5764 18.3234 5.42925 18.3184 5.25195C18.2957 4.45043 18.3153 3.6535 18.3096 2.8457C18.3017 1.74121 17.452 0.846545 16.3555 0.842773C13.3455 0.832869 10.3351 0.835108 7.3252 0.84375Z" stroke="white" stroke-width="0.2"/>
</g>
<path d="M9.69238 1.48291C11.1342 1.4566 12.5774 1.45667 14.0195 1.48096C14.5753 1.49048 15.0132 1.81818 15.248 2.31006C15.4825 2.80148 15.5084 3.45299 15.2256 4.08447C15.0501 4.36362 14.859 4.55519 14.6484 4.67627C14.4357 4.7985 14.1921 4.8563 13.9062 4.85205C12.5048 4.83089 11.0683 4.85566 9.6748 4.84131C9.16702 4.83608 8.74257 4.54888 8.49121 4.10889C8.23936 3.66799 8.16646 3.0796 8.37207 2.49951C8.4966 2.14841 8.6802 1.89948 8.89941 1.73682C9.11832 1.57443 9.38543 1.48851 9.69238 1.48291ZM9.69629 2.15869C9.14662 2.16407 8.78239 2.58891 8.73633 3.11182C8.69209 3.61518 9.06284 4.03726 9.61328 4.16064L9.63477 4.16553H9.65723C11.0746 4.1668 12.4937 4.17103 13.9121 4.16748C14.2055 4.1667 14.4662 4.0722 14.6572 3.89697C14.8491 3.72088 14.9581 3.47437 14.9648 3.1958C14.9787 2.62219 14.5625 2.15869 13.9541 2.15381C12.5348 2.14241 11.1151 2.14539 9.69629 2.15869Z" fill="black" stroke="white" stroke-width="0.4"/>
<g clip-path="url(#clip1_3646_24480)">
<path d="M14.3685 15.158C14.536 15.158 14.6967 15.2245 14.8151 15.3429C14.9336 15.4614 15.0001 15.622 15.0001 15.7895V15.9474C15.0001 16.4824 14.2905 17.6811 13.7423 18.1526L13.737 18.1567V18.3159C13.737 18.4752 13.6768 18.6287 13.5685 18.7455C13.4601 18.8623 13.3116 18.9339 13.1527 18.9459L13.1054 18.9474H10.5791C10.4116 18.9474 10.2509 18.8809 10.1325 18.7624C10.014 18.644 9.94748 18.4834 9.94748 18.3159V18.1592L9.92696 18.1425C9.37117 17.6701 8.72885 16.5746 8.68654 16.0046L8.68433 15.9474V15.7895C8.68433 15.622 8.75087 15.4614 8.86931 15.3429C8.98776 15.2245 9.1484 15.158 9.31591 15.158H14.3685Z" fill="#FF3B30"/>
<path d="M11.6582 13.0069C11.6917 12.9813 11.7301 12.9627 11.771 12.9523C11.8119 12.9418 11.8545 12.9396 11.8962 12.9459C11.9379 12.9521 11.978 12.9667 12.014 12.9887C12.05 13.0107 12.0813 13.0397 12.1059 13.074C12.1305 13.1083 12.148 13.1472 12.1573 13.1883C12.1667 13.2295 12.1677 13.2721 12.1602 13.3136C12.1528 13.3552 12.1372 13.3948 12.1142 13.4302C12.0912 13.4656 12.0613 13.496 12.0264 13.5197C11.9079 13.605 11.8391 13.7426 11.8423 13.9015C11.8407 13.9732 11.8567 14.0443 11.8888 14.1085C11.9208 14.1727 11.9681 14.2281 12.0264 14.27C12.0613 14.2937 12.0912 14.3241 12.1142 14.3595C12.1372 14.3949 12.1528 14.4345 12.1602 14.4761C12.1677 14.5176 12.1667 14.5602 12.1573 14.6014C12.148 14.6426 12.1305 14.6814 12.1059 14.7157C12.0813 14.75 12.05 14.779 12.014 14.801C11.978 14.823 11.9379 14.8376 11.8962 14.8438C11.8545 14.8501 11.8119 14.8479 11.771 14.8374C11.7301 14.827 11.6917 14.8084 11.6582 14.7829C11.518 14.6829 11.4042 14.5506 11.3262 14.3971C11.2483 14.2436 11.2087 14.0736 11.2107 13.9015C11.2071 13.7272 11.2459 13.5547 11.3239 13.3989C11.4018 13.243 11.5166 13.1085 11.6582 13.0069Z" fill="#FF3B30"/>
<path d="M12.9213 13.0069C12.9549 12.9813 12.9933 12.9627 13.0342 12.9523C13.0751 12.9418 13.1176 12.9396 13.1594 12.9459C13.2011 12.9521 13.2412 12.9667 13.2772 12.9887C13.3132 13.0107 13.3445 13.0397 13.3691 13.074C13.3937 13.1083 13.4112 13.1472 13.4205 13.1883C13.4299 13.2295 13.4308 13.2721 13.4234 13.3136C13.416 13.3552 13.4003 13.3948 13.3774 13.4302C13.3544 13.4656 13.3245 13.496 13.2895 13.5197C13.1711 13.605 13.1023 13.7426 13.1054 13.9015C13.1039 13.9732 13.1199 14.0443 13.1519 14.1085C13.184 14.1727 13.2313 14.2281 13.2895 14.27C13.3245 14.2937 13.3544 14.3241 13.3774 14.3595C13.4003 14.3949 13.416 14.4345 13.4234 14.4761C13.4308 14.5176 13.4299 14.5602 13.4205 14.6014C13.4112 14.6426 13.3937 14.6814 13.3691 14.7157C13.3445 14.75 13.3132 14.779 13.2772 14.801C13.2412 14.823 13.2011 14.8376 13.1594 14.8438C13.1176 14.8501 13.0751 14.8479 13.0342 14.8374C12.9933 14.827 12.9549 14.8084 12.9213 14.7829C12.7812 14.6829 12.6673 14.5506 12.5894 14.3971C12.5115 14.2436 12.4719 14.0736 12.4739 13.9015C12.4702 13.7272 12.5091 13.5547 12.5871 13.3989C12.665 13.243 12.7797 13.1085 12.9213 13.0069Z" fill="#FF3B30"/>
<path d="M10.395 13.0069C10.4286 12.9813 10.4669 12.9627 10.5078 12.9523C10.5487 12.9418 10.5913 12.9396 10.633 12.9459C10.6748 12.9521 10.7148 12.9667 10.7508 12.9887C10.7868 13.0107 10.8181 13.0397 10.8427 13.074C10.8673 13.1083 10.8848 13.1472 10.8941 13.1883C10.9035 13.2295 10.9045 13.2721 10.8971 13.3136C10.8896 13.3552 10.874 13.3948 10.851 13.4302C10.828 13.4656 10.7981 13.496 10.7632 13.5197C10.6448 13.605 10.5759 13.7426 10.5791 13.9015C10.5775 13.9732 10.5935 14.0443 10.6256 14.1085C10.6577 14.1727 10.7049 14.2281 10.7632 14.27C10.7981 14.2937 10.828 14.3241 10.851 14.3595C10.874 14.3949 10.8896 14.4345 10.8971 14.4761C10.9045 14.5176 10.9035 14.5602 10.8941 14.6014C10.8848 14.6426 10.8673 14.6814 10.8427 14.7157C10.8181 14.75 10.7868 14.779 10.7508 14.801C10.7148 14.823 10.6748 14.8376 10.633 14.8438C10.5913 14.8501 10.5487 14.8479 10.5078 14.8374C10.4669 14.827 10.4286 14.8084 10.395 14.7829C10.2549 14.6829 10.141 14.5506 10.0631 14.3971C9.98514 14.2436 9.9455 14.0736 9.9475 13.9015C9.94388 13.7272 9.98272 13.5547 10.0607 13.3989C10.1386 13.243 10.2534 13.1085 10.395 13.0069Z" fill="#FF3B30"/>
</g>
</g>
<defs>
<filter id="filter0_g_3646_24480" x="2.8" y="6.11567" width="18.0843" height="3.55796" filterUnits="userSpaceOnUse" color-interpolation-filters="sRGB">
<feFlood flood-opacity="0" result="BackgroundImageFix"/>
<feBlend mode="normal" in="SourceGraphic" in2="BackgroundImageFix" result="shape"/>
<feTurbulence type="fractalNoise" baseFrequency="10 10" numOctaves="3" seed="3474" />
<feDisplacementMap in="shape" scale="0.40000000596046448" xChannelSelector="R" yChannelSelector="G" result="displacedImage" width="100%" height="100%" />
<feMerge result="effect1_texture_3646_24480">
<feMergeNode in="displacedImage"/>
</feMerge>
</filter>
<filter id="filter1_g_3646_24480" x="2.8" y="-0.2" width="18.0843" height="24.4" filterUnits="userSpaceOnUse" color-interpolation-filters="sRGB">
<feFlood flood-opacity="0" result="BackgroundImageFix"/>
<feBlend mode="normal" in="SourceGraphic" in2="BackgroundImageFix" result="shape"/>
<feTurbulence type="fractalNoise" baseFrequency="5 5" numOctaves="3" seed="3474" />
<feDisplacementMap in="shape" scale="0.40000000596046448" xChannelSelector="R" yChannelSelector="G" result="displacedImage" width="100%" height="100%" />
<feMerge result="effect1_texture_3646_24480">
<feMergeNode in="displacedImage"/>
</feMerge>
</filter>
<clipPath id="clip0_3646_24480">
<rect width="24" height="24" fill="white"/>
</clipPath>
<clipPath id="clip1_3646_24480">
<rect width="7.57895" height="7.57895" fill="white" transform="translate(8.05273 12)"/>
</clipPath>
</defs>
</svg>
