<svg width="24" height="23" viewBox="0 0 24 23" fill="none" xmlns="http://www.w3.org/2000/svg">
<path d="M8.66675 15.3333H4.66675V21.787H8.66675V15.3333Z" fill="#FF3B30"/>
<path d="M6.66675 8.33333L4.66675 8V9.66667L6.66675 9L8.40008 9.66667L8.66675 8L6.66675 8.33333Z" fill="#FF3B30"/>
<g filter="url(#filter0_g_3646_24451)">
<path d="M14.3333 8.33333C15.3333 2.66666 21.9999 4.00009 22.3333 8.33335L14.3333 8.33333Z" fill="#FF3B30"/>
</g>
<g filter="url(#filter1_g_3646_24451)">
<path d="M6.44529 15.0924C7.23423 15.0925 8.01145 15.0926 8.78868 15.0926C8.98999 15.0927 9.05074 15.1569 9.05147 15.3726C9.0519 15.4996 9.05528 15.6268 9.04918 15.7536C9.04449 15.851 9.08036 15.8811 9.17143 15.8803C9.60883 15.8765 10.0463 15.8785 10.4837 15.8786C10.6756 15.8787 10.6978 15.8923 10.6987 16.0908C10.7016 16.7707 10.6979 17.4506 10.697 18.1304C10.6969 18.2247 10.699 18.3189 10.6996 18.4131C10.7007 18.5919 10.6327 18.6658 10.4597 18.6663C10.0497 18.6676 9.63958 18.6664 9.22951 18.6667C9.05225 18.6669 9.05175 18.6675 9.0517 18.8561C9.05141 19.8478 9.05132 20.8394 9.05135 21.831C9.05136 22.0787 8.98012 22.1547 8.74546 22.1547C7.78119 22.1547 6.81692 22.1548 5.85265 22.1544C5.45102 22.1542 5.0494 22.1519 4.64777 22.1522C4.42645 22.1524 4.33176 22.0585 4.33165 21.828C4.33119 20.8323 4.33184 19.8366 4.33155 18.8408C4.3315 18.666 4.33032 18.6649 4.16279 18.6645C3.92456 18.6638 3.68632 18.664 3.44809 18.6656C3.26691 18.6667 3.26588 18.6679 3.26586 18.8641C3.26576 20.3229 3.26611 21.7817 3.26629 23.2404C3.26631 23.4002 3.26781 23.5601 3.26552 23.7198C3.26329 23.8752 3.20736 23.9148 3.00635 23.9098C2.86939 23.9063 2.82556 23.8579 2.82571 23.7155C2.82739 22.0929 2.82886 20.4702 2.82987 18.8476C2.82999 18.6653 2.82854 18.6657 2.65425 18.6658C2.15825 18.6662 1.66226 18.667 1.16626 18.6661C0.917843 18.6657 0.842478 18.5865 0.84241 18.3307C0.841811 16.0565 0.840965 13.7822 0.841074 11.508C0.841126 10.4274 1.51271 9.4631 2.49595 9.13653C2.68957 9.07222 2.89045 9.03859 3.09532 9.04559C3.23461 9.05034 3.31628 9.12748 3.3202 9.25658C3.32429 9.39155 3.24267 9.48738 3.10359 9.49465C2.22583 9.54051 1.47515 10.258 1.31091 11.144C1.28723 11.2718 1.2758 11.4041 1.27572 11.5343C1.27433 13.6815 1.27572 15.8287 1.27617 17.9759C1.27618 18.0457 1.28055 18.1146 1.29863 18.1862C1.39602 18.2343 1.49772 18.1967 1.5968 18.197C2.42086 18.199 3.24493 18.1989 4.06899 18.1975C4.37082 18.197 4.32997 18.2303 4.33163 17.9227C4.33424 17.4392 4.32917 16.9556 4.33357 16.4722C4.33454 16.3652 4.3043 16.3285 4.20075 16.3299C3.84541 16.3348 3.48997 16.3312 3.13457 16.3306C2.97272 16.3304 2.93189 16.2938 2.93276 16.1209C2.93626 15.4245 2.91997 14.728 2.94158 14.0316C2.94817 13.8191 2.93289 13.6058 2.93139 13.3929C2.93031 13.2385 2.97145 13.1992 3.12106 13.1977C3.35203 13.1955 3.37497 13.2161 3.37409 13.4633C3.37144 14.2084 3.36605 14.9535 3.36179 15.6987C3.36149 15.7513 3.36175 15.804 3.36175 15.8527C3.43031 15.8962 3.49393 15.8775 3.55431 15.8781C3.77691 15.8804 3.99958 15.8772 4.22215 15.8808C4.30277 15.8821 4.33411 15.8509 4.3316 15.7657C4.32727 15.6183 4.32968 15.4707 4.33008 15.3232C4.33055 15.1504 4.38145 15.0942 4.54719 15.0938C5.17598 15.0923 5.80478 15.0927 6.44529 15.0924ZM8.62195 19.6845C8.6218 19.0494 8.62171 18.4143 8.62147 17.7792C8.62122 17.0868 8.62106 16.3943 8.62034 15.7019C8.62019 15.55 8.61227 15.5431 8.46612 15.5501C8.36868 15.5548 8.27084 15.5684 8.17388 15.5634C7.59728 15.5334 7.02059 15.5723 6.44374 15.5545C5.92941 15.5386 5.41433 15.5509 4.89961 15.5469C4.80614 15.5462 4.7655 15.5758 4.76601 15.6799C4.76845 16.1713 4.76517 16.6626 4.76522 17.154C4.76536 18.6002 4.76602 20.0464 4.76672 21.4926C4.76681 21.6828 4.76746 21.6837 4.94258 21.6837C6.11416 21.684 7.28573 21.684 8.45731 21.6838C8.62076 21.6838 8.62109 21.6829 8.62122 21.516C8.62171 20.9137 8.62195 20.3114 8.62195 19.6845ZM9.69138 16.3328C9.52358 16.3325 9.35553 16.3381 9.18807 16.33C9.07887 16.3247 9.04819 16.3674 9.04904 16.4785C9.05312 17.0107 9.04998 17.5429 9.0504 18.0752C9.05043 18.1144 9.03874 18.1577 9.07671 18.1964C9.43851 18.1964 9.80498 18.196 10.1714 18.1968C10.2441 18.197 10.264 18.1558 10.2638 18.0875C10.2627 17.5389 10.262 16.9903 10.2635 16.4417C10.2637 16.3625 10.2344 16.3315 10.1597 16.3329C10.0114 16.3356 9.86311 16.3332 9.69138 16.3328Z" fill="black"/>
</g>
<g filter="url(#filter2_g_3646_24451)">
<path d="M11.8648 15.7378C11.8645 18.3853 11.8642 21.0204 11.8636 23.6556C11.8636 23.8605 11.8136 23.9113 11.6215 23.9082C11.4677 23.9058 11.4026 23.8397 11.416 23.6814C11.4304 23.5094 11.427 23.3375 11.4271 23.1656C11.4283 20.7767 11.4285 18.3878 11.4284 15.9989C11.4284 14.8557 11.4272 13.7124 11.4264 12.5692C11.4264 12.5247 11.4156 12.4756 11.4689 12.4539C11.5142 12.4354 11.5425 12.4694 11.5712 12.496C12.2531 13.1276 12.9355 13.7585 13.6159 14.3917C14.089 14.8321 14.5598 15.2752 15.0301 15.7189C15.0968 15.7818 15.1491 15.7951 15.2167 15.7176C15.6252 15.2496 16.0355 14.7833 16.4471 14.3183C17.0552 13.6312 17.6645 12.9452 18.2741 12.2595C18.9371 11.5137 19.6012 10.769 20.2644 10.0234C20.2931 9.99104 20.3175 9.95451 20.3502 9.9118C20.2613 9.86789 20.1741 9.87498 20.0926 9.87451C19.3975 9.87048 18.7024 9.87327 18.0073 9.87004C17.9057 9.86957 17.8326 9.905 17.7615 9.98113C17.0537 10.7383 16.3424 11.4919 15.6331 12.2475C15.4632 12.4284 15.298 12.6141 15.1289 12.7958C14.9853 12.9502 14.8588 12.9526 14.7151 12.7999C14.0295 12.0711 13.3476 11.3384 12.659 10.6128C12.4007 10.3405 12.1693 10.0379 11.861 9.82011C11.4924 9.55973 11.0952 9.4025 10.6432 9.41796C10.4051 9.4261 10.1667 9.42162 9.92841 9.42049C9.79867 9.41988 9.77364 9.39082 9.77131 9.25254C9.76653 8.96866 9.76664 8.96411 10.0407 8.97174C10.3528 8.98044 10.6653 8.95449 10.9772 8.98936C11.5424 9.05257 12.0261 9.29956 12.4271 9.71529C12.9214 10.2277 13.4051 10.7514 13.893 11.2706C14.1998 11.5971 14.5086 11.9217 14.8109 12.2528C14.8939 12.3436 14.945 12.3378 15.0266 12.2498C15.5656 11.6685 16.1093 11.0921 16.6517 10.5142C16.961 10.1847 17.2717 9.85645 17.5792 9.52506C17.6464 9.45269 17.7197 9.41675 17.8168 9.41679C18.9534 9.41724 20.0901 9.41534 21.2267 9.41499C21.2674 9.41498 21.3141 9.40106 21.3463 9.44784C21.3395 9.51016 21.2917 9.54406 21.2555 9.58491C20.4109 10.5391 19.5662 11.4933 18.7205 12.4466C18.0823 13.1659 17.4416 13.8828 16.8042 14.6029C16.3261 15.143 15.8513 15.6863 15.3753 16.2285C15.2305 16.3934 15.1028 16.4009 14.9425 16.251C14.2576 15.6107 13.5727 14.9705 12.8884 14.3296C12.6002 14.0595 12.3138 13.7873 12.0258 13.517C11.9827 13.4766 11.935 13.4415 11.8648 13.3837C11.8648 14.1821 11.8648 14.9538 11.8648 15.7378Z" fill="black"/>
</g>
<g filter="url(#filter3_g_3646_24451)">
<path d="M19.3594 8.80419C18.4729 8.80321 17.5981 8.80377 16.7234 8.80145C16.2204 8.80012 15.7175 8.79145 15.2145 8.79101C14.743 8.79061 14.2715 8.79673 13.7999 8.79994C13.7298 8.80042 13.6594 8.80556 13.591 8.78131C13.4691 8.73811 13.3985 8.64577 13.4093 8.5419C13.4209 8.42906 13.5227 8.33931 13.6512 8.33602C13.7995 8.33223 13.9484 8.32682 14.0963 8.33557C14.2085 8.34221 14.2563 8.30361 14.2698 8.18324C14.3208 7.73037 14.4218 7.2911 14.5975 6.87088C14.8104 6.3616 15.1079 5.91587 15.4826 5.52516C15.9773 5.0094 16.5616 4.65041 17.2301 4.44735C17.4763 4.37259 17.7282 4.31341 17.986 4.3007C18.0806 4.29603 18.1061 4.25485 18.1003 4.16243C18.0928 4.04405 18.0966 3.92491 18.0946 3.80611C18.093 3.71072 18.136 3.65993 18.2275 3.65785C18.6039 3.6493 18.5674 3.63215 18.5657 3.97419C18.5643 4.27112 18.5653 4.26684 18.8553 4.30253C19.4846 4.37999 20.0693 4.59849 20.6089 4.94387C21.2316 5.34244 21.7128 5.88649 22.0766 6.54815C22.2887 6.93383 22.4409 7.34399 22.5395 7.77572C22.5712 7.91413 22.5871 8.05692 22.6037 8.19855C22.6152 8.29608 22.6507 8.34203 22.7533 8.33635C22.9169 8.32728 23.0813 8.33075 23.2453 8.3333C23.4115 8.3359 23.503 8.41889 23.5088 8.56493C23.5139 8.69413 23.4148 8.79443 23.2569 8.79732C23.0036 8.80196 22.7502 8.79265 22.4968 8.79318C22.1887 8.79383 21.8807 8.80032 21.5727 8.80119C20.8388 8.80327 20.105 8.80353 19.3594 8.80419ZM14.697 8.19452C14.6685 8.30204 14.7049 8.34944 14.8127 8.33622C14.8512 8.3315 14.8907 8.33509 14.9297 8.33508C16.554 8.33475 18.1782 8.3344 19.8024 8.33416C20.5442 8.33405 21.2861 8.33193 22.0279 8.33644C22.1454 8.33716 22.1841 8.29231 22.1635 8.17802C22.1433 8.06579 22.1271 7.95241 22.1001 7.84197C21.9525 7.2389 21.698 6.69195 21.3213 6.2081C20.8546 5.60867 20.2691 5.19075 19.5744 4.93802C19.1192 4.77238 18.6511 4.71936 18.1702 4.749C17.7726 4.77351 17.3894 4.85879 17.021 5.01057C16.3371 5.29237 15.7928 5.7636 15.368 6.38908C15.0039 6.92526 14.7743 7.51778 14.697 8.19452Z" fill="black"/>
<path d="M19.3594 8.80419C18.4729 8.80321 17.5981 8.80377 16.7234 8.80145C16.2204 8.80012 15.7175 8.79145 15.2145 8.79101C14.743 8.79061 14.2715 8.79673 13.7999 8.79994C13.7298 8.80042 13.6594 8.80556 13.591 8.78131C13.4691 8.73811 13.3985 8.64577 13.4093 8.5419C13.4209 8.42906 13.5227 8.33931 13.6512 8.33602C13.7995 8.33223 13.9484 8.32682 14.0963 8.33557C14.2085 8.34221 14.2563 8.30361 14.2698 8.18324C14.3208 7.73037 14.4218 7.2911 14.5975 6.87088C14.8104 6.3616 15.1079 5.91587 15.4826 5.52516C15.9773 5.0094 16.5616 4.65041 17.2301 4.44735C17.4763 4.37259 17.7282 4.31341 17.986 4.3007C18.0806 4.29603 18.1061 4.25485 18.1003 4.16243C18.0928 4.04405 18.0966 3.92491 18.0946 3.80611C18.093 3.71072 18.136 3.65993 18.2275 3.65785C18.6039 3.6493 18.5674 3.63215 18.5657 3.97419C18.5643 4.27112 18.5653 4.26684 18.8553 4.30253C19.4846 4.37999 20.0693 4.59849 20.6089 4.94387C21.2316 5.34244 21.7128 5.88649 22.0766 6.54815C22.2887 6.93383 22.4409 7.34399 22.5395 7.77572C22.5712 7.91413 22.5871 8.05692 22.6037 8.19855C22.6152 8.29608 22.6507 8.34203 22.7533 8.33635C22.9169 8.32728 23.0813 8.33075 23.2453 8.3333C23.4115 8.3359 23.503 8.41889 23.5088 8.56493C23.5139 8.69413 23.4148 8.79443 23.2569 8.79732C23.0036 8.80196 22.7502 8.79265 22.4968 8.79318C22.1887 8.79383 21.8807 8.80032 21.5727 8.80119C20.8388 8.80327 20.105 8.80353 19.3594 8.80419ZM14.697 8.19452C14.6685 8.30204 14.7049 8.34944 14.8127 8.33622C14.8512 8.3315 14.8907 8.33509 14.9297 8.33508C16.554 8.33475 18.1782 8.3344 19.8024 8.33416C20.5442 8.33405 21.2861 8.33193 22.0279 8.33644C22.1454 8.33716 22.1841 8.29231 22.1635 8.17802C22.1433 8.06579 22.1271 7.95241 22.1001 7.84197C21.9525 7.2389 21.698 6.69195 21.3213 6.2081C20.8546 5.60867 20.2691 5.19075 19.5744 4.93802C19.1192 4.77238 18.6511 4.71936 18.1702 4.749C17.7726 4.77351 17.3894 4.85879 17.021 5.01057C16.3371 5.29237 15.7928 5.7636 15.368 6.38908C15.0039 6.92526 14.7743 7.51778 14.697 8.19452Z" fill="black" fill-opacity="0.2"/>
</g>
<g filter="url(#filter4_g_3646_24451)">
<path d="M4.12976 5.69851C3.83539 5.22816 3.65905 4.7286 3.62 4.16897C3.53892 3.0069 3.95791 2.08353 4.81396 1.37298C5.21191 1.04266 5.68044 0.871477 6.18727 0.797405C7.04992 0.671326 7.81076 0.912175 8.48426 1.4686C8.98461 1.88197 9.33992 2.41407 9.50943 3.06042C9.7864 4.11649 9.6102 5.0949 8.95555 5.95086C8.5078 6.5363 7.92548 6.93422 7.20922 7.0569C5.93296 7.27548 4.91202 6.81956 4.14937 5.72488C4.14476 5.71827 4.1398 5.71194 4.12976 5.69851ZM7.26955 6.55885C8.03036 6.34748 8.57096 5.85376 8.91625 5.12243C9.19708 4.52762 9.25128 3.90426 9.09157 3.25988C8.90762 2.5177 8.48645 1.96681 7.86091 1.5862C7.38778 1.29833 6.8768 1.20035 6.32927 1.25291C5.76879 1.30672 5.29068 1.53493 4.88373 1.93046C4.04383 2.74679 3.82639 4.02814 4.31721 5.09775C4.55148 5.60826 4.90847 6.0137 5.38205 6.28907C5.96821 6.62989 6.5942 6.72155 7.26955 6.55885Z" fill="black"/>
</g>
<g filter="url(#filter5_g_3646_24451)">
<path d="M6.24849 9.55846C5.75132 9.73191 5.26286 9.90217 4.77423 10.0719C4.57802 10.1401 4.47142 10.0595 4.47144 9.84422C4.47148 9.13121 4.47135 8.41819 4.47188 7.70518C4.47203 7.50996 4.56329 7.43236 4.74144 7.49109C5.10212 7.60999 5.45983 7.73872 5.81944 7.86123C6.07514 7.94834 6.3322 8.03107 6.58801 8.11785C6.63175 8.13268 6.66999 8.12768 6.71293 8.11466C7.2825 7.94185 7.83753 7.72222 8.40352 7.53796C8.45196 7.52219 8.49996 7.50469 8.54895 7.49112C8.73211 7.44038 8.83371 7.51366 8.83378 7.71039C8.83389 8.06668 8.83778 8.42294 8.82613 8.77941C8.81517 9.11464 8.82328 9.45057 8.82307 9.78619C8.82306 9.81074 8.82477 9.83535 8.82367 9.85983C8.8146 10.0619 8.70625 10.139 8.52604 10.0749C8.07529 9.91463 7.62419 9.75549 7.17306 9.59642C7.04375 9.55082 6.91294 9.50968 6.78456 9.4614C6.68783 9.42502 6.59475 9.43058 6.5003 9.46622C6.41954 9.4967 6.33821 9.52551 6.24849 9.55846ZM7.45027 8.34623C7.22111 8.42712 6.99163 8.50706 6.76296 8.58944C6.68636 8.61704 6.61261 8.62206 6.5345 8.59412C6.099 8.43835 5.66365 8.28199 5.22623 8.13233C5.13637 8.10158 5.04913 8.04695 4.93769 8.05856C4.93769 8.54692 4.93769 9.03053 4.93769 9.51266C4.98548 9.52412 5.0174 9.5071 5.05013 9.49559C5.54896 9.32012 6.04797 9.14524 6.54629 8.96821C6.61194 8.94489 6.67544 8.93775 6.74084 8.96061C7.12552 9.09506 7.5099 9.23047 7.8947 9.36458C8.05209 9.41943 8.21027 9.4718 8.37215 9.52669C8.38007 9.49489 8.38727 9.47943 8.38727 9.46397C8.38734 9.02155 8.3863 8.57913 8.3865 8.13671C8.38653 8.05093 8.3479 8.04405 8.2809 8.06717C8.01057 8.16045 7.73933 8.25085 7.45027 8.34623Z" fill="black"/>
</g>
<g filter="url(#filter6_g_3646_24451)">
<path d="M17.7223 5.53103C17.7405 5.53084 17.7483 5.53095 17.7561 5.53061C18.0137 5.51957 18.0869 5.61771 18.0262 5.88982C18.0097 5.96369 17.9636 5.97867 17.898 5.98676C17.6338 6.01933 17.3767 6.0763 17.145 6.22714C16.7169 6.50586 16.4741 6.91113 16.3884 7.42572C16.3646 7.56878 16.3277 7.60651 16.1874 7.60577C16.1406 7.60553 16.0934 7.60551 16.0471 7.59934C15.9435 7.58553 15.8943 7.51832 15.9147 7.41047C16.0875 6.49527 16.5631 5.85784 17.4392 5.59195C17.5283 5.56492 17.621 5.55109 17.7223 5.53103Z" fill="black"/>
</g>
<defs>
<filter id="filter0_g_3646_24451" x="14.1333" y="4.36689" width="8.4" height="4.16636" filterUnits="userSpaceOnUse" color-interpolation-filters="sRGB">
<feFlood flood-opacity="0" result="BackgroundImageFix"/>
<feBlend mode="normal" in="SourceGraphic" in2="BackgroundImageFix" result="shape"/>
<feTurbulence type="fractalNoise" baseFrequency="5 5" numOctaves="3" seed="9540" />
<feDisplacementMap in="shape" scale="0.40000000596046448" xChannelSelector="R" yChannelSelector="G" result="displacedImage" width="100%" height="100%" />
<feMerge result="effect1_texture_3646_24451">
<feMergeNode in="displacedImage"/>
</feMerge>
</filter>
<filter id="filter1_g_3646_24451" x="0.641064" y="8.84468" width="10.2586" height="15.2655" filterUnits="userSpaceOnUse" color-interpolation-filters="sRGB">
<feFlood flood-opacity="0" result="BackgroundImageFix"/>
<feBlend mode="normal" in="SourceGraphic" in2="BackgroundImageFix" result="shape"/>
<feTurbulence type="fractalNoise" baseFrequency="5 5" numOctaves="3" seed="9540" />
<feDisplacementMap in="shape" scale="0.40000000596046448" xChannelSelector="R" yChannelSelector="G" result="displacedImage" width="100%" height="100%" />
<feMerge result="effect1_texture_3646_24451">
<feMergeNode in="displacedImage"/>
</feMerge>
</filter>
<filter id="filter2_g_3646_24451" x="9.57026" y="8.76997" width="11.9759" height="15.3385" filterUnits="userSpaceOnUse" color-interpolation-filters="sRGB">
<feFlood flood-opacity="0" result="BackgroundImageFix"/>
<feBlend mode="normal" in="SourceGraphic" in2="BackgroundImageFix" result="shape"/>
<feTurbulence type="fractalNoise" baseFrequency="5 5" numOctaves="3" seed="9540" />
<feDisplacementMap in="shape" scale="0.40000000596046448" xChannelSelector="R" yChannelSelector="G" result="displacedImage" width="100%" height="100%" />
<feMerge result="effect1_texture_3646_24451">
<feMergeNode in="displacedImage"/>
</feMerge>
</filter>
<filter id="filter3_g_3646_24451" x="13.2082" y="3.45454" width="10.5008" height="5.54966" filterUnits="userSpaceOnUse" color-interpolation-filters="sRGB">
<feFlood flood-opacity="0" result="BackgroundImageFix"/>
<feBlend mode="normal" in="SourceGraphic" in2="BackgroundImageFix" result="shape"/>
<feTurbulence type="fractalNoise" baseFrequency="5 5" numOctaves="3" seed="9540" />
<feDisplacementMap in="shape" scale="0.40000000596046448" xChannelSelector="R" yChannelSelector="G" result="displacedImage" width="100%" height="100%" />
<feMerge result="effect1_texture_3646_24451">
<feMergeNode in="displacedImage"/>
</feMerge>
</filter>
<filter id="filter4_g_3646_24451" x="3.41011" y="0.564648" width="6.42563" height="6.74546" filterUnits="userSpaceOnUse" color-interpolation-filters="sRGB">
<feFlood flood-opacity="0" result="BackgroundImageFix"/>
<feBlend mode="normal" in="SourceGraphic" in2="BackgroundImageFix" result="shape"/>
<feTurbulence type="fractalNoise" baseFrequency="5 5" numOctaves="3" seed="9540" />
<feDisplacementMap in="shape" scale="0.40000000596046448" xChannelSelector="R" yChannelSelector="G" result="displacedImage" width="100%" height="100%" />
<feMerge result="effect1_texture_3646_24451">
<feMergeNode in="displacedImage"/>
</feMerge>
</filter>
<filter id="filter5_g_3646_24451" x="4.27144" y="7.27192" width="4.76304" height="3.025" filterUnits="userSpaceOnUse" color-interpolation-filters="sRGB">
<feFlood flood-opacity="0" result="BackgroundImageFix"/>
<feBlend mode="normal" in="SourceGraphic" in2="BackgroundImageFix" result="shape"/>
<feTurbulence type="fractalNoise" baseFrequency="5 5" numOctaves="3" seed="9540" />
<feDisplacementMap in="shape" scale="0.40000000596046448" xChannelSelector="R" yChannelSelector="G" result="displacedImage" width="100%" height="100%" />
<feMerge result="effect1_texture_3646_24451">
<feMergeNode in="displacedImage"/>
</feMerge>
</filter>
<filter id="filter6_g_3646_24451" x="15.7102" y="5.32979" width="2.53599" height="2.47593" filterUnits="userSpaceOnUse" color-interpolation-filters="sRGB">
<feFlood flood-opacity="0" result="BackgroundImageFix"/>
<feBlend mode="normal" in="SourceGraphic" in2="BackgroundImageFix" result="shape"/>
<feTurbulence type="fractalNoise" baseFrequency="5 5" numOctaves="3" seed="9540" />
<feDisplacementMap in="shape" scale="0.40000000596046448" xChannelSelector="R" yChannelSelector="G" result="displacedImage" width="100%" height="100%" />
<feMerge result="effect1_texture_3646_24451">
<feMergeNode in="displacedImage"/>
</feMerge>
</filter>
</defs>
</svg>
