<svg width="34" height="34" viewBox="0 0 34 34" fill="none" xmlns="http://www.w3.org/2000/svg">
<path fill-rule="evenodd" clip-rule="evenodd" d="M15.3822 26.9358C16.2743 28.9714 16.7203 31.1463 16.7203 33.4607C16.7203 31.1463 17.152 28.9714 18.016 26.9358C18.9074 24.9003 20.1058 23.1297 21.6105 21.624C23.1158 20.1182 24.8849 18.9332 26.9192 18.0688C28.9535 17.1765 31.1275 16.7304 33.44 16.7304C31.1275 16.7304 28.9535 16.2982 26.9192 15.4337C24.8849 14.5415 23.1158 13.3425 21.6105 11.8368C20.1058 10.331 18.9074 8.56038 18.016 6.52483C17.152 4.48931 16.7203 2.31436 16.7203 0C16.7203 2.31436 16.2743 4.48931 15.3822 6.52483C14.5189 8.56038 13.3342 10.331 11.8296 11.8368C10.3249 13.3425 8.5551 14.5415 6.52082 15.4337C4.48653 16.2982 2.31314 16.7304 0 16.7304C2.31314 16.7304 4.48653 17.1765 6.52082 18.0688C8.5551 18.9332 10.3249 20.1182 11.8296 21.624C13.3342 23.1297 14.5189 24.9003 15.3822 26.9358Z" fill="url(#paint0_linear_2833_3547)"/>
<defs>
<linearGradient id="paint0_linear_2833_3547" x1="-4.30928" y1="-3.34607" x2="16.1193" y2="29.9947" gradientUnits="userSpaceOnUse">
<stop stop-color="#9B51E0"/>
<stop offset="1" stop-color="#9B51E0" stop-opacity="0.2"/>
</linearGradient>
</defs>
</svg>
