<svg width="39" height="49" viewBox="0 0 39 49" fill="none" xmlns="http://www.w3.org/2000/svg">
<path d="M19.3333 0L19.6161 0.0169166C20.1555 0.0805326 20.6578 0.324025 21.0419 0.70811C21.426 1.0922 21.6695 1.59448 21.7331 2.13392L21.75 2.41667V12.0833L21.7621 12.4458C21.8486 13.5966 22.3439 14.6784 23.1586 15.4957C23.9732 16.3131 25.0535 16.8119 26.2039 16.9022L26.5833 16.9167H36.25L36.5327 16.9336C37.0722 16.9972 37.5745 17.2407 37.9586 17.6248C38.3426 18.0089 38.5861 18.5111 38.6497 19.0506L38.6667 19.3333V41.0833C38.6668 42.9326 37.9602 44.712 36.6916 46.0575C35.4229 47.4029 33.6881 48.2128 31.842 48.3213L31.4167 48.3333H7.25C5.40074 48.3334 3.62134 47.6269 2.27587 46.3582C0.9304 45.0896 0.120573 43.3547 0.0120836 41.5087L1.12627e-08 41.0833V7.25C-0.000103002 5.40074 0.706452 3.62134 1.9751 2.27587C3.24375 0.9304 4.97859 0.120573 6.82467 0.0120836L7.25 0H19.3333ZM28.2919 24.8748C27.8387 24.4217 27.2241 24.1672 26.5833 24.1672C25.9425 24.1672 25.3279 24.4217 24.8747 24.8748L16.9167 32.8304L13.7919 29.7081C13.569 29.4773 13.3023 29.2932 13.0075 29.1665C12.7126 29.0399 12.3955 28.9732 12.0746 28.9704C11.7538 28.9676 11.4355 29.0288 11.1385 29.1503C10.8415 29.2718 10.5717 29.4512 10.3448 29.6781C10.1179 29.905 9.93844 30.1749 9.81693 30.4719C9.69542 30.7689 9.63427 31.0871 9.63706 31.408C9.63985 31.7289 9.70652 32.046 9.83317 32.3408C9.95983 32.6357 10.1439 32.9023 10.3748 33.1253L15.2081 37.9586C15.6613 38.4116 16.2759 38.6662 16.9167 38.6662C17.5575 38.6662 18.1721 38.4116 18.6252 37.9586L28.2919 28.2919C28.745 27.8387 28.9995 27.2241 28.9995 26.5833C28.9995 25.9425 28.745 25.3279 28.2919 24.8748ZM26.5833 2.41425L36.25 12.0833H26.5833V2.41425Z" fill="url(#paint0_linear_2999_4024)"/>
<defs>
<linearGradient id="paint0_linear_2999_4024" x1="-4.98282" y1="-4.83333" x2="26.9883" y2="36.9358" gradientUnits="userSpaceOnUse">
<stop stop-color="#15607F"/>
<stop offset="1" stop-color="#15607F" stop-opacity="0.2"/>
</linearGradient>
</defs>
</svg>
