<svg width="153" height="30" viewBox="0 0 153 30" fill="none" xmlns="http://www.w3.org/2000/svg">
<path d="M149.157 11.7593L152.414 11.7593V15.367L149.157 15.367C148.366 15.367 147.691 16.0422 147.691 16.8139V23.7978H144.083V16.8139C144.083 14.0165 146.359 11.7593 149.157 11.7593Z" fill="#3E1268"/>
<path d="M138.897 11.7593L142.154 11.7593V15.367L138.897 15.367C138.106 15.367 137.43 16.0422 137.43 16.8139V23.7978H133.823V16.8139C133.823 14.0165 136.099 11.7593 138.897 11.7593Z" fill="#3E1268"/>
<path d="M128.821 16.5088C128.821 15.8697 128.25 14.9465 126.467 14.9465C125.111 14.9465 124.398 15.4909 124.112 16.5088H128.821ZM120.64 17.6923C120.64 13.2423 123.327 11.6327 126.49 11.6327C130.224 11.6327 131.817 13.5736 131.817 16.0117C131.817 17.5029 131.556 18.213 131.056 18.6391H124.088C124.445 20.0119 125.61 20.4854 127.37 20.4854C129.13 20.4854 131.128 19.8699 131.817 19.2782V23.1127C130.795 23.5625 129.178 23.7992 127.37 23.7992C123.327 23.7992 120.64 22.1896 120.64 17.6923Z" fill="#3E1268"/>
<path d="M105.468 8.17072H109.076V12.4252C112.973 10.631 118.683 12.5602 118.683 18.155V23.8077H115.076V18.155C115.076 14.3737 109.114 14.3737 109.114 18.155V23.8077H105.468V8.17072Z" fill="#3E1268"/>
<path d="M103.519 19.8982V23.6217C99.5445 24.3548 94.8372 22.4641 94.8372 17.7954V8.20178H98.4641V12.3742H103.056V16.0012H98.4641V17.7954C98.4641 19.9754 101.474 20.5928 103.519 19.8982Z" fill="#3E1268"/>
<path d="M92.8154 16.3895C92.8154 17.6242 92.8154 18.8589 92.8154 20.1129C92.8154 21.1161 92.3717 22.0422 91.6964 22.7174C91.0019 23.3926 90.0758 23.7978 88.9762 23.7978C85.9473 23.7978 86.3524 23.7978 84.0566 23.7978C82.9955 23.7978 82.0502 23.3926 81.3364 22.7174C79.8701 21.2705 79.8701 18.7431 81.3364 17.2769C82.0502 16.621 82.9955 16.2158 84.0566 16.2158C86.9119 16.2158 86.2174 16.2158 89.1305 16.2158C88.9955 15.6371 88.4553 15.1933 87.8186 15.1933H82.0888V11.7786H87.8186C90.4617 11.7786 92.661 13.8236 92.8154 16.3895ZM84.3267 20.711C86.5067 20.711 85.465 20.711 88.3974 20.711C88.8797 20.711 89.2849 20.3444 89.2849 19.8428V18.9747C86.6997 18.9747 86.6611 18.9747 84.3267 18.9747C83.1499 18.9747 83.1499 20.711 84.3267 20.711Z" fill="#3E1268"/>
<path d="M71.8888 11.5857C72.6412 11.5857 73.3743 11.7014 74.0495 11.9715C76.6518 12.9069 78.3131 15.3477 78.3131 17.7593C78.3131 19.9586 77.0398 21.83 75.3614 22.949H77.8887V24.666C77.8887 27.3862 75.6508 29.6241 72.9305 29.6241H67.2586V26.0165H72.9305C73.683 26.0165 74.281 25.3991 74.281 24.666V23.4698C73.5479 23.7592 72.7183 23.9329 71.8888 23.9329C68.4161 23.9329 65.4258 21.1355 65.4258 17.7593C65.4258 14.2095 68.609 11.5857 71.8888 11.5857ZM71.8888 15.2127C70.4225 15.2127 69.0528 16.2931 69.0528 17.7593C69.0528 19.3027 70.4997 20.3059 71.8888 20.3059C73.355 20.3059 74.6669 19.2062 74.6669 17.7593C74.6669 16.2352 73.2778 15.2127 71.8888 15.2127Z" fill="#3E1268"/>
<mask id="path-8-outside-1_3338_315" maskUnits="userSpaceOnUse" x="40.816" y="7.05969" width="23" height="17" fill="black">
<rect fill="white" x="40.816" y="7.05969" width="23" height="17"/>
<path d="M48.2945 14.0856L47.8671 17.077H44.2347V20.0683H50.4312V23.0597H41.2434V10.2395C41.2434 8.85069 41.9912 8.10285 43.3801 8.10285H50.4312V11.0942H44.9612C44.4698 11.0942 44.2347 11.5216 44.2347 11.9489V14.0856H48.2945ZM52.9893 23.0597V21.9913L57.7114 11.0942H53.9936V8.10285H62.1771V9.19256L57.4337 20.0683H63.0318V23.0597H52.9893Z"/>
</mask>
<path d="M48.2945 14.0856L47.8671 17.077H44.2347V20.0683H50.4312V23.0597H41.2434V10.2395C41.2434 8.85069 41.9912 8.10285 43.3801 8.10285H50.4312V11.0942H44.9612C44.4698 11.0942 44.2347 11.5216 44.2347 11.9489V14.0856H48.2945ZM52.9893 23.0597V21.9913L57.7114 11.0942H53.9936V8.10285H62.1771V9.19256L57.4337 20.0683H63.0318V23.0597H52.9893Z" fill="#3E1268"/>
<path d="M48.2945 14.0856L48.6025 14.1296L48.6532 13.7744H48.2945V14.0856ZM47.8671 17.077V17.3881H48.137L48.1752 17.121L47.8671 17.077ZM44.2347 17.077V16.7658H43.9236V17.077H44.2347ZM44.2347 20.0683H43.9236V20.3795H44.2347V20.0683ZM50.4312 20.0683H50.7423V19.7572H50.4312V20.0683ZM50.4312 23.0597V23.3709H50.7423V23.0597H50.4312ZM41.2434 23.0597H40.9322V23.3709H41.2434V23.0597ZM50.4312 8.10285H50.7423V7.79168H50.4312V8.10285ZM50.4312 11.0942V11.4054H50.7423V11.0942H50.4312ZM44.2347 14.0856H43.9236V14.3968H44.2347V14.0856ZM48.2945 14.0856L47.9864 14.0416L47.5591 17.0329L47.8671 17.077L48.1752 17.121L48.6025 14.1296L48.2945 14.0856ZM47.8671 17.077V16.7658H44.2347V17.077V17.3881H47.8671V17.077ZM44.2347 17.077H43.9236V20.0683H44.2347H44.5459V17.077H44.2347ZM44.2347 20.0683V20.3795H50.4312V20.0683V19.7572H44.2347V20.0683ZM50.4312 20.0683H50.12V23.0597H50.4312H50.7423V20.0683H50.4312ZM50.4312 23.0597V22.7485H41.2434V23.0597V23.3709H50.4312V23.0597ZM41.2434 23.0597H41.5545V10.2395H41.2434H40.9322V23.0597H41.2434ZM41.2434 10.2395H41.5545C41.5545 9.59893 41.7263 9.15505 42.0109 8.87041C42.2956 8.58577 42.7395 8.41402 43.3801 8.41402V8.10285V7.79168C42.6318 7.79168 42.0074 7.99385 41.5709 8.43035C41.1344 8.86684 40.9322 9.4913 40.9322 10.2395H41.2434ZM43.3801 8.10285V8.41402H50.4312V8.10285V7.79168H43.3801V8.10285ZM50.4312 8.10285H50.12V11.0942H50.4312H50.7423V8.10285H50.4312ZM50.4312 11.0942V10.7831H44.9612V11.0942V11.4054H50.4312V11.0942ZM44.9612 11.0942V10.7831C44.6129 10.7831 44.3408 10.9398 44.1648 11.1746C43.9959 11.3998 43.9236 11.6832 43.9236 11.9489H44.2347H44.5459C44.5459 11.7872 44.5912 11.6433 44.6626 11.548C44.7269 11.4623 44.8181 11.4054 44.9612 11.4054V11.0942ZM44.2347 11.9489H43.9236V14.0856H44.2347H44.5459V11.9489H44.2347ZM44.2347 14.0856V14.3968H48.2945V14.0856V13.7744H44.2347V14.0856ZM52.9893 23.0597H52.6782V23.3709H52.9893V23.0597ZM52.9893 21.9913L52.7038 21.8676L52.6782 21.9268V21.9913H52.9893ZM57.7114 11.0942L57.9969 11.2179L58.1854 10.7831H57.7114V11.0942ZM53.9936 11.0942H53.6824V11.4054H53.9936V11.0942ZM53.9936 8.10285V7.79168H53.6824V8.10285H53.9936ZM62.1771 8.10285H62.4883V7.79168H62.1771V8.10285ZM62.1771 9.19256L62.4623 9.31696L62.4883 9.25747V9.19256H62.1771ZM57.4337 20.0683L57.1484 19.9439L56.9585 20.3795H57.4337V20.0683ZM63.0318 20.0683H63.343V19.7572H63.0318V20.0683ZM63.0318 23.0597V23.3709H63.343V23.0597H63.0318ZM52.9893 23.0597H53.3005V21.9913H52.9893H52.6782V23.0597H52.9893ZM52.9893 21.9913L53.2749 22.1151L57.9969 11.2179L57.7114 11.0942L57.4259 10.9705L52.7038 21.8676L52.9893 21.9913ZM57.7114 11.0942V10.7831H53.9936V11.0942V11.4054H57.7114V11.0942ZM53.9936 11.0942H54.3048V8.10285H53.9936H53.6824V11.0942H53.9936ZM53.9936 8.10285V8.41402H62.1771V8.10285V7.79168H53.9936V8.10285ZM62.1771 8.10285H61.8659V9.19256H62.1771H62.4883V8.10285H62.1771ZM62.1771 9.19256L61.8919 9.06816L57.1484 19.9439L57.4337 20.0683L57.7189 20.1927L62.4623 9.31696L62.1771 9.19256ZM57.4337 20.0683V20.3795H63.0318V20.0683V19.7572H57.4337V20.0683ZM63.0318 20.0683H62.7206V23.0597H63.0318H63.343V20.0683H63.0318ZM63.0318 23.0597V22.7485H52.9893V23.0597V23.3709H63.0318V23.0597Z" fill="#3E1268" mask="url(#path-8-outside-1_3338_315)"/>
<path d="M4.89689 27.0391L5.04368 21.014C5.05288 20.6362 5.25754 20.2902 5.58425 20.1002C6.2855 19.6923 7.17039 20.1677 7.21728 20.9776L7.41506 24.3935C7.50483 25.9438 8.98032 27.0317 10.4878 26.6591L13.7972 25.8411C14.5904 25.6451 15.3113 26.3548 15.1277 27.151C15.0445 27.5116 14.7801 27.8032 14.4294 27.9212L8.70509 29.8469C6.80529 30.4859 4.84807 29.0429 4.89689 27.0391Z" fill="#3E1268"/>
<path d="M11.8002 24.637C12.3682 23.8667 12.2041 22.7818 11.4338 22.2138C10.6635 21.6459 9.57858 21.8099 9.01063 22.5802C8.44267 23.3506 8.60672 24.4355 9.37704 25.0034C10.1474 25.5714 11.2322 25.4073 11.8002 24.637Z" fill="#3E1268"/>
<path d="M22.4695 29.8161L16.7773 27.8359C16.4203 27.7117 16.1534 27.4112 16.0722 27.042C15.898 26.2497 16.6211 25.5524 17.4066 25.7551L20.7196 26.6102C22.2232 26.9982 23.7098 25.9256 23.8155 24.3763L24.0475 20.9753C24.1031 20.1601 24.9992 19.6904 25.7012 20.1084C26.0191 20.2978 26.216 20.6386 26.2213 21.0087L26.3063 27.0476C26.3346 29.0518 24.3627 30.4747 22.4695 29.8161Z" fill="#3E1268"/>
<path d="M22.2909 22.509C21.7309 21.7329 20.6478 21.5577 19.8716 22.1177C19.0955 22.6777 18.9204 23.7609 19.4804 24.537C20.0404 25.3131 21.1235 25.4883 21.8996 24.9283C22.6758 24.3682 22.8509 23.2851 22.2909 22.509Z" fill="#3E1268"/>
<path d="M0.583782 13.868L4.21252 18.68C4.44008 18.9817 4.80797 19.1438 5.18422 19.1079C5.99182 19.031 6.43415 18.1291 6.00053 17.4435L4.17164 14.5517C3.34161 13.2393 3.90731 11.4955 5.34972 10.9203L8.51617 9.65761C9.2751 9.35496 9.44771 8.35806 8.83471 7.81787C8.55705 7.57319 8.1723 7.49016 7.81844 7.59855L2.04382 9.36753C0.12732 9.95462 -0.623066 12.2676 0.583782 13.868Z" fill="#3E1268"/>
<path d="M7.59428 11.7995C8.50463 12.0949 9.00321 13.0723 8.70787 13.9826C8.41253 14.893 7.43513 15.3916 6.52478 15.0962C5.61442 14.8009 5.11585 13.8235 5.41119 12.9131C5.70653 12.0028 6.68393 11.5042 7.59428 11.7995Z" fill="#3E1268"/>
<path d="M30.6158 13.8557L26.9909 18.6706C26.7636 18.9726 26.3958 19.1349 26.0196 19.0993C25.2119 19.0231 24.7688 18.1215 25.2019 17.4355L27.0285 14.5423C27.8575 13.2292 27.2904 11.4859 25.8475 10.9119L22.68 9.65169C21.9209 9.34965 21.7475 8.35289 22.36 7.81221C22.6375 7.5673 23.0222 7.48396 23.3761 7.59208L29.1522 9.35643C31.0691 9.94199 31.8214 12.2544 30.6158 13.8557Z" fill="#3E1268"/>
<path d="M23.6036 11.7929C22.6935 12.089 22.1957 13.0668 22.4918 13.9769C22.7879 14.887 23.7657 15.3848 24.6758 15.0887C25.5859 14.7926 26.0837 13.8148 25.7876 12.9047C25.4916 11.9946 24.5138 11.4968 23.6036 11.7929Z" fill="#3E1268"/>
<path d="M13.2334 1.23135L9.77603 6.16789C9.55921 6.47747 9.51862 6.87741 9.6688 7.22424C9.99116 7.96869 10.9856 8.11112 11.5039 7.48708L13.6902 4.85508C14.6825 3.66056 16.5157 3.66056 17.5079 4.85508L19.6861 7.47733C20.2082 8.10584 21.2097 7.96239 21.5344 7.21262C21.6814 6.873 21.6417 6.4814 21.4294 6.17827L17.9648 1.23135C16.8149 -0.41045 14.3832 -0.410451 13.2334 1.23135Z" fill="#3E1268"/>
<path d="M17.3642 7.26141C17.3642 8.21848 16.5884 8.99433 15.6313 8.99433C14.6743 8.99433 13.8984 8.21848 13.8984 7.26141C13.8984 6.30435 14.6743 5.5285 15.6313 5.5285C16.5884 5.5285 17.3642 6.30435 17.3642 7.26141Z" fill="#3E1268"/>
<ellipse cx="15.8251" cy="16.2856" rx="6.19555" ry="6.23095" fill="#FF3B30"/>
</svg>
