<svg width="52" height="52" viewBox="0 0 52 52" fill="none" xmlns="http://www.w3.org/2000/svg">
<rect width="52" height="52" rx="16" fill="#3E1268"/>
<circle cx="17.6847" cy="11.9718" r="7.90929" fill="#00CF66"/>
<circle cx="37.6547" cy="14.9376" r="7.3161" fill="#00B157"/>
<path d="M5.94786 37.4005L3.75724 27.3494C3.42763 25.8371 3.39134 24.0822 4.52642 23.0298C5.07497 22.5213 5.71944 22.275 6.61145 22.0561H28.7575C30.4922 22.524 31.1869 23.2678 31.7235 25.0221C32.0874 26.2121 30.5929 32.884 29.5938 37.0534C29.0785 39.2034 27.6006 41.0095 25.5641 41.8702C20.8077 43.8803 15.9844 45.0934 9.34797 41.9375C7.55029 41.0826 6.37175 39.3454 5.94786 37.4005Z" fill="#00CF66"/>
<path d="M44.7322 23.8354H34.4924C33.441 27.6442 33.0289 29.826 32.3174 33.7221L37.1148 29.2937C37.3068 29.1165 37.6044 29.1224 37.7891 29.3072L41.8985 33.4166C42.093 33.6111 42.3607 33.7142 42.6355 33.7005L45.5762 33.5535C45.9348 33.5355 46.2565 33.3221 46.4011 32.9935C47.3688 30.7943 47.5589 29.2729 47.7007 26.7569C47.7286 26.2624 47.7146 25.7529 47.5118 25.3011C47.3801 25.0077 47.2075 24.7599 46.9694 24.5311C46.3878 23.9724 45.5387 23.8354 44.7322 23.8354Z" fill="#FAC100"/>
<path d="M37.2607 31.7447L32.1196 36.8858H34.6902C33.7507 44.5057 28.5556 45.0149 18.8716 45.586C26.7809 51.3202 38.8425 47.9588 39.6335 37.2812H42.204L37.2607 31.7447Z" fill="#FAC100"/>
<path d="M44.8687 23.8354H34.35C33.2846 27.7488 32.8592 30.0107 32.1454 33.9718C32.1371 34.018 32.1921 34.0492 32.2263 34.0172L37.0458 29.5062C37.2384 29.3259 37.5397 29.3319 37.725 29.5198L41.9528 33.8068C42.1477 34.0045 42.4179 34.1095 42.6952 34.0954L45.7298 33.9416C46.09 33.9233 46.4125 33.708 46.5564 33.3773C47.5606 31.0691 47.753 29.4811 47.8991 26.8338C47.926 26.346 47.9106 25.8448 47.7187 25.3954C47.5789 25.0679 47.3929 24.7949 47.1308 24.5434C46.5419 23.9785 45.6848 23.8354 44.8687 23.8354Z" fill="#00B157"/>
</svg>
