<svg width="81" height="64" viewBox="0 0 81 64" fill="none" xmlns="http://www.w3.org/2000/svg">
<path d="M73.264 54.832C80.812 46.64 80.052 36.12 80.028 36V4C80.028 2.93913 79.6066 1.92172 78.8564 1.17157C78.1063 0.421428 77.0889 0 76.028 0H52.028C47.616 0 44.028 3.588 44.028 8V36C44.028 37.0609 44.4494 38.0783 45.1996 38.8284C45.9497 39.5786 46.9671 40 48.028 40H60.34C60.2537 41.9772 59.663 43.8995 58.624 45.584C56.592 48.788 52.764 50.976 47.24 52.08L44.028 52.72V64H48.028C59.16 64 67.652 60.916 73.264 54.832ZM29.236 54.832C36.788 46.64 36.024 36.12 36 36V4C36 2.93913 35.5786 1.92172 34.8284 1.17157C34.0783 0.421428 33.0609 0 32 0H8C3.588 0 0 3.588 0 8V36C0 37.0609 0.421427 38.0783 1.17157 38.8284C1.92172 39.5786 2.93913 40 4 40H16.312C16.2257 41.9772 15.635 43.8995 14.596 45.584C12.564 48.788 8.736 50.976 3.212 52.08L0 52.72V64H4C15.132 64 23.624 60.916 29.236 54.832Z" fill="url(#paint0_linear_878_783)" fill-opacity="0.26"/>
<defs>
<linearGradient id="paint0_linear_878_783" x1="73.4851" y1="64" x2="31.374" y2="-25.3017" gradientUnits="userSpaceOnUse">
<stop stop-color="#FF6F61" stop-opacity="0.2"/>
<stop offset="1" stop-color="#FF6F61"/>
</linearGradient>
</defs>
</svg>
