<svg width="174" height="173" viewBox="0 0 174 173" fill="none" xmlns="http://www.w3.org/2000/svg">
<g filter="url(#filter0_i_683_15299)">
<path d="M31.3486 128.495C31.3485 128.496 31.3484 128.496 31.3482 128.496C30.9708 129.086 30.5267 129.642 30.0068 130.123C29.7478 130.364 29.4748 130.59 29.1824 130.792C28.89 130.992 28.5838 131.172 28.2636 131.327C27.9935 131.459 27.7113 131.563 27.4254 131.656L27.3948 131.666C27.0895 131.765 26.9266 132.079 27.0321 132.368C27.0858 132.515 27.2005 132.628 27.3393 132.689C27.8149 132.897 28.2951 133.08 28.755 133.267C29.1556 133.43 29.5405 133.592 29.8976 133.776C30.2557 133.959 30.5823 134.17 30.8867 134.412C30.9626 134.472 31.0385 134.533 31.1097 134.6L31.2189 134.696C31.2541 134.729 31.2781 134.759 31.3077 134.79C31.3651 134.852 31.4252 134.908 31.4789 134.986C31.5335 135.06 31.5918 135.126 31.6436 135.206L31.799 135.446C31.8499 135.527 31.8962 135.614 31.9443 135.698L32.0165 135.825L32.0831 135.957L32.2163 136.222C32.555 136.943 32.8353 137.705 33.0703 138.477C33.1832 138.863 33.2933 139.252 33.3794 139.641C33.4654 140.029 33.5431 140.421 33.5811 140.791C33.6181 141.154 33.9595 141.419 34.3435 141.384C34.6359 141.357 34.869 141.164 34.9468 140.913L34.9486 140.905C35.0939 140.432 35.1855 139.982 35.2752 139.536L35.526 138.216C35.6629 137.501 35.8091 136.796 36.0117 136.137C36.1154 135.812 36.2366 135.499 36.3781 135.229L36.4901 135.042C36.5345 134.979 36.5835 134.913 36.6298 134.848C36.7297 134.721 36.8334 134.594 36.9499 134.474C37.1785 134.231 37.4348 134.001 37.7096 133.786C37.9862 133.573 38.2795 133.373 38.5849 133.187C39.1955 132.816 39.8552 132.501 40.5307 132.252C40.91 132.113 41.0979 131.708 40.9489 131.35C40.873 131.166 40.7231 131.03 40.5436 130.96L40.5371 130.957C40.0033 130.751 39.4703 130.544 38.9735 130.301C38.4674 130.067 38.002 129.793 37.5736 129.488L37.2599 129.252L36.9721 128.994C36.8713 128.912 36.7899 128.815 36.702 128.722C36.6178 128.627 36.5215 128.54 36.4494 128.435L36.2171 128.132C36.144 128.027 36.0802 127.915 36.0108 127.809L35.9081 127.646C35.8766 127.589 35.8489 127.531 35.8193 127.474L35.6425 127.129C35.34 126.469 35.0754 125.76 34.8496 125.044C34.7996 124.871 34.746 124.714 34.6886 124.573C34.6599 124.502 34.6303 124.435 34.5998 124.371C34.5915 124.352 34.5868 124.347 34.5804 124.339C34.5748 124.331 34.5683 124.323 34.5619 124.316C34.5489 124.301 34.535 124.287 34.5193 124.273C34.4582 124.217 34.374 124.16 34.2926 124.079C34.2103 124 34.1335 123.901 34.0724 123.797C33.8947 123.489 33.8707 123.305 33.7569 123.424C33.7291 123.455 33.6958 123.506 33.6588 123.587C33.6218 123.666 33.582 123.777 33.5533 123.919C33.5246 124.059 33.5108 124.229 33.5172 124.406C33.5191 124.449 33.5219 124.497 33.5246 124.538C33.5274 124.567 33.5293 124.598 33.532 124.629C33.5376 124.692 33.545 124.757 33.5542 124.824C33.5765 124.994 33.6033 125.167 33.6329 125.343C33.6644 125.518 33.7125 125.695 33.756 125.872C33.8365 126.227 33.9725 126.58 34.0946 126.921C34.1584 127.074 34.2288 127.226 34.2954 127.379L34.3962 127.608L34.5147 127.831C34.5961 127.98 34.6701 128.131 34.758 128.276L35.0365 128.706C35.4316 129.269 35.9099 129.785 36.4512 130.223L36.8676 130.537C37.0092 130.636 37.1563 130.725 37.3015 130.82C37.4449 130.918 37.5958 130.998 37.7457 131.081C37.8955 131.164 38.0436 131.253 38.1972 131.323L38.6533 131.549L39.1141 131.755L39.3445 131.857L39.5758 131.952C39.7972 132.043 40.0407 131.881 40.0419 131.642L40.0422 131.587C40.0435 131.329 39.7896 131.147 39.549 131.24C39.0195 131.445 38.5055 131.682 38.0066 131.951C37.5819 132.181 37.1581 132.437 36.7612 132.734C36.3642 133.03 35.9951 133.367 35.6934 133.75C35.5954 133.883 35.4927 134.009 35.4038 134.15C35.3585 134.221 35.3104 134.283 35.2678 134.361L35.1411 134.59C35.0948 134.667 35.0698 134.741 35.0337 134.817C35.0013 134.892 34.9643 134.968 34.9366 135.042C34.8848 135.191 34.8218 135.341 34.7793 135.488C34.5905 136.078 34.4629 136.658 34.3453 137.232C34.2297 137.807 34.1298 138.377 34.0271 138.938C33.9627 139.285 33.8983 139.632 33.8246 139.965C33.7563 140.275 33.9707 140.583 34.2863 140.609C34.6039 140.635 34.8652 140.363 34.8026 140.05C34.755 139.813 34.6991 139.581 34.6396 139.35C34.5073 138.843 34.3546 138.347 34.1853 137.854C34.0169 137.361 33.8328 136.872 33.6199 136.389C33.4071 135.906 33.1795 135.426 32.8871 134.959C32.74 134.726 32.5827 134.495 32.3931 134.269C32.3699 134.242 32.3486 134.213 32.3227 134.185L32.2422 134.102L32.0794 133.938C32.0248 133.883 31.9721 133.843 31.9175 133.796C31.8629 133.751 31.8111 133.704 31.7546 133.661C31.4595 133.422 31.1366 133.21 30.8025 133.024C30.4685 132.838 30.1243 132.682 29.7838 132.542C29.2435 132.323 28.7183 132.135 28.2117 131.928C28.0165 131.848 27.7966 131.979 27.7792 132.189C27.7612 132.404 27.9664 132.57 28.1693 132.494C28.6237 132.326 29.0581 132.115 29.4665 131.871C29.9985 131.547 30.4852 131.167 30.9265 130.75C31.3651 130.33 31.7565 129.87 32.1034 129.385C32.4495 128.9 32.7419 128.375 32.988 127.846C33.3017 127.166 33.5191 126.48 33.6597 125.813C33.8022 125.147 33.867 124.499 33.8679 123.884C33.8675 123.786 33.8578 123.704 33.8408 123.64C33.8233 123.573 33.7882 123.596 33.8149 123.66C33.8193 123.67 33.8261 123.68 33.8356 123.686C33.8547 123.699 33.8789 123.71 33.9031 123.716C33.9336 123.723 33.9623 123.723 33.9826 123.721C34.0237 123.717 34.0337 123.737 33.9952 123.752C33.993 123.753 33.9906 123.753 33.9882 123.754C33.9651 123.762 33.9318 123.769 33.8929 123.766C33.8838 123.765 33.8745 123.764 33.8651 123.762C33.8071 123.752 33.7677 123.702 33.7449 123.648C33.6988 123.537 33.5808 123.483 33.5096 123.579C33.4548 123.653 33.4001 123.762 33.3498 123.905C33.0509 124.761 32.7419 125.647 32.381 126.489C32.0882 127.178 31.7824 127.874 31.3772 128.488C31.3738 128.493 31.3676 128.496 31.3617 128.494C31.3594 128.494 31.357 128.493 31.3545 128.492C31.3521 128.492 31.3496 128.493 31.3486 128.495Z" fill="#FF3B30"/>
</g>
<g filter="url(#filter1_i_683_15299)">
<path d="M7.46482 145.832C7.46582 145.833 7.46632 145.834 7.46598 145.835C7.25617 146.481 7.0324 147.121 6.79931 147.752C6.7402 147.907 6.6811 148.071 6.62199 148.216C6.56289 148.353 6.51156 148.495 6.44623 148.63C6.32024 148.9 6.18181 149.166 6.02783 149.419C5.41033 150.44 4.55174 151.313 3.53606 151.995C2.67126 152.59 1.6929 153.052 0.675661 153.401C0.162376 153.578 -0.117599 154.161 0.0472736 154.703C0.128157 154.969 0.300806 155.175 0.513897 155.297L0.540342 155.311C0.754988 155.433 0.972744 155.544 1.17961 155.682C2.37261 156.442 3.44429 157.469 4.37598 158.621C5.30923 159.774 6.10248 161.065 6.7402 162.426C7.37636 163.787 7.8601 165.226 8.11518 166.685C8.29817 167.735 8.36205 168.799 8.26531 169.816C8.20455 170.454 8.59291 171.078 9.21963 171.213C9.85872 171.352 10.4835 170.929 10.5945 170.285C10.7719 169.254 10.9544 168.232 11.1638 167.227C11.4235 165.976 11.7191 164.745 12.0893 163.555C12.461 162.367 12.9058 161.218 13.4471 160.137C13.584 159.87 13.7287 159.603 13.8718 159.343C14.018 159.089 14.1688 158.84 14.3306 158.603C14.6526 158.125 15.0041 157.681 15.3836 157.292C16.1442 156.511 17.023 155.989 17.9236 155.862C18.6018 155.766 19.0793 155.105 18.9891 154.387C18.9362 153.97 18.706 153.625 18.3902 153.428L18.3809 153.423C17.5581 152.915 16.7975 152.31 16.1395 151.588C15.9685 151.415 15.8191 151.219 15.6589 151.035C15.5112 150.837 15.3556 150.647 15.2172 150.441C14.9294 150.039 14.6728 149.607 14.4348 149.162C13.4798 147.379 12.9074 145.322 12.5497 143.21C12.3179 141.827 12.0939 140.406 11.9306 138.994C11.8544 138.318 11.7408 137.759 11.5993 137.301C11.5793 137.236 11.5586 137.172 11.5371 137.111C11.4366 136.823 11.3478 136.526 11.1996 136.26C11.1327 136.134 11.058 136.042 10.9974 135.984C10.6489 135.703 10.9165 136.199 10.5012 136.601C10.4001 136.691 10.2523 136.723 10.1559 136.708C10.0861 136.706 10.0375 136.739 10.0199 136.806C10.0081 136.852 9.99674 136.898 9.98634 136.947C9.90546 137.295 9.85258 137.725 9.83547 138.229C9.79348 139.506 9.88991 140.909 10.089 142.226C10.2803 143.493 10.5261 144.755 10.8636 146.005C11.0331 146.628 11.2213 147.249 11.4438 147.859C11.6631 148.47 11.9088 149.075 12.1919 149.663C12.7503 150.843 13.4549 151.967 14.3042 152.968C14.7319 153.465 15.1907 153.934 15.6823 154.365C15.8951 154.548 16.1128 154.725 16.3351 154.894C16.755 155.214 17.3477 154.962 17.4451 154.443C17.5374 153.951 17.1237 153.513 16.6446 153.659C15.8876 153.889 15.1809 154.266 14.567 154.726C13.8313 155.275 13.178 155.936 12.6337 156.653C12.3568 157.01 12.1095 157.383 11.8855 157.764L11.7222 158.05C11.6724 158.146 11.6242 158.242 11.5744 158.337C11.4795 158.528 11.3815 158.718 11.2976 158.911C10.4187 160.88 9.80747 162.924 9.32685 164.962C8.84778 167.004 8.50248 169.05 8.18518 171.067L8.18207 171.087C8.08719 171.695 8.47449 172.272 9.04999 172.372C9.60371 172.469 10.1294 172.089 10.2523 171.515C10.4887 170.401 10.5525 169.271 10.467 168.175C10.3021 166.121 9.75459 164.166 8.97533 162.345C8.18829 160.527 7.16483 158.833 5.91584 157.335C4.82213 156.026 3.55142 154.851 2.08001 153.966C1.73744 153.76 1.31177 153.999 1.28368 154.398C1.25527 154.801 1.6531 155.101 2.02842 154.951C2.32288 154.832 2.61508 154.706 2.90301 154.563C3.45362 154.303 3.99024 153.996 4.50819 153.652C5.0277 153.312 5.51921 152.915 5.98116 152.482C6.44312 152.048 6.87086 151.565 7.24416 151.038C7.61901 150.512 7.94565 149.947 8.21162 149.352C8.27384 149.204 8.34539 149.05 8.40138 148.907L8.56781 148.48C8.67824 148.195 8.78246 147.91 8.88667 147.623C9.29885 146.478 9.67682 145.324 10.019 144.154C10.4001 142.849 10.6941 141.548 10.8512 140.274C11.0036 139.005 11.0347 137.745 10.7967 136.607C10.7432 136.398 10.6802 136.239 10.6127 136.132C10.5687 136.062 10.5389 135.98 10.5525 135.899C10.5618 135.839 10.5914 135.769 10.635 135.712C10.6785 135.655 10.7283 135.615 10.7672 135.587C10.8449 135.531 10.8854 135.502 10.8931 135.469C10.8978 135.439 10.8776 135.398 10.7532 135.388C10.6925 135.384 10.5961 135.398 10.4887 135.459C10.4251 135.493 10.3643 135.544 10.3126 135.602C10.2449 135.677 10.2125 135.775 10.1955 135.875C10.1735 136.003 10.1166 136.123 10.0701 136.245C10.0563 136.281 10.0435 136.32 10.0315 136.362C9.99412 136.489 9.98012 136.637 9.94746 136.832C9.9179 137.026 9.90391 137.216 9.86347 137.415C9.82769 137.613 9.79192 137.812 9.75459 138.012C9.66437 138.415 9.58194 138.819 9.47462 139.229C9.27086 140.047 9.03755 140.876 8.78401 141.7C8.37385 143.053 7.97611 144.464 7.49467 145.824C7.49368 145.826 7.49104 145.828 7.48807 145.828C7.48063 145.828 7.47354 145.828 7.46571 145.828C7.46338 145.828 7.46269 145.832 7.46482 145.832Z" fill="#FF3B30"/>
</g>
<g opacity="0.1">
<mask id="path-3-inside-1_683_15299" fill="white">
<path d="M88.2648 120.403C93.7417 117.521 98.8955 114.052 103.637 110.056C108.396 106.064 112.68 101.527 116.402 96.536C118.386 93.9022 120.183 91.1291 121.777 88.2377C123.353 85.4175 124.527 82.387 125.265 79.2357C126.149 75.0831 125.978 70.7721 124.767 66.7044C123.55 62.6061 121.474 58.8201 118.679 55.6036C115.897 52.4034 112.432 49.8812 108.545 48.2266C108.073 48.0065 107.563 47.865 107.072 47.6832L106.33 47.4232L105.96 47.2928L105.579 47.1947L104.055 46.8013C103.928 46.7698 103.803 46.7319 103.674 46.7054L103.286 46.6389L102.51 46.5049C101.475 46.3228 100.431 46.1962 99.3834 46.1256C98.8604 46.0766 98.3315 46.0983 97.8062 46.0799C97.2803 46.0569 96.7536 46.0621 96.2282 46.0954L94.6506 46.1849C94.1256 46.2282 93.6039 46.3156 93.0806 46.3772L92.2955 46.4724C92.0338 46.5039 91.7767 46.5691 91.517 46.6154L89.9624 46.9178C89.449 47.0415 88.941 47.1893 88.4299 47.3228L87.664 47.5272C87.4112 47.6038 87.1633 47.6973 86.9126 47.7812L85.4122 48.2959L83.9495 48.9114L83.2181 49.2191L82.5099 49.5772L81.0935 50.293L79.7314 51.1065L79.0507 51.5137L78.4006 51.9675L77.1011 52.8757L75.8695 53.8723C75.666 54.0403 75.4539 54.1985 75.257 54.3741L74.6804 54.916C74.2986 55.2794 73.9041 55.6321 73.5312 56.0023C70.5876 59.0037 68.3379 62.6249 66.943 66.6066C66.2607 68.5593 65.8474 70.5974 65.7147 72.6636C65.593 74.6873 65.809 76.7172 66.3539 78.6685C66.4256 78.969 66.5205 79.2633 66.6376 79.5489L66.9536 80.4192C67.1896 80.9905 67.4594 81.547 67.7616 82.0856C68.3649 83.1793 69.0857 84.2025 69.9109 85.1369C70.7506 86.0825 71.6728 86.9501 72.6664 87.7291C73.6753 88.5127 74.7488 89.2076 75.8752 89.8062C78.1544 91.0189 80.6064 91.8666 83.1436 92.3188C85.7309 92.7753 88.3618 92.9292 90.984 92.7774C92.3061 92.7069 93.6314 92.5856 94.9526 92.3908C96.2725 92.1907 97.5888 91.9392 98.8993 91.645L99.8803 91.4135C100.207 91.3336 100.531 91.2388 100.856 91.1523L102.807 90.6222C103.458 90.4489 104.092 90.2156 104.736 90.0156C105.375 89.7997 106.026 89.6184 106.656 89.3747C111.747 87.5301 116.638 85.1649 121.252 82.316C125.868 79.4328 130.234 76.1588 134.301 72.5294C138.364 68.8729 142.146 64.9111 145.616 60.678C149.093 56.4403 152.279 51.9677 155.151 47.2915C158.039 42.6173 160.605 37.7479 162.83 32.7179C165.522 26.6437 167.746 20.3687 169.481 13.9488L169.79 12.8345C169.879 12.4684 169.966 12.1106 170.051 11.7609L170.551 9.76037C170.896 8.49452 171.124 7.33502 171.378 6.29939C171.899 4.22965 172.231 2.60176 172.568 1.36366C173.048 -0.440847 173.266 -0.412992 173.235 1.20179C173.215 2.0082 173.153 3.21443 172.99 4.77806C172.891 5.55686 172.772 6.4245 172.634 7.38099L172.412 8.87716C172.313 9.39304 172.209 9.92962 172.102 10.4869C170.968 16.3741 169.35 22.1556 167.264 27.7713C164.885 34.1849 161.991 40.392 158.612 46.3307C158.185 47.0698 157.739 47.797 157.304 48.5308C156.859 49.2591 156.442 50.0042 155.976 50.7189L154.576 52.8603L153.876 53.9311C153.64 54.2863 153.386 54.6293 153.143 54.9788C152.154 56.3676 151.195 57.7786 150.138 59.1169L148.587 61.1492C148.054 61.8141 147.506 62.4662 146.966 63.1255C144.824 65.776 142.515 68.2903 140.124 70.7177C137.733 73.1511 135.221 75.4609 132.599 77.6382C129.982 79.8326 127.246 81.8784 124.404 83.7664C121.564 85.6742 118.609 87.4029 115.558 88.9426L114.287 89.5778L113.649 89.8967L112.998 90.1897C112.127 90.5767 111.257 90.9763 110.377 91.3559C109.484 91.7077 108.591 92.0599 107.696 92.4124C106.799 92.7563 105.88 93.0418 104.973 93.3567C104.069 93.6836 103.138 93.9197 102.22 94.1852C101.76 94.3144 101.3 94.4434 100.842 94.5721C100.378 94.6846 99.9156 94.7967 99.454 94.9087C97.6164 95.3279 95.7584 95.6498 93.8874 95.8729C90.9105 96.2446 87.9024 96.2905 84.9157 96.0098C81.8759 95.7282 78.8957 94.9849 76.0758 93.8051C73.224 92.5976 70.606 90.8909 68.3426 88.7636C67.2074 87.674 66.1887 86.4671 65.3033 85.1627C64.8568 84.5056 64.4492 83.8224 64.0827 83.1167L63.5608 82.0393L63.1275 80.9223C62.8415 80.1764 62.6043 79.4124 62.4172 78.6352C62.3138 78.25 62.2331 77.859 62.1755 77.4642C62.1084 77.0713 62.034 76.6787 61.9755 76.2847C61.7935 74.7096 61.7763 73.1195 61.924 71.5407C62.2173 68.425 63.039 65.3834 64.3534 62.5487C65.6422 59.7421 67.3145 57.1318 69.3217 54.7941C71.331 52.4815 73.6392 50.4522 76.1842 48.7604C79.9347 46.2296 84.0991 44.3882 88.485 43.3214C89.0257 43.1612 89.5839 43.076 90.1362 42.9648C90.6907 42.8648 91.2406 42.7375 91.7992 42.6614L93.4796 42.4636C93.7603 42.4364 94.0388 42.3893 94.3211 42.3789L95.1673 42.3423C95.7313 42.3212 96.2953 42.2881 96.8595 42.2785L98.5545 42.3309L99.4016 42.3614L100.246 42.4513L101.934 42.6342L103.606 42.9459L104.442 43.1039C104.718 43.1683 104.99 43.2496 105.265 43.322L106.908 43.7714C107.448 43.9466 107.978 44.1545 108.514 44.3455C110.658 45.1227 112.7 46.1618 114.594 47.4396C115.54 48.0699 116.453 48.7501 117.329 49.4774C118.198 50.2086 119.029 50.9839 119.82 51.8003C121.4 53.4287 122.815 55.212 124.045 57.1238C126.251 60.5413 127.796 64.3494 128.598 68.3471C129.399 72.3746 129.313 76.5306 128.345 80.5206C127.386 84.4805 125.686 88.1531 123.712 91.5665C121.727 94.9586 119.5 98.2001 117.048 101.265C107.258 113.524 94.1258 122.89 79.6183 128.469C76.7631 129.554 73.8515 130.482 70.8966 131.248C68.0452 131.973 65.1545 132.529 62.2391 132.914C59.454 133.274 56.6501 133.466 53.8423 133.488C52.4738 133.466 51.1278 133.46 49.8024 133.36C48.4777 133.3 47.1768 133.154 45.9013 133.016C45.0388 132.919 44.1827 132.771 43.3375 132.573C42.7979 132.467 42.5795 132.305 42.6732 132.2C42.8615 131.97 44.3185 131.699 47.0018 131.425C47.4757 131.408 47.9509 131.392 48.4276 131.376C48.9035 131.344 49.3806 131.312 49.8591 131.279C50.337 131.245 50.8161 131.222 51.2952 131.179C51.7739 131.131 52.2536 131.083 52.7345 131.034C53.6957 130.945 54.6577 130.831 55.6225 130.717C56.5886 130.619 57.5517 130.464 58.5177 130.321C62.3988 129.725 66.2382 128.879 70.0125 127.789C76.3244 126.001 82.4348 123.555 88.2446 120.49C88.2499 120.461 88.2566 120.432 88.2648 120.403Z"/>
</mask>
<path d="M88.2648 120.403C93.7417 117.521 98.8955 114.052 103.637 110.056C108.396 106.064 112.68 101.527 116.402 96.536C118.386 93.9022 120.183 91.1291 121.777 88.2377C123.353 85.4175 124.527 82.387 125.265 79.2357C126.149 75.0831 125.978 70.7721 124.767 66.7044C123.55 62.6061 121.474 58.8201 118.679 55.6036C115.897 52.4034 112.432 49.8812 108.545 48.2266C108.073 48.0065 107.563 47.865 107.072 47.6832L106.33 47.4232L105.96 47.2928L105.579 47.1947L104.055 46.8013C103.928 46.7698 103.803 46.7319 103.674 46.7054L103.286 46.6389L102.51 46.5049C101.475 46.3228 100.431 46.1962 99.3834 46.1256C98.8604 46.0766 98.3315 46.0983 97.8062 46.0799C97.2803 46.0569 96.7536 46.0621 96.2282 46.0954L94.6506 46.1849C94.1256 46.2282 93.6039 46.3156 93.0806 46.3772L92.2955 46.4724C92.0338 46.5039 91.7767 46.5691 91.517 46.6154L89.9624 46.9178C89.449 47.0415 88.941 47.1893 88.4299 47.3228L87.664 47.5272C87.4112 47.6038 87.1633 47.6973 86.9126 47.7812L85.4122 48.2959L83.9495 48.9114L83.2181 49.2191L82.5099 49.5772L81.0935 50.293L79.7314 51.1065L79.0507 51.5137L78.4006 51.9675L77.1011 52.8757L75.8695 53.8723C75.666 54.0403 75.4539 54.1985 75.257 54.3741L74.6804 54.916C74.2986 55.2794 73.9041 55.6321 73.5312 56.0023C70.5876 59.0037 68.3379 62.6249 66.943 66.6066C66.2607 68.5593 65.8474 70.5974 65.7147 72.6636C65.593 74.6873 65.809 76.7172 66.3539 78.6685C66.4256 78.969 66.5205 79.2633 66.6376 79.5489L66.9536 80.4192C67.1896 80.9905 67.4594 81.547 67.7616 82.0856C68.3649 83.1793 69.0857 84.2025 69.9109 85.1369C70.7506 86.0825 71.6728 86.9501 72.6664 87.7291C73.6753 88.5127 74.7488 89.2076 75.8752 89.8062C78.1544 91.0189 80.6064 91.8666 83.1436 92.3188C85.7309 92.7753 88.3618 92.9292 90.984 92.7774C92.3061 92.7069 93.6314 92.5856 94.9526 92.3908C96.2725 92.1907 97.5888 91.9392 98.8993 91.645L99.8803 91.4135C100.207 91.3336 100.531 91.2388 100.856 91.1523L102.807 90.6222C103.458 90.4489 104.092 90.2156 104.736 90.0156C105.375 89.7997 106.026 89.6184 106.656 89.3747C111.747 87.5301 116.638 85.1649 121.252 82.316C125.868 79.4328 130.234 76.1588 134.301 72.5294C138.364 68.8729 142.146 64.9111 145.616 60.678C149.093 56.4403 152.279 51.9677 155.151 47.2915C158.039 42.6173 160.605 37.7479 162.83 32.7179C165.522 26.6437 167.746 20.3687 169.481 13.9488L169.79 12.8345C169.879 12.4684 169.966 12.1106 170.051 11.7609L170.551 9.76037C170.896 8.49452 171.124 7.33502 171.378 6.29939C171.899 4.22965 172.231 2.60176 172.568 1.36366C173.048 -0.440847 173.266 -0.412992 173.235 1.20179C173.215 2.0082 173.153 3.21443 172.99 4.77806C172.891 5.55686 172.772 6.4245 172.634 7.38099L172.412 8.87716C172.313 9.39304 172.209 9.92962 172.102 10.4869C170.968 16.3741 169.35 22.1556 167.264 27.7713C164.885 34.1849 161.991 40.392 158.612 46.3307C158.185 47.0698 157.739 47.797 157.304 48.5308C156.859 49.2591 156.442 50.0042 155.976 50.7189L154.576 52.8603L153.876 53.9311C153.64 54.2863 153.386 54.6293 153.143 54.9788C152.154 56.3676 151.195 57.7786 150.138 59.1169L148.587 61.1492C148.054 61.8141 147.506 62.4662 146.966 63.1255C144.824 65.776 142.515 68.2903 140.124 70.7177C137.733 73.1511 135.221 75.4609 132.599 77.6382C129.982 79.8326 127.246 81.8784 124.404 83.7664C121.564 85.6742 118.609 87.4029 115.558 88.9426L114.287 89.5778L113.649 89.8967L112.998 90.1897C112.127 90.5767 111.257 90.9763 110.377 91.3559C109.484 91.7077 108.591 92.0599 107.696 92.4124C106.799 92.7563 105.88 93.0418 104.973 93.3567C104.069 93.6836 103.138 93.9197 102.22 94.1852C101.76 94.3144 101.3 94.4434 100.842 94.5721C100.378 94.6846 99.9156 94.7967 99.454 94.9087C97.6164 95.3279 95.7584 95.6498 93.8874 95.8729C90.9105 96.2446 87.9024 96.2905 84.9157 96.0098C81.8759 95.7282 78.8957 94.9849 76.0758 93.8051C73.224 92.5976 70.606 90.8909 68.3426 88.7636C67.2074 87.674 66.1887 86.4671 65.3033 85.1627C64.8568 84.5056 64.4492 83.8224 64.0827 83.1167L63.5608 82.0393L63.1275 80.9223C62.8415 80.1764 62.6043 79.4124 62.4172 78.6352C62.3138 78.25 62.2331 77.859 62.1755 77.4642C62.1084 77.0713 62.034 76.6787 61.9755 76.2847C61.7935 74.7096 61.7763 73.1195 61.924 71.5407C62.2173 68.425 63.039 65.3834 64.3534 62.5487C65.6422 59.7421 67.3145 57.1318 69.3217 54.7941C71.331 52.4815 73.6392 50.4522 76.1842 48.7604C79.9347 46.2296 84.0991 44.3882 88.485 43.3214C89.0257 43.1612 89.5839 43.076 90.1362 42.9648C90.6907 42.8648 91.2406 42.7375 91.7992 42.6614L93.4796 42.4636C93.7603 42.4364 94.0388 42.3893 94.3211 42.3789L95.1673 42.3423C95.7313 42.3212 96.2953 42.2881 96.8595 42.2785L98.5545 42.3309L99.4016 42.3614L100.246 42.4513L101.934 42.6342L103.606 42.9459L104.442 43.1039C104.718 43.1683 104.99 43.2496 105.265 43.322L106.908 43.7714C107.448 43.9466 107.978 44.1545 108.514 44.3455C110.658 45.1227 112.7 46.1618 114.594 47.4396C115.54 48.0699 116.453 48.7501 117.329 49.4774C118.198 50.2086 119.029 50.9839 119.82 51.8003C121.4 53.4287 122.815 55.212 124.045 57.1238C126.251 60.5413 127.796 64.3494 128.598 68.3471C129.399 72.3746 129.313 76.5306 128.345 80.5206C127.386 84.4805 125.686 88.1531 123.712 91.5665C121.727 94.9586 119.5 98.2001 117.048 101.265C107.258 113.524 94.1258 122.89 79.6183 128.469C76.7631 129.554 73.8515 130.482 70.8966 131.248C68.0452 131.973 65.1545 132.529 62.2391 132.914C59.454 133.274 56.6501 133.466 53.8423 133.488C52.4738 133.466 51.1278 133.46 49.8024 133.36C48.4777 133.3 47.1768 133.154 45.9013 133.016C45.0388 132.919 44.1827 132.771 43.3375 132.573C42.7979 132.467 42.5795 132.305 42.6732 132.2C42.8615 131.97 44.3185 131.699 47.0018 131.425C47.4757 131.408 47.9509 131.392 48.4276 131.376C48.9035 131.344 49.3806 131.312 49.8591 131.279C50.337 131.245 50.8161 131.222 51.2952 131.179C51.7739 131.131 52.2536 131.083 52.7345 131.034C53.6957 130.945 54.6577 130.831 55.6225 130.717C56.5886 130.619 57.5517 130.464 58.5177 130.321C62.3988 129.725 66.2382 128.879 70.0125 127.789C76.3244 126.001 82.4348 123.555 88.2446 120.49C88.2499 120.461 88.2566 120.432 88.2648 120.403Z" fill="#FF3B30" stroke="#FF3B30" mask="url(#path-3-inside-1_683_15299)"/>
</g>
<defs>
<filter id="filter0_i_683_15299" x="27" y="123.387" width="14" height="22" filterUnits="userSpaceOnUse" color-interpolation-filters="sRGB">
<feFlood flood-opacity="0" result="BackgroundImageFix"/>
<feBlend mode="normal" in="SourceGraphic" in2="BackgroundImageFix" result="shape"/>
<feColorMatrix in="SourceAlpha" type="matrix" values="0 0 0 0 0 0 0 0 0 0 0 0 0 0 0 0 0 0 127 0" result="hardAlpha"/>
<feOffset dy="4"/>
<feGaussianBlur stdDeviation="3.55"/>
<feComposite in2="hardAlpha" operator="arithmetic" k2="-1" k3="1"/>
<feColorMatrix type="matrix" values="0 0 0 0 1 0 0 0 0 1 0 0 0 0 1 0 0 0 0.5 0"/>
<feBlend mode="normal" in2="shape" result="effect1_innerShadow_683_15299"/>
</filter>
<filter id="filter1_i_683_15299" x="0" y="135.387" width="19" height="41" filterUnits="userSpaceOnUse" color-interpolation-filters="sRGB">
<feFlood flood-opacity="0" result="BackgroundImageFix"/>
<feBlend mode="normal" in="SourceGraphic" in2="BackgroundImageFix" result="shape"/>
<feColorMatrix in="SourceAlpha" type="matrix" values="0 0 0 0 0 0 0 0 0 0 0 0 0 0 0 0 0 0 127 0" result="hardAlpha"/>
<feOffset dy="4"/>
<feGaussianBlur stdDeviation="3.55"/>
<feComposite in2="hardAlpha" operator="arithmetic" k2="-1" k3="1"/>
<feColorMatrix type="matrix" values="0 0 0 0 1 0 0 0 0 1 0 0 0 0 1 0 0 0 0.5 0"/>
<feBlend mode="normal" in2="shape" result="effect1_innerShadow_683_15299"/>
</filter>
</defs>
</svg>
