<svg width="48" height="48" viewBox="0 0 48 48" fill="none" xmlns="http://www.w3.org/2000/svg">
<path d="M24 0C25.8669 0.000113479 27.6699 0.680179 29.0719 1.91305L29.4415 2.2611L31.1169 3.93651C31.5767 4.39332 32.1772 4.6817 32.8212 4.75502L33.1452 4.77422H35.5455C37.5071 4.77411 39.3944 5.52449 40.8204 6.87147C42.2463 8.21846 43.1029 10.06 43.2145 12.0184L43.2265 12.4552V14.8555C43.2265 15.5036 43.4473 16.1349 43.8458 16.639L44.0618 16.879L45.7348 18.5544C47.1215 19.9333 47.9301 21.7891 47.9957 23.7436C48.0612 25.698 47.3789 27.6039 46.0877 29.0726L45.7396 29.4422L44.0642 31.1177C43.6074 31.5775 43.319 32.1779 43.2457 32.8219L43.2265 33.1459V35.5462C43.2266 37.5078 42.4762 39.3951 41.1293 40.8211C39.7823 42.2471 37.9408 43.1037 35.9824 43.2152L35.5455 43.2272H33.1452C32.498 43.2275 31.8698 43.4456 31.3618 43.8465L31.1217 44.0626L29.4463 45.7356C28.0675 47.1223 26.2116 47.9309 24.2571 47.9964C22.3027 48.062 20.3968 47.3796 18.9281 46.0884L18.5585 45.7404L16.8831 44.065C16.4233 43.6082 15.8228 43.3198 15.1788 43.2465L14.8548 43.2272H12.4545C10.4929 43.2274 8.60562 42.477 7.17964 41.13C5.75366 39.783 4.89705 37.9415 4.78549 35.9831L4.77349 35.5462V33.1459C4.77327 32.4988 4.55512 31.8705 4.15421 31.3625L3.93818 31.1225L2.26516 29.447C0.878454 28.0682 0.0698871 26.2123 0.00432237 24.2579C-0.0612424 22.3034 0.621133 20.3976 1.91231 18.9289L2.26036 18.5592L3.93578 16.8838C4.39259 16.424 4.68096 15.8236 4.75428 15.1796L4.77349 14.8555V12.4552L4.78549 12.0184C4.89267 10.1352 5.68903 8.35729 7.02279 7.02353C8.35655 5.68977 10.1345 4.8934 12.0176 4.78623L12.4545 4.77422H14.8548C15.502 4.77401 16.1302 4.55586 16.6382 4.15494L16.8783 3.93891L18.5537 2.2659C19.2674 1.54794 20.116 0.978141 21.0507 0.589275C21.9853 0.20041 22.9877 0.000146602 24 0ZM32.874 17.4791C32.4238 17.0291 31.8134 16.7763 31.1769 16.7763C30.5405 16.7763 29.93 17.0291 29.4799 17.4791L21.5757 25.3809L18.4721 22.2797L18.2464 22.0805C17.764 21.7074 17.1577 21.532 16.5506 21.5899C15.9435 21.6477 15.3811 21.9344 14.9778 22.3919C14.5745 22.8493 14.3604 23.4431 14.379 24.0526C14.3976 24.6622 14.6475 25.2418 15.078 25.6738L19.8787 30.4744L20.1043 30.6736C20.5661 31.0319 21.1428 31.2093 21.7261 31.1726C22.3095 31.1359 22.8594 30.8877 23.2727 30.4744L32.874 20.8731L33.0732 20.6475C33.4314 20.1857 33.6089 19.609 33.5722 19.0257C33.5355 18.4423 33.2872 17.8924 32.874 17.4791Z" fill="url(#paint0_linear_878_742)" fill-opacity="0.26"/>
<defs>
<linearGradient id="paint0_linear_878_742" x1="-2.53507" y1="6.4575" x2="24.7795" y2="42.6595" gradientUnits="userSpaceOnUse">
<stop stop-color="#FF6F61"/>
<stop offset="1" stop-color="#FF6F61" stop-opacity="0.2"/>
</linearGradient>
</defs>
</svg>
