<svg width="48" height="48" viewBox="0 0 48 48" fill="none" xmlns="http://www.w3.org/2000/svg">
<path d="M23.9963 0L24.2799 0.0167999L24.4217 0.0360002L24.5682 0.0672002L24.835 0.1488C25.0192 0.216632 25.1944 0.306914 25.3565 0.4176L25.6064 0.6144L26.2192 1.1376C31.0669 5.15895 37.1936 7.31832 43.4948 7.2264L44.3167 7.20239C44.854 7.17791 45.384 7.33417 45.8218 7.64615C46.2597 7.95814 46.5801 8.40781 46.7318 8.92319C47.9126 12.935 48.274 17.1429 47.7943 21.2969C47.3147 25.4509 46.0039 29.4663 43.9397 33.1043C41.8756 36.7424 39.1003 39.9289 35.7787 42.4746C32.4571 45.0203 28.657 46.8732 24.6043 47.9232C24.2087 48.0256 23.7935 48.0256 23.3979 47.9232C19.345 46.8735 15.5446 45.0208 12.2228 42.4752C8.90094 39.9296 6.12535 36.7431 4.06098 33.105C1.9966 29.4669 0.685566 25.4515 0.205779 21.2974C-0.274008 17.1432 0.0872442 12.9351 1.26807 8.92319C1.41973 8.40781 1.74013 7.95814 2.17799 7.64615C2.61584 7.33417 3.14584 7.17791 3.68316 7.20239C10.2615 7.50272 16.7152 5.33997 21.7807 1.1376L22.4127 0.5976L22.6434 0.4176C22.8055 0.306914 22.9806 0.216632 23.1649 0.1488L23.434 0.0672002C23.5282 0.044481 23.6237 0.027648 23.72 0.0167999L23.9963 0ZM32.9117 17.5032C32.6885 17.28 32.4235 17.103 32.1318 16.9822C31.84 16.8615 31.5273 16.7993 31.2115 16.7993C30.8957 16.7993 30.583 16.8615 30.2913 16.9822C29.9996 17.103 29.7345 17.28 29.5114 17.5032L21.598 25.404L18.4909 22.3032L18.265 22.104C17.782 21.731 17.1749 21.5556 16.5672 21.6134C15.9594 21.6713 15.3964 21.958 14.9926 22.4153C14.5888 22.8727 14.3745 23.4664 14.3931 24.0759C14.4117 24.6853 14.6619 25.2649 15.0929 25.6968L19.8991 30.4968L20.125 30.696C20.5873 31.0542 21.1647 31.2316 21.7487 31.1949C22.3327 31.1582 22.8832 30.91 23.297 30.4968L32.9093 20.8968L33.1088 20.6712C33.4674 20.2094 33.6451 19.6328 33.6083 19.0496C33.5716 18.4663 33.3231 17.9165 32.9093 17.5032H32.9117Z" fill="url(#paint0_linear_878_733)" fill-opacity="0.26"/>
<defs>
<linearGradient id="paint0_linear_878_733" x1="-6.18557" y1="-4.8" x2="23.1113" y2="43.0442" gradientUnits="userSpaceOnUse">
<stop stop-color="#9B51E0"/>
<stop offset="1" stop-color="#9B51E0" stop-opacity="0.2"/>
</linearGradient>
</defs>
</svg>
