<svg width="44" height="48" viewBox="0 0 44 48" fill="none" xmlns="http://www.w3.org/2000/svg">
<path d="M31.2 0C31.7878 7.75453e-05 32.3552 0.215895 32.7945 0.606517C33.2338 0.997139 33.5144 1.5354 33.5832 2.1192L33.6 2.4V4.8H36C37.8365 4.7999 39.6036 5.50158 40.9398 6.76148C42.276 8.02138 43.0803 9.74426 43.188 11.5776L43.2 12V40.8C43.2001 42.6365 42.4984 44.4036 41.2385 45.7398C39.9786 47.076 38.2557 47.8803 36.4224 47.988L36 48H7.2C5.36349 48.0001 3.59636 47.2984 2.26017 46.0385C0.923983 44.7786 0.119742 43.0557 0.0120003 41.2224L1.11851e-08 40.8V12C-0.000102292 10.1635 0.70158 8.39636 1.96148 7.06017C3.22138 5.72398 4.94426 4.91974 6.7776 4.812L7.2 4.8H9.6V2.4C9.60068 1.78829 9.83491 1.19992 10.2548 0.755116C10.6748 0.310309 11.2487 0.042636 11.8593 0.00678692C12.47 -0.0290622 13.0713 0.169619 13.5404 0.562236C14.0095 0.954852 14.311 1.51177 14.3832 2.1192L14.4 2.4V4.8H28.8V2.4C28.8 1.76348 29.0529 1.15303 29.5029 0.702944C29.953 0.252856 30.5635 0 31.2 0ZM38.4 16.8H4.8V39.9C4.8 41.592 5.7264 42.9864 6.9192 43.1784L7.2 43.2H36C37.2312 43.2 38.2464 41.928 38.3832 40.284L38.4 39.9V16.8Z" fill="url(#paint0_linear_878_752)" fill-opacity="0.26"/>
<defs>
<linearGradient id="paint0_linear_878_752" x1="-5.56701" y1="-4.8" x2="25.028" y2="40.1677" gradientUnits="userSpaceOnUse">
<stop stop-color="#9B51E0"/>
<stop offset="1" stop-color="#9B51E0" stop-opacity="0.2"/>
</linearGradient>
</defs>
</svg>
