<svg width="23" height="23" viewBox="0 0 23 23" fill="none" xmlns="http://www.w3.org/2000/svg">
<g clip-path="url(#clip0_936_5940)">
<path d="M4.79199 6.70833C4.79199 7.725 5.19586 8.70002 5.91475 9.41891C6.63364 10.1378 7.60866 10.5417 8.62533 10.5417C9.64199 10.5417 10.617 10.1378 11.3359 9.41891C12.0548 8.70002 12.4587 7.725 12.4587 6.70833C12.4587 5.69167 12.0548 4.71665 11.3359 3.99776C10.617 3.27887 9.64199 2.875 8.62533 2.875C7.60866 2.875 6.63364 3.27887 5.91475 3.99776C5.19586 4.71665 4.79199 5.69167 4.79199 6.70833Z" stroke="#9B51E0" stroke-width="2" stroke-linecap="round" stroke-linejoin="round"/>
<path d="M2.875 20.125V18.2083C2.875 17.1917 3.27887 16.2166 3.99776 15.4978C4.71665 14.7789 5.69167 14.375 6.70833 14.375H10.5417C11.4617 14.375 12.305 14.6989 12.9662 15.2385" stroke="#9B51E0" stroke-width="2" stroke-linecap="round" stroke-linejoin="round"/>
<path d="M15.333 2.99951C16.1576 3.21063 16.8884 3.69018 17.4103 4.36256C17.9322 5.03493 18.2155 5.86189 18.2155 6.71305C18.2155 7.56422 17.9322 8.39117 17.4103 9.06355C16.8884 9.73592 16.1576 10.2155 15.333 10.4266" stroke="#9B51E0" stroke-width="2" stroke-linecap="round" stroke-linejoin="round"/>
<path d="M15.333 21.083H17.9869C18.3388 21.083 18.6763 20.9432 18.9251 20.6944C19.174 20.4455 19.3138 20.108 19.3138 19.7561V15.333M19.3138 15.333L17.5445 17.1022M19.3138 15.333L21.083 17.1022" stroke="#9B51E0" stroke-width="2" stroke-linecap="round" stroke-linejoin="round"/>
</g>
<defs>
<clipPath id="clip0_936_5940">
<rect width="23" height="23" fill="white"/>
</clipPath>
</defs>
</svg>
