<?xml version="1.0" encoding="UTF-8"?>
<!DOCTYPE svg PUBLIC "-//W3C//DTD SVG 1.1//EN" "http://www.w3.org/Graphics/SVG/1.1/DTD/svg11.dtd">
<!-- Creator: CorelDRAW -->
<svg xmlns="http://www.w3.org/2000/svg" xml:space="preserve" width="700px" height="200px" version="1.1" style="shape-rendering:geometricPrecision; text-rendering:geometricPrecision; image-rendering:optimizeQuality; fill-rule:evenodd; clip-rule:evenodd"
viewBox="0 0 154.85 44.24"
 xmlns:xlink="http://www.w3.org/1999/xlink"
 xmlns:xodm="http://www.corel.com/coreldraw/odm/2003">
 <defs>
  <style type="text/css">
   <![CDATA[
    .str0 {stroke:#FEFEFE;stroke-width:0.26;stroke-miterlimit:22.9256}
    .fil0 {fill:none}
    .fil1 {fill:#FEFEFE;fill-rule:nonzero}
   ]]>
  </style>
 </defs>
 <g id="Layer_x0020_1">
  <metadata id="CorelCorpID_0Corel-Layer"/>
  <path class="fil0" d="M0 0l154.85 0 0 44.24 -154.85 0 0 -44.24zm36.2 14.22l109.86 0c1.45,0 2.64,1.19 2.64,2.64l0 14.03c0,1.45 -1.19,2.64 -2.64,2.64l-109.86 0c-1.45,0 -2.63,-1.19 -2.63,-2.64l0 -14.03c0,-1.45 1.18,-2.64 2.63,-2.64z"/>
  <path class="fil1" d="M3.43 31.77l0 -15.81 11.92 0 0 3.21 -8.3 0 0 2.6 7.31 0 0 3.21 -7.31 0 0 3.58 8.3 0 0 3.21 -11.92 0zm14.24 -2.58l8.17 -10.02 -8.15 0 0 -3.21 13.24 0 0 2.6 -8.17 10.02 8.12 0 0 3.21 -13.21 0 0 -2.6z"/>
  <path class="fil1" d="M49.82 22.73l0 6.56c-0.91,0.92 -1.84,1.61 -2.82,2.05 -0.97,0.45 -2.02,0.67 -3.15,0.67 -1.13,0 -2.2,-0.21 -3.19,-0.64 -1,-0.42 -1.87,-0.99 -2.61,-1.73 -0.73,-0.73 -1.32,-1.58 -1.75,-2.56 -0.43,-0.98 -0.64,-2.03 -0.64,-3.15 0,-1.13 0.21,-2.19 0.64,-3.18 0.43,-0.99 1.02,-1.85 1.77,-2.6 0.74,-0.75 1.61,-1.33 2.6,-1.76 0.99,-0.43 2.05,-0.65 3.18,-0.65 0.92,0 1.8,0.15 2.65,0.44 0.86,0.3 1.61,0.72 2.26,1.26l-1.75 3.01c-0.34,-0.39 -0.81,-0.73 -1.41,-1 -0.6,-0.27 -1.22,-0.41 -1.87,-0.41 -0.58,0 -1.15,0.13 -1.68,0.38 -0.54,0.25 -1.01,0.59 -1.42,1.02 -0.4,0.43 -0.73,0.93 -0.97,1.51 -0.24,0.58 -0.36,1.2 -0.36,1.87 0,0.68 0.12,1.31 0.36,1.9 0.24,0.59 0.57,1.1 0.97,1.54 0.41,0.43 0.88,0.78 1.41,1.04 0.52,0.25 1.08,0.38 1.67,0.38 0.47,0 0.94,-0.07 1.41,-0.21 0.48,-0.15 0.85,-0.32 1.1,-0.53l0 -2.04 -2.87 0 0 -3.17 6.47 0zm10.62 -1.15l-1.47 3.75 2.94 0 -1.47 -3.75zm1.63 -5.63l6.24 15.83 -3.87 0 -1.33 -3.39 -5.34 0 -1.34 3.39 -3.87 0 6.25 -15.83 3.26 0zm21.34 3.21l-4.93 0 0 12.62 -3.62 0 0 -12.62 -4.93 0 0 -3.21 13.48 0 0 3.21zm11.91 2.58l0 -5.82 3.62 0 0 15.86 -3.62 0 0 -6.83 -5.48 0 0 6.83 -3.62 0 0 -15.86 3.62 0 0 5.82 5.48 0zm7.52 10.02l0 -15.81 11.92 0 0 3.21 -8.3 0 0 2.6 7.3 0 0 3.21 -7.3 0 0 3.58 8.3 0 0 3.21 -11.92 0zm23.76 -10.7c0,-0.56 -0.2,-1.02 -0.59,-1.37 -0.39,-0.36 -0.96,-0.53 -1.72,-0.53l-2.85 0 0 3.82 2.9 0c0.31,0 0.61,-0.05 0.89,-0.15 0.28,-0.09 0.52,-0.23 0.73,-0.4 0.2,-0.18 0.36,-0.38 0.47,-0.61 0.11,-0.24 0.17,-0.49 0.17,-0.76zm-5.16 5.13l0 5.59 -3.62 0 0 -15.83 6.5 0c0.86,0 1.65,0.12 2.37,0.38 0.72,0.26 1.35,0.61 1.88,1.07 0.53,0.46 0.94,1.01 1.23,1.63 0.3,0.63 0.44,1.3 0.44,2.03 0,0.54 -0.1,1.07 -0.29,1.57 -0.2,0.51 -0.47,0.97 -0.82,1.39 -0.34,0.42 -0.75,0.79 -1.21,1.11 -0.46,0.32 -0.96,0.57 -1.5,0.75l-0.38 0.11 4.68 5.79 -4.3 0 -4.53 -5.59 -0.45 0zm21.05 -5.13c0,-0.56 -0.2,-1.02 -0.59,-1.37 -0.39,-0.36 -0.96,-0.53 -1.72,-0.53l-2.85 0 0 3.82 2.9 0c0.32,0 0.61,-0.05 0.89,-0.15 0.28,-0.09 0.52,-0.23 0.73,-0.4 0.2,-0.18 0.36,-0.38 0.47,-0.61 0.11,-0.24 0.17,-0.49 0.17,-0.76zm-5.16 5.13l0 5.59 -3.62 0 0 -15.83 6.5 0c0.86,0 1.65,0.12 2.37,0.38 0.73,0.26 1.35,0.61 1.88,1.07 0.53,0.46 0.94,1.01 1.23,1.63 0.3,0.63 0.44,1.3 0.44,2.03 0,0.54 -0.09,1.07 -0.29,1.57 -0.2,0.51 -0.47,0.97 -0.82,1.39 -0.34,0.42 -0.75,0.79 -1.21,1.11 -0.46,0.32 -0.96,0.57 -1.5,0.75l-0.38 0.11 4.68 5.79 -4.3 0 -4.52 -5.59 -0.46 0z"/>
  <path class="fil0 str0" d="M149.4 10.72c1.11,0 2.01,0.9 2.01,2.01 0,1.12 -0.9,2.02 -2.01,2.02 -1.11,0 -2.02,-0.9 -2.02,-2.02 0,-1.11 0.91,-2.01 2.02,-2.01z"/>
  <path class="fil1" d="M148.69 13.74l0 -1.97 0.84 0c0.21,0 0.36,0.01 0.46,0.05 0.09,0.03 0.17,0.1 0.23,0.19 0.06,0.09 0.09,0.19 0.09,0.31 0,0.15 -0.05,0.27 -0.14,0.37 -0.08,0.09 -0.21,0.16 -0.39,0.18 0.09,0.05 0.16,0.11 0.22,0.17 0.05,0.06 0.13,0.16 0.22,0.32l0.25 0.38 -0.48 0 -0.29 -0.43c-0.1,-0.15 -0.17,-0.25 -0.21,-0.29 -0.04,-0.04 -0.08,-0.07 -0.12,-0.08 -0.04,-0.01 -0.11,-0.02 -0.2,-0.02l-0.08 0 0 0.82 -0.4 0zm0.4 -1.14l0.29 0c0.19,0 0.31,-0.01 0.36,-0.02 0.05,-0.02 0.09,-0.05 0.11,-0.09 0.03,-0.04 0.04,-0.08 0.04,-0.14 0,-0.07 -0.01,-0.12 -0.05,-0.17 -0.04,-0.04 -0.09,-0.06 -0.15,-0.07 -0.03,-0.01 -0.13,-0.01 -0.29,-0.01l-0.31 0 0 0.5z"/>
 </g>
</svg>
