<?xml version="1.0" encoding="UTF-8"?>
<!DOCTYPE svg PUBLIC "-//W3C//DTD SVG 1.1//EN" "http://www.w3.org/Graphics/SVG/1.1/DTD/svg11.dtd">
<!-- Creator: CorelDRAW -->
<svg xmlns="http://www.w3.org/2000/svg" xml:space="preserve" width="700px" height="200px" version="1.1" style="shape-rendering:geometricPrecision; text-rendering:geometricPrecision; image-rendering:optimizeQuality; fill-rule:evenodd; clip-rule:evenodd"
viewBox="0 0 698.46 199.56"
 xmlns:xlink="http://www.w3.org/1999/xlink"
 xmlns:xodm="http://www.corel.com/coreldraw/odm/2003">
 <defs>
  <style type="text/css">
   <![CDATA[
    .str0 {stroke:#545454;stroke-width:1.18;stroke-miterlimit:22.9256}
    .fil3 {fill:none}
    .fil1 {fill:#FF6767}
    .fil2 {fill:#FEFEFE;fill-rule:nonzero}
    .fil0 {fill:#545454;fill-rule:nonzero}
   ]]>
  </style>
 </defs>
 <g id="Layer_x0020_1">
  <metadata id="CorelCorpID_0Corel-Layer"/>
  <g id="_2294829487936">
   <path class="fil0" d="M15.48 143.3l0 -71.33 53.78 0 0 14.49 -37.45 0 0 11.74 32.96 0 0 14.49 -32.96 0 0 16.12 37.45 0 0 14.49 -53.78 0zm64.23 -11.63l36.84 -45.21 -36.74 0 0 -14.49 59.7 0 0 11.74 -36.84 45.21 36.63 0 0 14.49 -59.59 0 0 -11.74z"/>
   <path class="fil1" d="M163.29 64.16l495.56 0c6.53,0 11.87,5.34 11.87,11.87l0 63.32c0,6.53 -5.34,11.87 -11.87,11.87l-495.56 0c-6.53,0 -11.88,-5.34 -11.88,-11.87l0 -63.32c0,-6.53 5.35,-11.87 11.88,-11.87z"/>
   <path class="fil2" d="M224.72 102.54l0 29.59c-4.09,4.15 -8.32,7.23 -12.71,9.24 -4.39,2 -9.13,3.01 -14.23,3.01 -5.11,0 -9.9,-0.96 -14.39,-2.86 -4.49,-1.91 -8.4,-4.51 -11.74,-7.81 -3.33,-3.3 -5.97,-7.16 -7.91,-11.58 -1.94,-4.42 -2.9,-9.15 -2.9,-14.18 0,-5.11 0.96,-9.89 2.9,-14.34 1.94,-4.46 4.6,-8.37 7.96,-11.74 3.37,-3.37 7.28,-6.02 11.74,-7.96 4.46,-1.94 9.23,-2.9 14.34,-2.9 4.15,0 8.14,0.66 11.99,1.98 3.84,1.33 7.22,3.22 10.15,5.67l-7.86 13.57c-1.56,-1.77 -3.69,-3.26 -6.38,-4.49 -2.68,-1.22 -5.49,-1.84 -8.41,-1.84 -2.66,0 -5.19,0.56 -7.61,1.69 -2.41,1.12 -4.54,2.65 -6.38,4.59 -1.83,1.94 -3.29,4.22 -4.38,6.84 -1.09,2.62 -1.64,5.42 -1.64,8.42 0,3.06 0.55,5.91 1.64,8.57 1.09,2.65 2.55,4.96 4.38,6.94 1.84,1.97 3.95,3.53 6.33,4.69 2.38,1.16 4.9,1.74 7.55,1.74 2.11,0 4.24,-0.33 6.38,-0.97 2.14,-0.65 3.79,-1.45 4.95,-2.4l0 -9.19 -12.96 0 0 -14.28 29.19 0zm47.89 -5.21l-6.63 16.94 13.27 0 -6.64 -16.94zm7.35 -25.41l28.17 71.44 -17.45 0 -6.02 -15.31 -24.09 0 -6.02 15.31 -17.45 0 28.17 -71.44 14.69 0zm96.27 14.49l-22.25 0 0 56.95 -16.32 0 0 -56.95 -22.25 0 0 -14.49 60.82 0 0 14.49zm53.72 11.64l0 -26.23 16.32 0 0 71.54 -16.32 0 0 -30.82 -24.7 0 0 30.82 -16.33 0 0 -71.54 16.33 0 0 26.23 24.7 0zm33.91 45.2l0 -71.33 53.78 0 0 14.49 -37.45 0 0 11.74 32.96 0 0 14.49 -32.96 0 0 16.12 37.45 0 0 14.49 -53.78 0zm107.19 -48.26c0,-2.52 -0.88,-4.58 -2.65,-6.18 -1.77,-1.6 -4.35,-2.4 -7.75,-2.4l-12.86 0 0 17.25 13.06 0c1.43,0 2.77,-0.22 4.03,-0.66 1.26,-0.45 2.35,-1.06 3.27,-1.84 0.91,-0.78 1.63,-1.7 2.14,-2.76 0.51,-1.05 0.76,-2.19 0.76,-3.41zm-23.26 23.16l0 25.21 -16.33 0 0 -71.44 29.29 0c3.87,0 7.45,0.58 10.71,1.74 3.27,1.15 6.09,2.77 8.47,4.84 2.38,2.08 4.24,4.53 5.56,7.35 1.33,2.83 1.99,5.87 1.99,9.14 0,2.44 -0.44,4.81 -1.32,7.09 -0.89,2.28 -2.11,4.37 -3.68,6.27 -1.56,1.91 -3.38,3.58 -5.46,5 -2.07,1.43 -4.33,2.55 -6.78,3.37l-1.74 0.51 21.13 26.13 -19.39 0 -20.41 -25.21 -2.04 0zm94.94 -23.16c0,-2.52 -0.89,-4.58 -2.65,-6.18 -1.77,-1.6 -4.36,-2.4 -7.76,-2.4l-12.86 0 0 17.25 13.06 0c1.43,0 2.78,-0.22 4.04,-0.66 1.25,-0.45 2.34,-1.06 3.26,-1.84 0.92,-0.78 1.63,-1.7 2.14,-2.76 0.51,-1.05 0.77,-2.19 0.77,-3.41zm-23.27 23.16l0 25.21 -16.33 0 0 -71.44 29.29 0c3.88,0 7.45,0.58 10.72,1.74 3.26,1.15 6.09,2.77 8.47,4.84 2.38,2.08 4.23,4.53 5.56,7.35 1.33,2.83 1.99,5.87 1.99,9.14 0,2.44 -0.44,4.81 -1.33,7.09 -0.88,2.28 -2.11,4.37 -3.67,6.27 -1.57,1.91 -3.39,3.58 -5.46,5 -2.08,1.43 -4.34,2.55 -6.79,3.37l-1.73 0.51 21.12 26.13 -19.39 0 -20.41 -25.21 -2.04 0z"/>
   <g>
    <path class="fil3 str0" d="M673.89 48.34c5.02,0 9.09,4.07 9.09,9.09 0,5.02 -4.07,9.09 -9.09,9.09 -5.02,0 -9.1,-4.07 -9.1,-9.09 0,-5.02 4.08,-9.09 9.1,-9.09z"/>
    <path class="fil0" d="M670.68 61.99l0 -8.92 3.79 0c0.95,0 1.65,0.08 2.08,0.24 0.43,0.16 0.78,0.45 1.04,0.86 0.26,0.41 0.39,0.87 0.39,1.4 0,0.67 -0.2,1.23 -0.59,1.66 -0.39,0.44 -0.98,0.71 -1.76,0.83 0.39,0.22 0.71,0.47 0.96,0.74 0.25,0.28 0.59,0.76 1.02,1.45l1.09 1.74 -2.15 0 -1.3 -1.95c-0.46,-0.69 -0.78,-1.12 -0.95,-1.3 -0.17,-0.18 -0.35,-0.31 -0.54,-0.37 -0.2,-0.07 -0.5,-0.1 -0.91,-0.1l-0.37 0 0 3.72 -1.8 0zm1.8 -5.14l1.33 0c0.87,0 1.41,-0.04 1.62,-0.11 0.22,-0.08 0.39,-0.2 0.51,-0.38 0.12,-0.18 0.18,-0.4 0.18,-0.67 0,-0.3 -0.08,-0.54 -0.24,-0.73 -0.16,-0.19 -0.39,-0.3 -0.68,-0.35 -0.14,-0.02 -0.58,-0.03 -1.31,-0.03l-1.41 0 0 2.27z"/>
   </g>
  </g>
  <rect class="fil3" width="698.46" height="199.56"/>
 </g>
</svg>
