<?xml version="1.0" encoding="UTF-8"?>
<!DOCTYPE svg PUBLIC "-//W3C//DTD SVG 1.1//EN" "http://www.w3.org/Graphics/SVG/1.1/DTD/svg11.dtd">
<!-- Creator: CorelDRAW -->
<svg xmlns="http://www.w3.org/2000/svg" xml:space="preserve" width="500px" height="500px" version="1.1" style="shape-rendering:geometricPrecision; text-rendering:geometricPrecision; image-rendering:optimizeQuality; fill-rule:evenodd; clip-rule:evenodd"
viewBox="0 0 470.13 470.13"
 xmlns:xlink="http://www.w3.org/1999/xlink"
 xmlns:xodm="http://www.corel.com/coreldraw/odm/2003">
 <defs>
  <style type="text/css">
   <![CDATA[
    .str0 {stroke:#545454;stroke-width:1.11;stroke-miterlimit:22.9256}
    .fil3 {fill:none}
    .fil1 {fill:#FF6767}
    .fil2 {fill:#FEFEFE;fill-rule:nonzero}
    .fil0 {fill:#545454;fill-rule:nonzero}
   ]]>
  </style>
 </defs>
 <g id="Layer_x0020_1">
  <metadata id="CorelCorpID_0Corel-Layer"/>
  <g id="_2294833409968">
   <path class="fil0" d="M161.62 222.98l0 -89.88 67.77 0 0 18.26 -47.19 0 0 14.78 41.53 0 0 18.26 -41.53 0 0 20.32 47.19 0 0 18.26 -67.77 0zm80.93 -14.66l46.42 -56.96 -46.29 0 0 -18.26 75.23 0 0 14.78 -46.42 56.97 46.16 0 0 18.26 -75.1 0 0 -14.79z"/>
   <g>
    <path class="fil1" d="M40.25 249.81l389.39 0c5.14,0 9.34,4.2 9.34,9.33l0 49.75c0,5.14 -4.2,9.34 -9.34,9.34l-389.39 0c-5.13,0 -9.33,-4.2 -9.33,-9.34l0 -49.75c0,-5.13 4.2,-9.33 9.33,-9.33z"/>
    <path class="fil2" d="M88.52 279.97l0 23.25c-3.21,3.26 -6.53,5.68 -9.98,7.26 -3.45,1.57 -7.18,2.36 -11.19,2.36 -4.01,0 -7.78,-0.74 -11.3,-2.24 -3.53,-1.5 -6.61,-3.54 -9.23,-6.13 -2.61,-2.6 -4.69,-5.63 -6.21,-9.11 -1.52,-3.47 -2.28,-7.19 -2.28,-11.14 0,-4.01 0.76,-7.77 2.28,-11.27 1.52,-3.5 3.61,-6.57 6.26,-9.22 2.64,-2.65 5.71,-4.73 9.22,-6.25 3.5,-1.53 7.25,-2.29 11.26,-2.29 3.26,0 6.4,0.52 9.42,1.56 3.02,1.05 5.68,2.53 7.98,4.46l-6.17 10.66c-1.23,-1.39 -2.9,-2.57 -5.01,-3.53 -2.11,-0.96 -4.32,-1.44 -6.62,-1.44 -2.08,0 -4.07,0.44 -5.97,1.32 -1.9,0.88 -3.57,2.09 -5.01,3.61 -1.45,1.52 -2.6,3.31 -3.45,5.37 -0.86,2.06 -1.28,4.26 -1.28,6.62 0,2.4 0.42,4.65 1.28,6.73 0.85,2.09 2,3.91 3.45,5.45 1.44,1.56 3.1,2.78 4.97,3.69 1.87,0.91 3.85,1.37 5.93,1.37 1.66,0 3.33,-0.26 5.01,-0.77 1.69,-0.5 2.98,-1.13 3.89,-1.88l0 -7.22 -10.18 0 0 -11.22 22.93 0zm37.64 -4.09l-5.21 13.31 10.42 0 -5.21 -13.31zm5.77 -19.97l22.13 56.13 -13.71 0 -4.73 -12.03 -18.93 0 -4.72 12.03 -13.72 0 22.14 -56.13 11.54 0zm75.64 11.39l-17.48 0 0 44.74 -12.82 0 0 -44.74 -17.49 0 0 -11.39 47.79 0 0 11.39zm42.21 9.14l0 -20.61 12.83 0 0 56.21 -12.83 0 0 -24.21 -19.4 0 0 24.21 -12.83 0 0 -56.21 12.83 0 0 20.61 19.4 0zm26.65 35.52l0 -56.05 42.26 0 0 11.39 -29.43 0 0 9.22 25.9 0 0 11.39 -25.9 0 0 12.67 29.43 0 0 11.38 -42.26 0zm84.23 -37.93c0,-1.97 -0.7,-3.59 -2.09,-4.85 -1.39,-1.25 -3.42,-1.88 -6.09,-1.88l-10.1 0 0 13.55 10.26 0c1.12,0 2.18,-0.17 3.17,-0.52 0.99,-0.35 1.84,-0.83 2.56,-1.45 0.72,-0.61 1.29,-1.33 1.69,-2.16 0.4,-0.83 0.6,-1.72 0.6,-2.69zm-18.28 18.21l0 19.8 -12.83 0 0 -56.13 23.01 0c3.05,0 5.85,0.46 8.42,1.37 2.56,0.9 4.78,2.18 6.65,3.8 1.87,1.63 3.33,3.56 4.37,5.78 1.05,2.22 1.57,4.61 1.57,7.17 0,1.93 -0.35,3.79 -1.04,5.58 -0.7,1.79 -1.66,3.43 -2.89,4.93 -1.23,1.5 -2.66,2.81 -4.29,3.93 -1.63,1.12 -3.41,2 -5.33,2.64l-1.37 0.41 16.6 20.52 -15.23 0 -16.04 -19.8 -1.6 0zm74.6 -18.21c0,-1.97 -0.7,-3.59 -2.09,-4.85 -1.39,-1.25 -3.42,-1.88 -6.09,-1.88l-10.1 0 0 13.55 10.26 0c1.12,0 2.18,-0.17 3.17,-0.52 0.99,-0.35 1.84,-0.83 2.56,-1.45 0.72,-0.61 1.28,-1.33 1.69,-2.16 0.4,-0.83 0.6,-1.72 0.6,-2.69zm-18.28 18.21l0 19.8 -12.83 0 0 -56.13 23.01 0c3.05,0 5.85,0.46 8.42,1.37 2.56,0.9 4.78,2.18 6.65,3.8 1.88,1.63 3.33,3.56 4.37,5.78 1.05,2.22 1.57,4.61 1.57,7.17 0,1.93 -0.35,3.79 -1.05,5.58 -0.69,1.79 -1.65,3.43 -2.88,4.93 -1.23,1.5 -2.66,2.81 -4.29,3.93 -1.63,1.12 -3.41,2 -5.33,2.64l-1.37 0.41 16.6 20.52 -15.23 0 -16.04 -19.8 -1.6 0z"/>
    <g>
     <path class="fil3 str0" d="M441.46 237.38c3.95,0 7.15,3.2 7.15,7.15 0,3.94 -3.2,7.14 -7.15,7.14 -3.95,0 -7.15,-3.2 -7.15,-7.14 0,-3.95 3.2,-7.15 7.15,-7.15z"/>
     <path class="fil0" d="M438.94 248.11l0 -7.01 2.98 0c0.75,0 1.29,0.06 1.63,0.19 0.34,0.13 0.61,0.35 0.82,0.67 0.2,0.32 0.3,0.69 0.3,1.1 0,0.53 -0.15,0.97 -0.46,1.31 -0.31,0.34 -0.77,0.56 -1.38,0.65 0.3,0.17 0.56,0.37 0.75,0.58 0.2,0.22 0.47,0.6 0.81,1.14l0.85 1.37 -1.69 0 -1.02 -1.53c-0.36,-0.54 -0.61,-0.89 -0.74,-1.03 -0.14,-0.14 -0.28,-0.24 -0.43,-0.29 -0.15,-0.05 -0.39,-0.08 -0.72,-0.08l-0.28 0 0 2.93 -1.42 0zm1.42 -4.04l1.04 0c0.68,0 1.1,-0.03 1.27,-0.09 0.17,-0.06 0.31,-0.16 0.4,-0.3 0.1,-0.14 0.14,-0.31 0.14,-0.52 0,-0.24 -0.06,-0.43 -0.18,-0.58 -0.13,-0.14 -0.31,-0.23 -0.54,-0.27 -0.11,-0.02 -0.46,-0.02 -1.03,-0.02l-1.1 0 0 1.78z"/>
    </g>
   </g>
  </g>
  <circle class="fil3" cx="235.06" cy="235.06" r="235.06"/>
 </g>
</svg>
